0
SECTION
2
HEADER
9
$HANDSEED
5
DB1
9
$INSUNITS
70
6
9
$ACADVER
1
AC1021
0
ENDSEC
0
SECTION
2
CLASSES
0
ENDSEC
0
SECTION
2
TABLES
0
TABLE
2
LTYPE
5
DAF
330
0
100
AcDbSymbolTable
70
5
0
LTYPE
5
910
330
DAF
100
AcDbSymbolTableRecord
100
AcDbLinetypeTableRecord
2
CONTINUOUS
3
______
70
0
72
65
73
0
40
0
0
LTYPE
5
911
330
DAF
100
AcDbSymbolTableRecord
100
AcDbLinetypeTableRecord
2
DASHED
3
_ _ _ 
70
0
72
65
73
2
40
10
49
5
74
0
49
-5
74
0
0
LTYPE
5
912
330
DAF
100
AcDbSymbolTableRecord
100
AcDbLinetypeTableRecord
2
DOTTED
3
. . . 
70
0
72
65
73
2
40
5
49
0
74
0
49
-5
74
0
0
LTYPE
5
914
330
DAF
100
AcDbSymbolTableRecord
100
AcDbLinetypeTableRecord
2
ByBlock
3

70
0
72
65
73
0
40
0
0
LTYPE
5
915
330
DAF
100
AcDbSymbolTableRecord
100
AcDbLinetypeTableRecord
2
ByLayer
3

70
0
72
65
73
0
40
0
0
ENDTAB
0
TABLE
2
LAYER
5
DB0
330
0
100
AcDbSymbolTable
70
4
0
LAYER
5
913
330
DB0
100
AcDbSymbolTableRecord
100
AcDbLayerTableRecord
2
0
62
7
70
0
6
CONTINUOUS
390
1
0
LAYER
5
924
330
DB0
100
AcDbSymbolTableRecord
100
AcDbLayerTableRecord
2
roofs
62
3
70
0
6
CONTINUOUS
390
1
0
LAYER
5
925
330
DB0
100
AcDbSymbolTableRecord
100
AcDbLayerTableRecord
2
panels
62
5
70
0
6
CONTINUOUS
390
1
0
LAYER
5
926
330
DB0
100
AcDbSymbolTableRecord
100
AcDbLayerTableRecord
2
trees
62
3
70
0
6
CONTINUOUS
390
1
0
ENDTAB
0
TABLE
2
VPORT
5
916
330
0
100
AcDbSymbolTable
70
1
0
VPORT
5
91C
330
916
100
AcDbSymbolTableRecord
100
AcDbViewportTableRecord
2
*ACTIVE
40
1000
70
0
0
ENDTAB
0
TABLE
2
STYLE
5
917
330
0
100
AcDbSymbolTable
70
1
0
STYLE
5
91D
330
917
100
AcDbSymbolTableRecord
100
AcDbTextStyleTableRecord
2
standard
70
0
40
0
41
1
50
0
71
0
42
1
3
txt
4

0
ENDTAB
0
TABLE
2
VIEW
5
918
330
0
100
AcDbSymbolTable
70
0
0
ENDTAB
0
TABLE
2
UCS
5
919
330
0
100
AcDbSymbolTable
70
0
0
ENDTAB
0
TABLE
2
APPID
5
91A
330
0
100
AcDbSymbolTable
70
1
0
APPID
5
91E
330
91A
100
AcDbSymbolTableRecord
100
AcDbRegAppTableRecord
2
ACAD
70
0
0
ENDTAB
0
TABLE
2
DIMSTYLE
5
91B
330
0
100
AcDbSymbolTable
100
AcDbDimStyleTable
70
0
71
1
0
ENDTAB
0
TABLE
2
BLOCK_RECORD
5
DAC
330
0
100
AcDbSymbolTable
70
2
0
BLOCK_RECORD
5
DAD
330
DAC
100
AcDbSymbolTableRecord
100
AcDbBlockTableRecord
2
*Model_Space
70
0
280
0
281
1
0
BLOCK_RECORD
5
DAE
330
DAC
100
AcDbSymbolTableRecord
100
AcDbBlockTableRecord
2
*Paper_Space
70
0
280
0
281
1
0
ENDTAB
0
ENDSEC
0
SECTION
2
BLOCKS
0
BLOCK
5
91F
330
0
100
AcDbEntity
100
AcDbBlockBegin
2
*Model_Space
70
0
10
0
20
0
30
0
3
*Model_Space
1

0
ENDBLK
5
920
330
0
100
AcDbEntity
100
AcDbBlockEnd
0
BLOCK
5
921
330
0
100
AcDbEntity
100
AcDbBlockBegin
2
*Paper_Space
70
0
10
0
20
0
30
0
3
*Paper_Space
1

0
ENDBLK
5
922
330
0
100
AcDbEntity
100
AcDbBlockEnd
0
ENDSEC
0
SECTION
2
ENTITIES
0
POLYLINE
5
927
330
91F
100
AcDbEntity
100
AcDb3dPolyline
8
0
66
1
70
0
10
0
20
0
30
0
0
VERTEX
5
928
330
927
100
AcDbEntity
100
AcDbVertex
100
AcDb3dPolylineVertex
8
0
10
58.3
20
54
30
53.14620139839842
70
32
0
VERTEX
5
929
330
927
100
AcDbEntity
100
AcDbVertex
100
AcDb3dPolylineVertex
8
0
10
58
20
54.3
30
53.052794888862586
70
32
0
VERTEX
5
92A
330
927
100
AcDbEntity
100
AcDbVertex
100
AcDb3dPolylineVertex
8
0
10
58
20
54.4
30
53.02009289459797
70
32
0
VERTEX
5
92B
330
927
100
AcDbEntity
100
AcDbVertex
100
AcDb3dPolylineVertex
8
0
10
58.1
20
54.5
30
52.985824409247364
70
32
0
VERTEX
5
92C
330
927
100
AcDbEntity
100
AcDbVertex
100
AcDb3dPolylineVertex
8
0
10
58
20
54.6
30
52.95468890606875
70
32
0
VERTEX
5
92D
330
927
100
AcDbEntity
100
AcDbVertex
100
AcDb3dPolylineVertex
8
0
10
58
20
54.7
30
52.92198691180414
70
32
0
VERTEX
5
92E
330
927
100
AcDbEntity
100
AcDbVertex
100
AcDb3dPolylineVertex
8
0
10
58.2
20
54.9
30
52.85344994110293
70
32
0
VERTEX
5
92F
330
927
100
AcDbEntity
100
AcDbVertex
100
AcDb3dPolylineVertex
8
0
10
58.1
20
55
30
52.82231443792432
70
32
0
VERTEX
5
930
330
927
100
AcDbEntity
100
AcDbVertex
100
AcDb3dPolylineVertex
8
0
10
58.2
20
55.1
30
52.78804595257371
70
32
0
VERTEX
5
931
330
927
100
AcDbEntity
100
AcDbVertex
100
AcDb3dPolylineVertex
8
0
10
58.2
20
55.2
30
52.7553439583091
70
32
0
VERTEX
5
932
330
927
100
AcDbEntity
100
AcDbVertex
100
AcDb3dPolylineVertex
8
0
10
58.3
20
55.3
30
52.721075472958496
70
32
0
VERTEX
5
933
330
927
100
AcDbEntity
100
AcDbVertex
100
AcDb3dPolylineVertex
8
0
10
58.3
20
55.4
30
52.68837347869388
70
32
0
VERTEX
5
934
330
927
100
AcDbEntity
100
AcDbVertex
100
AcDb3dPolylineVertex
8
0
10
57.9
20
55.8
30
52.56383146597944
70
32
0
VERTEX
5
935
330
927
100
AcDbEntity
100
AcDbVertex
100
AcDb3dPolylineVertex
8
0
10
57.6
20
55.5
30
52.66663692203126
70
32
0
VERTEX
5
936
330
927
100
AcDbEntity
100
AcDbVertex
100
AcDb3dPolylineVertex
8
0
10
57.6
20
55.4
30
52.69933891629587
70
32
0
VERTEX
5
937
330
927
100
AcDbEntity
100
AcDbVertex
100
AcDb3dPolylineVertex
8
0
10
57.5
20
55.3
30
52.73360740164648
70
32
0
VERTEX
5
938
330
927
100
AcDbEntity
100
AcDbVertex
100
AcDb3dPolylineVertex
8
0
10
57.7
20
55.1
30
52.7958784080037
70
32
0
VERTEX
5
939
330
927
100
AcDbEntity
100
AcDbVertex
100
AcDb3dPolylineVertex
8
0
10
57.6
20
55
30
52.83014689335431
70
32
0
VERTEX
5
93A
330
927
100
AcDbEntity
100
AcDbVertex
100
AcDb3dPolylineVertex
8
0
10
57.5
20
55.1
30
52.7990113901757
70
32
0
VERTEX
5
93B
330
927
100
AcDbEntity
100
AcDbVertex
100
AcDb3dPolylineVertex
8
0
10
57.6
20
55.2
30
52.76474290482509
70
32
0
VERTEX
5
93C
330
927
100
AcDbEntity
100
AcDbVertex
100
AcDb3dPolylineVertex
8
0
10
57.3
20
55.5
30
52.67133639528925
70
32
0
VERTEX
5
93D
330
927
100
AcDbEntity
100
AcDbVertex
100
AcDb3dPolylineVertex
8
0
10
57.2
20
55.5
30
52.672902886375255
70
32
0
VERTEX
5
93E
330
927
100
AcDbEntity
100
AcDbVertex
100
AcDb3dPolylineVertex
8
0
10
57
20
55.7
30
52.61063188001803
70
32
0
VERTEX
5
93F
330
927
100
AcDbEntity
100
AcDbVertex
100
AcDb3dPolylineVertex
8
0
10
56.9
20
55.7
30
52.612198371104036
70
32
0
VERTEX
5
940
330
927
100
AcDbEntity
100
AcDbVertex
100
AcDb3dPolylineVertex
8
0
10
56.8
20
55.8
30
52.581062867925425
70
32
0
VERTEX
5
941
330
927
100
AcDbEntity
100
AcDbVertex
100
AcDb3dPolylineVertex
8
0
10
56.7
20
55.8
30
52.58262935901142
70
32
0
VERTEX
5
942
330
927
100
AcDbEntity
100
AcDbVertex
100
AcDb3dPolylineVertex
8
0
10
56.3
20
55.4
30
52.71970330041386
70
32
0
VERTEX
5
943
330
927
100
AcDbEntity
100
AcDbVertex
100
AcDb3dPolylineVertex
8
0
10
56.4
20
55.3
30
52.75083880359247
70
32
0
VERTEX
5
944
330
927
100
AcDbEntity
100
AcDbVertex
100
AcDb3dPolylineVertex
8
0
10
56.4
20
54.9
30
52.88164678065091
70
32
0
VERTEX
5
945
330
927
100
AcDbEntity
100
AcDbVertex
100
AcDb3dPolylineVertex
8
0
10
56.2
20
54.7
30
52.950183751352114
70
32
0
VERTEX
5
946
330
927
100
AcDbEntity
100
AcDbVertex
100
AcDb3dPolylineVertex
8
0
10
56.1
20
54.8
30
52.91904824817352
70
32
0
VERTEX
5
947
330
927
100
AcDbEntity
100
AcDbVertex
100
AcDb3dPolylineVertex
8
0
10
56.1
20
55.1
30
52.82094226537968
70
32
0
VERTEX
5
948
330
927
100
AcDbEntity
100
AcDbVertex
100
AcDb3dPolylineVertex
8
0
10
56.2
20
55.2
30
52.786673780029076
70
32
0
VERTEX
5
949
330
927
100
AcDbEntity
100
AcDbVertex
100
AcDb3dPolylineVertex
8
0
10
56.2
20
55.3
30
52.75397178576446
70
32
0
VERTEX
5
94A
330
927
100
AcDbEntity
100
AcDbVertex
100
AcDb3dPolylineVertex
8
0
10
56.4
20
55.5
30
52.685434815063246
70
32
0
VERTEX
5
94B
330
927
100
AcDbEntity
100
AcDbVertex
100
AcDb3dPolylineVertex
8
0
10
56.2
20
55.7
30
52.623163808706025
70
32
0
VERTEX
5
94C
330
927
100
AcDbEntity
100
AcDbVertex
100
AcDb3dPolylineVertex
8
0
10
56.3
20
55.8
30
52.588895323355416
70
32
0
VERTEX
5
94D
330
927
100
AcDbEntity
100
AcDbVertex
100
AcDb3dPolylineVertex
8
0
10
56.4
20
55.8
30
52.58732883226942
70
32
0
VERTEX
5
94E
330
927
100
AcDbEntity
100
AcDbVertex
100
AcDb3dPolylineVertex
8
0
10
56.6
20
56
30
52.518791861568204
70
32
0
VERTEX
5
94F
330
927
100
AcDbEntity
100
AcDbVertex
100
AcDb3dPolylineVertex
8
0
10
56.7
20
56
30
52.5172253704822
70
32
0
VERTEX
5
950
330
927
100
AcDbEntity
100
AcDbVertex
100
AcDb3dPolylineVertex
8
0
10
56.8
20
55.9
30
52.54836087366081
70
32
0
VERTEX
5
951
330
927
100
AcDbEntity
100
AcDbVertex
100
AcDb3dPolylineVertex
8
0
10
57.7
20
55.9
30
52.53426245388682
70
32
0
VERTEX
5
952
330
927
100
AcDbEntity
100
AcDbVertex
100
AcDb3dPolylineVertex
8
0
10
57.8
20
55.8
30
52.56539795706543
70
32
0
VERTEX
5
953
330
927
100
AcDbEntity
100
AcDbVertex
100
AcDb3dPolylineVertex
8
0
10
57.9
20
55.8
30
52.56383146597944
70
32
0
VERTEX
5
954
330
927
100
AcDbEntity
100
AcDbVertex
100
AcDb3dPolylineVertex
8
0
10
58
20
55.9
30
52.529562980628825
70
32
0
VERTEX
5
955
330
927
100
AcDbEntity
100
AcDbVertex
100
AcDb3dPolylineVertex
8
0
10
58.1
20
55.9
30
52.52799648954283
70
32
0
VERTEX
5
956
330
927
100
AcDbEntity
100
AcDbVertex
100
AcDb3dPolylineVertex
8
0
10
58.4
20
55.6
30
52.62140299907866
70
32
0
VERTEX
5
957
330
927
100
AcDbEntity
100
AcDbVertex
100
AcDb3dPolylineVertex
8
0
10
58.4
20
55.5
30
52.65410499334327
70
32
0
VERTEX
5
958
330
927
100
AcDbEntity
100
AcDbVertex
100
AcDb3dPolylineVertex
8
0
10
58.3
20
55.4
30
52.68837347869388
70
32
0
VERTEX
5
959
330
927
100
AcDbEntity
100
AcDbVertex
100
AcDb3dPolylineVertex
8
0
10
58.3
20
55.3
30
52.721075472958496
70
32
0
VERTEX
5
95A
330
927
100
AcDbEntity
100
AcDbVertex
100
AcDb3dPolylineVertex
8
0
10
58.4
20
55.2
30
52.75221097613711
70
32
0
VERTEX
5
95B
330
927
100
AcDbEntity
100
AcDbVertex
100
AcDb3dPolylineVertex
8
0
10
58.4
20
54.1
30
53.1119329130478
70
32
0
VERTEX
5
95C
330
927
100
AcDbEntity
100
AcDbVertex
100
AcDb3dPolylineVertex
8
0
10
58.3
20
54
30
53.14620139839842
70
32
0
VERTEX
5
95D
330
927
100
AcDbEntity
100
AcDbVertex
100
AcDb3dPolylineVertex
8
0
10
58.3
20
54
30
53.196201398398415
70
32
0
VERTEX
5
95E
330
927
100
AcDbEntity
100
AcDbVertex
100
AcDb3dPolylineVertex
8
0
10
58
20
54.3
30
53.10279488886258
70
32
0
VERTEX
5
95F
330
927
100
AcDbEntity
100
AcDbVertex
100
AcDb3dPolylineVertex
8
0
10
58
20
54.4
30
53.07009289459797
70
32
0
VERTEX
5
960
330
927
100
AcDbEntity
100
AcDbVertex
100
AcDb3dPolylineVertex
8
0
10
58.1
20
54.5
30
53.03582440924736
70
32
0
VERTEX
5
961
330
927
100
AcDbEntity
100
AcDbVertex
100
AcDb3dPolylineVertex
8
0
10
58
20
54.6
30
53.00468890606875
70
32
0
VERTEX
5
962
330
927
100
AcDbEntity
100
AcDbVertex
100
AcDb3dPolylineVertex
8
0
10
58
20
54.7
30
52.97198691180414
70
32
0
VERTEX
5
963
330
927
100
AcDbEntity
100
AcDbVertex
100
AcDb3dPolylineVertex
8
0
10
58.2
20
54.9
30
52.90344994110293
70
32
0
VERTEX
5
964
330
927
100
AcDbEntity
100
AcDbVertex
100
AcDb3dPolylineVertex
8
0
10
58.1
20
55
30
52.87231443792432
70
32
0
VERTEX
5
965
330
927
100
AcDbEntity
100
AcDbVertex
100
AcDb3dPolylineVertex
8
0
10
58.2
20
55.1
30
52.83804595257371
70
32
0
VERTEX
5
966
330
927
100
AcDbEntity
100
AcDbVertex
100
AcDb3dPolylineVertex
8
0
10
58.2
20
55.2
30
52.805343958309095
70
32
0
VERTEX
5
967
330
927
100
AcDbEntity
100
AcDbVertex
100
AcDb3dPolylineVertex
8
0
10
58.3
20
55.3
30
52.77107547295849
70
32
0
VERTEX
5
968
330
927
100
AcDbEntity
100
AcDbVertex
100
AcDb3dPolylineVertex
8
0
10
58.3
20
55.4
30
52.73837347869388
70
32
0
VERTEX
5
969
330
927
100
AcDbEntity
100
AcDbVertex
100
AcDb3dPolylineVertex
8
0
10
57.9
20
55.8
30
52.61383146597944
70
32
0
VERTEX
5
96A
330
927
100
AcDbEntity
100
AcDbVertex
100
AcDb3dPolylineVertex
8
0
10
57.6
20
55.5
30
52.716636922031256
70
32
0
VERTEX
5
96B
330
927
100
AcDbEntity
100
AcDbVertex
100
AcDb3dPolylineVertex
8
0
10
57.6
20
55.4
30
52.74933891629587
70
32
0
VERTEX
5
96C
330
927
100
AcDbEntity
100
AcDbVertex
100
AcDb3dPolylineVertex
8
0
10
57.5
20
55.3
30
52.78360740164648
70
32
0
VERTEX
5
96D
330
927
100
AcDbEntity
100
AcDbVertex
100
AcDb3dPolylineVertex
8
0
10
57.7
20
55.1
30
52.8458784080037
70
32
0
VERTEX
5
96E
330
927
100
AcDbEntity
100
AcDbVertex
100
AcDb3dPolylineVertex
8
0
10
57.6
20
55
30
52.88014689335431
70
32
0
VERTEX
5
96F
330
927
100
AcDbEntity
100
AcDbVertex
100
AcDb3dPolylineVertex
8
0
10
57.5
20
55.1
30
52.8490113901757
70
32
0
VERTEX
5
970
330
927
100
AcDbEntity
100
AcDbVertex
100
AcDb3dPolylineVertex
8
0
10
57.6
20
55.2
30
52.81474290482509
70
32
0
VERTEX
5
971
330
927
100
AcDbEntity
100
AcDbVertex
100
AcDb3dPolylineVertex
8
0
10
57.3
20
55.5
30
52.72133639528925
70
32
0
VERTEX
5
972
330
927
100
AcDbEntity
100
AcDbVertex
100
AcDb3dPolylineVertex
8
0
10
57.2
20
55.5
30
52.72290288637525
70
32
0
VERTEX
5
973
330
927
100
AcDbEntity
100
AcDbVertex
100
AcDb3dPolylineVertex
8
0
10
57
20
55.7
30
52.66063188001803
70
32
0
VERTEX
5
974
330
927
100
AcDbEntity
100
AcDbVertex
100
AcDb3dPolylineVertex
8
0
10
56.9
20
55.7
30
52.66219837110403
70
32
0
VERTEX
5
975
330
927
100
AcDbEntity
100
AcDbVertex
100
AcDb3dPolylineVertex
8
0
10
56.8
20
55.8
30
52.63106286792542
70
32
0
VERTEX
5
976
330
927
100
AcDbEntity
100
AcDbVertex
100
AcDb3dPolylineVertex
8
0
10
56.7
20
55.8
30
52.63262935901142
70
32
0
VERTEX
5
977
330
927
100
AcDbEntity
100
AcDbVertex
100
AcDb3dPolylineVertex
8
0
10
56.3
20
55.4
30
52.76970330041386
70
32
0
VERTEX
5
978
330
927
100
AcDbEntity
100
AcDbVertex
100
AcDb3dPolylineVertex
8
0
10
56.4
20
55.3
30
52.80083880359247
70
32
0
VERTEX
5
979
330
927
100
AcDbEntity
100
AcDbVertex
100
AcDb3dPolylineVertex
8
0
10
56.4
20
54.9
30
52.93164678065091
70
32
0
VERTEX
5
97A
330
927
100
AcDbEntity
100
AcDbVertex
100
AcDb3dPolylineVertex
8
0
10
56.2
20
54.7
30
53.00018375135211
70
32
0
VERTEX
5
97B
330
927
100
AcDbEntity
100
AcDbVertex
100
AcDb3dPolylineVertex
8
0
10
56.1
20
54.8
30
52.969048248173515
70
32
0
VERTEX
5
97C
330
927
100
AcDbEntity
100
AcDbVertex
100
AcDb3dPolylineVertex
8
0
10
56.1
20
55.1
30
52.870942265379675
70
32
0
VERTEX
5
97D
330
927
100
AcDbEntity
100
AcDbVertex
100
AcDb3dPolylineVertex
8
0
10
56.2
20
55.2
30
52.836673780029074
70
32
0
VERTEX
5
97E
330
927
100
AcDbEntity
100
AcDbVertex
100
AcDb3dPolylineVertex
8
0
10
56.2
20
55.3
30
52.80397178576446
70
32
0
VERTEX
5
97F
330
927
100
AcDbEntity
100
AcDbVertex
100
AcDb3dPolylineVertex
8
0
10
56.4
20
55.5
30
52.73543481506324
70
32
0
VERTEX
5
980
330
927
100
AcDbEntity
100
AcDbVertex
100
AcDb3dPolylineVertex
8
0
10
56.2
20
55.7
30
52.67316380870602
70
32
0
VERTEX
5
981
330
927
100
AcDbEntity
100
AcDbVertex
100
AcDb3dPolylineVertex
8
0
10
56.3
20
55.8
30
52.63889532335541
70
32
0
VERTEX
5
982
330
927
100
AcDbEntity
100
AcDbVertex
100
AcDb3dPolylineVertex
8
0
10
56.4
20
55.8
30
52.63732883226942
70
32
0
VERTEX
5
983
330
927
100
AcDbEntity
100
AcDbVertex
100
AcDb3dPolylineVertex
8
0
10
56.6
20
56
30
52.5687918615682
70
32
0
VERTEX
5
984
330
927
100
AcDbEntity
100
AcDbVertex
100
AcDb3dPolylineVertex
8
0
10
56.7
20
56
30
52.5672253704822
70
32
0
VERTEX
5
985
330
927
100
AcDbEntity
100
AcDbVertex
100
AcDb3dPolylineVertex
8
0
10
56.8
20
55.9
30
52.59836087366081
70
32
0
VERTEX
5
986
330
927
100
AcDbEntity
100
AcDbVertex
100
AcDb3dPolylineVertex
8
0
10
57.7
20
55.9
30
52.584262453886815
70
32
0
VERTEX
5
987
330
927
100
AcDbEntity
100
AcDbVertex
100
AcDb3dPolylineVertex
8
0
10
57.8
20
55.8
30
52.615397957065426
70
32
0
VERTEX
5
988
330
927
100
AcDbEntity
100
AcDbVertex
100
AcDb3dPolylineVertex
8
0
10
57.9
20
55.8
30
52.61383146597944
70
32
0
VERTEX
5
989
330
927
100
AcDbEntity
100
AcDbVertex
100
AcDb3dPolylineVertex
8
0
10
58
20
55.9
30
52.57956298062882
70
32
0
VERTEX
5
98A
330
927
100
AcDbEntity
100
AcDbVertex
100
AcDb3dPolylineVertex
8
0
10
58.1
20
55.9
30
52.57799648954283
70
32
0
VERTEX
5
98B
330
927
100
AcDbEntity
100
AcDbVertex
100
AcDb3dPolylineVertex
8
0
10
58.4
20
55.6
30
52.67140299907866
70
32
0
VERTEX
5
98C
330
927
100
AcDbEntity
100
AcDbVertex
100
AcDb3dPolylineVertex
8
0
10
58.4
20
55.5
30
52.704104993343265
70
32
0
VERTEX
5
98D
330
927
100
AcDbEntity
100
AcDbVertex
100
AcDb3dPolylineVertex
8
0
10
58.3
20
55.4
30
52.73837347869388
70
32
0
VERTEX
5
98E
330
927
100
AcDbEntity
100
AcDbVertex
100
AcDb3dPolylineVertex
8
0
10
58.3
20
55.3
30
52.77107547295849
70
32
0
VERTEX
5
98F
330
927
100
AcDbEntity
100
AcDbVertex
100
AcDb3dPolylineVertex
8
0
10
58.4
20
55.2
30
52.802210976137104
70
32
0
VERTEX
5
990
330
927
100
AcDbEntity
100
AcDbVertex
100
AcDb3dPolylineVertex
8
0
10
58.4
20
54.1
30
53.1619329130478
70
32
0
VERTEX
5
991
330
927
100
AcDbEntity
100
AcDbVertex
100
AcDb3dPolylineVertex
8
0
10
58.3
20
54
30
53.196201398398415
70
32
0
VERTEX
5
992
330
927
100
AcDbEntity
100
AcDbVertex
100
AcDb3dPolylineVertex
8
0
10
58.3
20
54
30
53.14620139839842
70
32
0
VERTEX
5
993
330
927
100
AcDbEntity
100
AcDbVertex
100
AcDb3dPolylineVertex
8
0
10
58.3
20
54
30
53.196201398398415
70
32
0
VERTEX
5
994
330
927
100
AcDbEntity
100
AcDbVertex
100
AcDb3dPolylineVertex
8
0
10
58
20
54.3
30
53.052794888862586
70
32
0
VERTEX
5
995
330
927
100
AcDbEntity
100
AcDbVertex
100
AcDb3dPolylineVertex
8
0
10
58
20
54.3
30
53.10279488886258
70
32
0
VERTEX
5
996
330
927
100
AcDbEntity
100
AcDbVertex
100
AcDb3dPolylineVertex
8
0
10
58
20
54.4
30
53.02009289459797
70
32
0
VERTEX
5
997
330
927
100
AcDbEntity
100
AcDbVertex
100
AcDb3dPolylineVertex
8
0
10
58
20
54.4
30
53.07009289459797
70
32
0
VERTEX
5
998
330
927
100
AcDbEntity
100
AcDbVertex
100
AcDb3dPolylineVertex
8
0
10
58.1
20
54.5
30
52.985824409247364
70
32
0
VERTEX
5
999
330
927
100
AcDbEntity
100
AcDbVertex
100
AcDb3dPolylineVertex
8
0
10
58.1
20
54.5
30
53.03582440924736
70
32
0
VERTEX
5
99A
330
927
100
AcDbEntity
100
AcDbVertex
100
AcDb3dPolylineVertex
8
0
10
58
20
54.6
30
52.95468890606875
70
32
0
VERTEX
5
99B
330
927
100
AcDbEntity
100
AcDbVertex
100
AcDb3dPolylineVertex
8
0
10
58
20
54.6
30
53.00468890606875
70
32
0
VERTEX
5
99C
330
927
100
AcDbEntity
100
AcDbVertex
100
AcDb3dPolylineVertex
8
0
10
58
20
54.7
30
52.92198691180414
70
32
0
VERTEX
5
99D
330
927
100
AcDbEntity
100
AcDbVertex
100
AcDb3dPolylineVertex
8
0
10
58
20
54.7
30
52.97198691180414
70
32
0
VERTEX
5
99E
330
927
100
AcDbEntity
100
AcDbVertex
100
AcDb3dPolylineVertex
8
0
10
58.2
20
54.9
30
52.85344994110293
70
32
0
VERTEX
5
99F
330
927
100
AcDbEntity
100
AcDbVertex
100
AcDb3dPolylineVertex
8
0
10
58.2
20
54.9
30
52.90344994110293
70
32
0
VERTEX
5
9A0
330
927
100
AcDbEntity
100
AcDbVertex
100
AcDb3dPolylineVertex
8
0
10
58.1
20
55
30
52.82231443792432
70
32
0
VERTEX
5
9A1
330
927
100
AcDbEntity
100
AcDbVertex
100
AcDb3dPolylineVertex
8
0
10
58.1
20
55
30
52.87231443792432
70
32
0
VERTEX
5
9A2
330
927
100
AcDbEntity
100
AcDbVertex
100
AcDb3dPolylineVertex
8
0
10
58.2
20
55.1
30
52.78804595257371
70
32
0
VERTEX
5
9A3
330
927
100
AcDbEntity
100
AcDbVertex
100
AcDb3dPolylineVertex
8
0
10
58.2
20
55.1
30
52.83804595257371
70
32
0
VERTEX
5
9A4
330
927
100
AcDbEntity
100
AcDbVertex
100
AcDb3dPolylineVertex
8
0
10
58.2
20
55.2
30
52.7553439583091
70
32
0
VERTEX
5
9A5
330
927
100
AcDbEntity
100
AcDbVertex
100
AcDb3dPolylineVertex
8
0
10
58.2
20
55.2
30
52.805343958309095
70
32
0
VERTEX
5
9A6
330
927
100
AcDbEntity
100
AcDbVertex
100
AcDb3dPolylineVertex
8
0
10
58.3
20
55.3
30
52.721075472958496
70
32
0
VERTEX
5
9A7
330
927
100
AcDbEntity
100
AcDbVertex
100
AcDb3dPolylineVertex
8
0
10
58.3
20
55.3
30
52.77107547295849
70
32
0
VERTEX
5
9A8
330
927
100
AcDbEntity
100
AcDbVertex
100
AcDb3dPolylineVertex
8
0
10
58.3
20
55.4
30
52.68837347869388
70
32
0
VERTEX
5
9A9
330
927
100
AcDbEntity
100
AcDbVertex
100
AcDb3dPolylineVertex
8
0
10
58.3
20
55.4
30
52.73837347869388
70
32
0
VERTEX
5
9AA
330
927
100
AcDbEntity
100
AcDbVertex
100
AcDb3dPolylineVertex
8
0
10
57.9
20
55.8
30
52.56383146597944
70
32
0
VERTEX
5
9AB
330
927
100
AcDbEntity
100
AcDbVertex
100
AcDb3dPolylineVertex
8
0
10
57.9
20
55.8
30
52.61383146597944
70
32
0
VERTEX
5
9AC
330
927
100
AcDbEntity
100
AcDbVertex
100
AcDb3dPolylineVertex
8
0
10
57.6
20
55.5
30
52.66663692203126
70
32
0
VERTEX
5
9AD
330
927
100
AcDbEntity
100
AcDbVertex
100
AcDb3dPolylineVertex
8
0
10
57.6
20
55.5
30
52.716636922031256
70
32
0
VERTEX
5
9AE
330
927
100
AcDbEntity
100
AcDbVertex
100
AcDb3dPolylineVertex
8
0
10
57.6
20
55.4
30
52.69933891629587
70
32
0
VERTEX
5
9AF
330
927
100
AcDbEntity
100
AcDbVertex
100
AcDb3dPolylineVertex
8
0
10
57.6
20
55.4
30
52.74933891629587
70
32
0
VERTEX
5
9B0
330
927
100
AcDbEntity
100
AcDbVertex
100
AcDb3dPolylineVertex
8
0
10
57.5
20
55.3
30
52.73360740164648
70
32
0
VERTEX
5
9B1
330
927
100
AcDbEntity
100
AcDbVertex
100
AcDb3dPolylineVertex
8
0
10
57.5
20
55.3
30
52.78360740164648
70
32
0
VERTEX
5
9B2
330
927
100
AcDbEntity
100
AcDbVertex
100
AcDb3dPolylineVertex
8
0
10
57.7
20
55.1
30
52.7958784080037
70
32
0
VERTEX
5
9B3
330
927
100
AcDbEntity
100
AcDbVertex
100
AcDb3dPolylineVertex
8
0
10
57.7
20
55.1
30
52.8458784080037
70
32
0
VERTEX
5
9B4
330
927
100
AcDbEntity
100
AcDbVertex
100
AcDb3dPolylineVertex
8
0
10
57.6
20
55
30
52.83014689335431
70
32
0
VERTEX
5
9B5
330
927
100
AcDbEntity
100
AcDbVertex
100
AcDb3dPolylineVertex
8
0
10
57.6
20
55
30
52.88014689335431
70
32
0
VERTEX
5
9B6
330
927
100
AcDbEntity
100
AcDbVertex
100
AcDb3dPolylineVertex
8
0
10
57.5
20
55.1
30
52.7990113901757
70
32
0
VERTEX
5
9B7
330
927
100
AcDbEntity
100
AcDbVertex
100
AcDb3dPolylineVertex
8
0
10
57.5
20
55.1
30
52.8490113901757
70
32
0
VERTEX
5
9B8
330
927
100
AcDbEntity
100
AcDbVertex
100
AcDb3dPolylineVertex
8
0
10
57.6
20
55.2
30
52.76474290482509
70
32
0
VERTEX
5
9B9
330
927
100
AcDbEntity
100
AcDbVertex
100
AcDb3dPolylineVertex
8
0
10
57.6
20
55.2
30
52.81474290482509
70
32
0
VERTEX
5
9BA
330
927
100
AcDbEntity
100
AcDbVertex
100
AcDb3dPolylineVertex
8
0
10
57.3
20
55.5
30
52.67133639528925
70
32
0
VERTEX
5
9BB
330
927
100
AcDbEntity
100
AcDbVertex
100
AcDb3dPolylineVertex
8
0
10
57.3
20
55.5
30
52.72133639528925
70
32
0
VERTEX
5
9BC
330
927
100
AcDbEntity
100
AcDbVertex
100
AcDb3dPolylineVertex
8
0
10
57.2
20
55.5
30
52.672902886375255
70
32
0
VERTEX
5
9BD
330
927
100
AcDbEntity
100
AcDbVertex
100
AcDb3dPolylineVertex
8
0
10
57.2
20
55.5
30
52.72290288637525
70
32
0
VERTEX
5
9BE
330
927
100
AcDbEntity
100
AcDbVertex
100
AcDb3dPolylineVertex
8
0
10
57
20
55.7
30
52.61063188001803
70
32
0
VERTEX
5
9BF
330
927
100
AcDbEntity
100
AcDbVertex
100
AcDb3dPolylineVertex
8
0
10
57
20
55.7
30
52.66063188001803
70
32
0
VERTEX
5
9C0
330
927
100
AcDbEntity
100
AcDbVertex
100
AcDb3dPolylineVertex
8
0
10
56.9
20
55.7
30
52.612198371104036
70
32
0
VERTEX
5
9C1
330
927
100
AcDbEntity
100
AcDbVertex
100
AcDb3dPolylineVertex
8
0
10
56.9
20
55.7
30
52.66219837110403
70
32
0
VERTEX
5
9C2
330
927
100
AcDbEntity
100
AcDbVertex
100
AcDb3dPolylineVertex
8
0
10
56.8
20
55.8
30
52.581062867925425
70
32
0
VERTEX
5
9C3
330
927
100
AcDbEntity
100
AcDbVertex
100
AcDb3dPolylineVertex
8
0
10
56.8
20
55.8
30
52.63106286792542
70
32
0
VERTEX
5
9C4
330
927
100
AcDbEntity
100
AcDbVertex
100
AcDb3dPolylineVertex
8
0
10
56.7
20
55.8
30
52.58262935901142
70
32
0
VERTEX
5
9C5
330
927
100
AcDbEntity
100
AcDbVertex
100
AcDb3dPolylineVertex
8
0
10
56.7
20
55.8
30
52.63262935901142
70
32
0
VERTEX
5
9C6
330
927
100
AcDbEntity
100
AcDbVertex
100
AcDb3dPolylineVertex
8
0
10
56.3
20
55.4
30
52.71970330041386
70
32
0
VERTEX
5
9C7
330
927
100
AcDbEntity
100
AcDbVertex
100
AcDb3dPolylineVertex
8
0
10
56.3
20
55.4
30
52.76970330041386
70
32
0
VERTEX
5
9C8
330
927
100
AcDbEntity
100
AcDbVertex
100
AcDb3dPolylineVertex
8
0
10
56.4
20
55.3
30
52.75083880359247
70
32
0
VERTEX
5
9C9
330
927
100
AcDbEntity
100
AcDbVertex
100
AcDb3dPolylineVertex
8
0
10
56.4
20
55.3
30
52.80083880359247
70
32
0
VERTEX
5
9CA
330
927
100
AcDbEntity
100
AcDbVertex
100
AcDb3dPolylineVertex
8
0
10
56.4
20
54.9
30
52.88164678065091
70
32
0
VERTEX
5
9CB
330
927
100
AcDbEntity
100
AcDbVertex
100
AcDb3dPolylineVertex
8
0
10
56.4
20
54.9
30
52.93164678065091
70
32
0
VERTEX
5
9CC
330
927
100
AcDbEntity
100
AcDbVertex
100
AcDb3dPolylineVertex
8
0
10
56.2
20
54.7
30
52.950183751352114
70
32
0
VERTEX
5
9CD
330
927
100
AcDbEntity
100
AcDbVertex
100
AcDb3dPolylineVertex
8
0
10
56.2
20
54.7
30
53.00018375135211
70
32
0
VERTEX
5
9CE
330
927
100
AcDbEntity
100
AcDbVertex
100
AcDb3dPolylineVertex
8
0
10
56.1
20
54.8
30
52.91904824817352
70
32
0
VERTEX
5
9CF
330
927
100
AcDbEntity
100
AcDbVertex
100
AcDb3dPolylineVertex
8
0
10
56.1
20
54.8
30
52.969048248173515
70
32
0
VERTEX
5
9D0
330
927
100
AcDbEntity
100
AcDbVertex
100
AcDb3dPolylineVertex
8
0
10
56.1
20
55.1
30
52.82094226537968
70
32
0
VERTEX
5
9D1
330
927
100
AcDbEntity
100
AcDbVertex
100
AcDb3dPolylineVertex
8
0
10
56.1
20
55.1
30
52.870942265379675
70
32
0
VERTEX
5
9D2
330
927
100
AcDbEntity
100
AcDbVertex
100
AcDb3dPolylineVertex
8
0
10
56.2
20
55.2
30
52.786673780029076
70
32
0
VERTEX
5
9D3
330
927
100
AcDbEntity
100
AcDbVertex
100
AcDb3dPolylineVertex
8
0
10
56.2
20
55.2
30
52.836673780029074
70
32
0
VERTEX
5
9D4
330
927
100
AcDbEntity
100
AcDbVertex
100
AcDb3dPolylineVertex
8
0
10
56.2
20
55.3
30
52.75397178576446
70
32
0
VERTEX
5
9D5
330
927
100
AcDbEntity
100
AcDbVertex
100
AcDb3dPolylineVertex
8
0
10
56.2
20
55.3
30
52.80397178576446
70
32
0
VERTEX
5
9D6
330
927
100
AcDbEntity
100
AcDbVertex
100
AcDb3dPolylineVertex
8
0
10
56.4
20
55.5
30
52.685434815063246
70
32
0
VERTEX
5
9D7
330
927
100
AcDbEntity
100
AcDbVertex
100
AcDb3dPolylineVertex
8
0
10
56.4
20
55.5
30
52.73543481506324
70
32
0
VERTEX
5
9D8
330
927
100
AcDbEntity
100
AcDbVertex
100
AcDb3dPolylineVertex
8
0
10
56.2
20
55.7
30
52.623163808706025
70
32
0
VERTEX
5
9D9
330
927
100
AcDbEntity
100
AcDbVertex
100
AcDb3dPolylineVertex
8
0
10
56.2
20
55.7
30
52.67316380870602
70
32
0
VERTEX
5
9DA
330
927
100
AcDbEntity
100
AcDbVertex
100
AcDb3dPolylineVertex
8
0
10
56.3
20
55.8
30
52.588895323355416
70
32
0
VERTEX
5
9DB
330
927
100
AcDbEntity
100
AcDbVertex
100
AcDb3dPolylineVertex
8
0
10
56.3
20
55.8
30
52.63889532335541
70
32
0
VERTEX
5
9DC
330
927
100
AcDbEntity
100
AcDbVertex
100
AcDb3dPolylineVertex
8
0
10
56.4
20
55.8
30
52.58732883226942
70
32
0
VERTEX
5
9DD
330
927
100
AcDbEntity
100
AcDbVertex
100
AcDb3dPolylineVertex
8
0
10
56.4
20
55.8
30
52.63732883226942
70
32
0
VERTEX
5
9DE
330
927
100
AcDbEntity
100
AcDbVertex
100
AcDb3dPolylineVertex
8
0
10
56.6
20
56
30
52.518791861568204
70
32
0
VERTEX
5
9DF
330
927
100
AcDbEntity
100
AcDbVertex
100
AcDb3dPolylineVertex
8
0
10
56.6
20
56
30
52.5687918615682
70
32
0
VERTEX
5
9E0
330
927
100
AcDbEntity
100
AcDbVertex
100
AcDb3dPolylineVertex
8
0
10
56.7
20
56
30
52.5172253704822
70
32
0
VERTEX
5
9E1
330
927
100
AcDbEntity
100
AcDbVertex
100
AcDb3dPolylineVertex
8
0
10
56.7
20
56
30
52.5672253704822
70
32
0
VERTEX
5
9E2
330
927
100
AcDbEntity
100
AcDbVertex
100
AcDb3dPolylineVertex
8
0
10
56.8
20
55.9
30
52.54836087366081
70
32
0
VERTEX
5
9E3
330
927
100
AcDbEntity
100
AcDbVertex
100
AcDb3dPolylineVertex
8
0
10
56.8
20
55.9
30
52.59836087366081
70
32
0
VERTEX
5
9E4
330
927
100
AcDbEntity
100
AcDbVertex
100
AcDb3dPolylineVertex
8
0
10
57.7
20
55.9
30
52.53426245388682
70
32
0
VERTEX
5
9E5
330
927
100
AcDbEntity
100
AcDbVertex
100
AcDb3dPolylineVertex
8
0
10
57.7
20
55.9
30
52.584262453886815
70
32
0
VERTEX
5
9E6
330
927
100
AcDbEntity
100
AcDbVertex
100
AcDb3dPolylineVertex
8
0
10
57.8
20
55.8
30
52.56539795706543
70
32
0
VERTEX
5
9E7
330
927
100
AcDbEntity
100
AcDbVertex
100
AcDb3dPolylineVertex
8
0
10
57.8
20
55.8
30
52.615397957065426
70
32
0
VERTEX
5
9E8
330
927
100
AcDbEntity
100
AcDbVertex
100
AcDb3dPolylineVertex
8
0
10
57.9
20
55.8
30
52.56383146597944
70
32
0
VERTEX
5
9E9
330
927
100
AcDbEntity
100
AcDbVertex
100
AcDb3dPolylineVertex
8
0
10
57.9
20
55.8
30
52.61383146597944
70
32
0
VERTEX
5
9EA
330
927
100
AcDbEntity
100
AcDbVertex
100
AcDb3dPolylineVertex
8
0
10
58
20
55.9
30
52.529562980628825
70
32
0
VERTEX
5
9EB
330
927
100
AcDbEntity
100
AcDbVertex
100
AcDb3dPolylineVertex
8
0
10
58
20
55.9
30
52.57956298062882
70
32
0
VERTEX
5
9EC
330
927
100
AcDbEntity
100
AcDbVertex
100
AcDb3dPolylineVertex
8
0
10
58.1
20
55.9
30
52.52799648954283
70
32
0
VERTEX
5
9ED
330
927
100
AcDbEntity
100
AcDbVertex
100
AcDb3dPolylineVertex
8
0
10
58.1
20
55.9
30
52.57799648954283
70
32
0
VERTEX
5
9EE
330
927
100
AcDbEntity
100
AcDbVertex
100
AcDb3dPolylineVertex
8
0
10
58.4
20
55.6
30
52.62140299907866
70
32
0
VERTEX
5
9EF
330
927
100
AcDbEntity
100
AcDbVertex
100
AcDb3dPolylineVertex
8
0
10
58.4
20
55.6
30
52.67140299907866
70
32
0
VERTEX
5
9F0
330
927
100
AcDbEntity
100
AcDbVertex
100
AcDb3dPolylineVertex
8
0
10
58.4
20
55.5
30
52.65410499334327
70
32
0
VERTEX
5
9F1
330
927
100
AcDbEntity
100
AcDbVertex
100
AcDb3dPolylineVertex
8
0
10
58.4
20
55.5
30
52.704104993343265
70
32
0
VERTEX
5
9F2
330
927
100
AcDbEntity
100
AcDbVertex
100
AcDb3dPolylineVertex
8
0
10
58.3
20
55.4
30
52.68837347869388
70
32
0
VERTEX
5
9F3
330
927
100
AcDbEntity
100
AcDbVertex
100
AcDb3dPolylineVertex
8
0
10
58.3
20
55.4
30
52.73837347869388
70
32
0
VERTEX
5
9F4
330
927
100
AcDbEntity
100
AcDbVertex
100
AcDb3dPolylineVertex
8
0
10
58.3
20
55.3
30
52.721075472958496
70
32
0
VERTEX
5
9F5
330
927
100
AcDbEntity
100
AcDbVertex
100
AcDb3dPolylineVertex
8
0
10
58.3
20
55.3
30
52.77107547295849
70
32
0
VERTEX
5
9F6
330
927
100
AcDbEntity
100
AcDbVertex
100
AcDb3dPolylineVertex
8
0
10
58.4
20
55.2
30
52.75221097613711
70
32
0
VERTEX
5
9F7
330
927
100
AcDbEntity
100
AcDbVertex
100
AcDb3dPolylineVertex
8
0
10
58.4
20
55.2
30
52.802210976137104
70
32
0
VERTEX
5
9F8
330
927
100
AcDbEntity
100
AcDbVertex
100
AcDb3dPolylineVertex
8
0
10
58.4
20
54.1
30
53.1119329130478
70
32
0
VERTEX
5
9F9
330
927
100
AcDbEntity
100
AcDbVertex
100
AcDb3dPolylineVertex
8
0
10
58.4
20
54.1
30
53.1619329130478
70
32
0
SEQEND
5
9FA
100
AcDbEntity
8
0
0
POLYLINE
5
9FB
330
91F
100
AcDbEntity
100
AcDb3dPolyline
8
0
66
1
70
0
10
0
20
0
30
0
0
VERTEX
5
9FC
330
9FB
100
AcDbEntity
100
AcDbVertex
100
AcDb3dPolylineVertex
8
0
10
52.3
20
52.5
30
53.73072077752748
70
32
0
VERTEX
5
9FD
330
9FB
100
AcDbEntity
100
AcDbVertex
100
AcDb3dPolylineVertex
8
0
10
52.2
20
52.6
30
53.69958527434887
70
32
0
VERTEX
5
9FE
330
9FB
100
AcDbEntity
100
AcDbVertex
100
AcDb3dPolylineVertex
8
0
10
52.3
20
52.7
30
53.66531678899826
70
32
0
VERTEX
5
9FF
330
9FB
100
AcDbEntity
100
AcDbVertex
100
AcDb3dPolylineVertex
8
0
10
52.4
20
52.7
30
53.66375029791226
70
32
0
VERTEX
5
A00
330
9FB
100
AcDbEntity
100
AcDbVertex
100
AcDb3dPolylineVertex
8
0
10
52.5
20
52.6
30
53.69488580109087
70
32
0
VERTEX
5
A01
330
9FB
100
AcDbEntity
100
AcDbVertex
100
AcDb3dPolylineVertex
8
0
10
52.6
20
52.7
30
53.66061731574027
70
32
0
VERTEX
5
A02
330
9FB
100
AcDbEntity
100
AcDbVertex
100
AcDb3dPolylineVertex
8
0
10
52.8
20
52.7
30
53.65748433356826
70
32
0
VERTEX
5
A03
330
9FB
100
AcDbEntity
100
AcDbVertex
100
AcDb3dPolylineVertex
8
0
10
52.9
20
52.6
30
53.688619836746874
70
32
0
VERTEX
5
A04
330
9FB
100
AcDbEntity
100
AcDbVertex
100
AcDb3dPolylineVertex
8
0
10
52.8
20
52.5
30
53.72288832209749
70
32
0
VERTEX
5
A05
330
9FB
100
AcDbEntity
100
AcDbVertex
100
AcDb3dPolylineVertex
8
0
10
52.6
20
52.5
30
53.72602130426948
70
32
0
VERTEX
5
A06
330
9FB
100
AcDbEntity
100
AcDbVertex
100
AcDb3dPolylineVertex
8
0
10
52.5
20
52.6
30
53.69488580109087
70
32
0
VERTEX
5
A07
330
9FB
100
AcDbEntity
100
AcDbVertex
100
AcDb3dPolylineVertex
8
0
10
52.4
20
52.5
30
53.729154286441485
70
32
0
VERTEX
5
A08
330
9FB
100
AcDbEntity
100
AcDbVertex
100
AcDb3dPolylineVertex
8
0
10
52.3
20
52.5
30
53.73072077752748
70
32
0
VERTEX
5
A09
330
9FB
100
AcDbEntity
100
AcDbVertex
100
AcDb3dPolylineVertex
8
0
10
52.3
20
52.5
30
53.92612052428339
70
32
0
VERTEX
5
A0A
330
9FB
100
AcDbEntity
100
AcDbVertex
100
AcDb3dPolylineVertex
8
0
10
52.2
20
52.6
30
53.89498502110478
70
32
0
VERTEX
5
A0B
330
9FB
100
AcDbEntity
100
AcDbVertex
100
AcDb3dPolylineVertex
8
0
10
52.3
20
52.7
30
53.86071653575417
70
32
0
VERTEX
5
A0C
330
9FB
100
AcDbEntity
100
AcDbVertex
100
AcDb3dPolylineVertex
8
0
10
52.4
20
52.7
30
53.85915004466817
70
32
0
VERTEX
5
A0D
330
9FB
100
AcDbEntity
100
AcDbVertex
100
AcDb3dPolylineVertex
8
0
10
52.5
20
52.6
30
53.89028554784678
70
32
0
VERTEX
5
A0E
330
9FB
100
AcDbEntity
100
AcDbVertex
100
AcDb3dPolylineVertex
8
0
10
52.6
20
52.7
30
53.85601706249618
70
32
0
VERTEX
5
A0F
330
9FB
100
AcDbEntity
100
AcDbVertex
100
AcDb3dPolylineVertex
8
0
10
52.8
20
52.7
30
53.85288408032417
70
32
0
VERTEX
5
A10
330
9FB
100
AcDbEntity
100
AcDbVertex
100
AcDb3dPolylineVertex
8
0
10
52.9
20
52.6
30
53.884019583502784
70
32
0
VERTEX
5
A11
330
9FB
100
AcDbEntity
100
AcDbVertex
100
AcDb3dPolylineVertex
8
0
10
52.8
20
52.5
30
53.9182880688534
70
32
0
VERTEX
5
A12
330
9FB
100
AcDbEntity
100
AcDbVertex
100
AcDb3dPolylineVertex
8
0
10
52.6
20
52.5
30
53.92142105102539
70
32
0
VERTEX
5
A13
330
9FB
100
AcDbEntity
100
AcDbVertex
100
AcDb3dPolylineVertex
8
0
10
52.5
20
52.6
30
53.89028554784678
70
32
0
VERTEX
5
A14
330
9FB
100
AcDbEntity
100
AcDbVertex
100
AcDb3dPolylineVertex
8
0
10
52.4
20
52.5
30
53.924554033197396
70
32
0
VERTEX
5
A15
330
9FB
100
AcDbEntity
100
AcDbVertex
100
AcDb3dPolylineVertex
8
0
10
52.3
20
52.5
30
53.92612052428339
70
32
0
VERTEX
5
A16
330
9FB
100
AcDbEntity
100
AcDbVertex
100
AcDb3dPolylineVertex
8
0
10
52.3
20
52.5
30
53.73072077752748
70
32
0
VERTEX
5
A17
330
9FB
100
AcDbEntity
100
AcDbVertex
100
AcDb3dPolylineVertex
8
0
10
52.3
20
52.5
30
53.92612052428339
70
32
0
VERTEX
5
A18
330
9FB
100
AcDbEntity
100
AcDbVertex
100
AcDb3dPolylineVertex
8
0
10
52.2
20
52.6
30
53.69958527434887
70
32
0
VERTEX
5
A19
330
9FB
100
AcDbEntity
100
AcDbVertex
100
AcDb3dPolylineVertex
8
0
10
52.2
20
52.6
30
53.89498502110478
70
32
0
VERTEX
5
A1A
330
9FB
100
AcDbEntity
100
AcDbVertex
100
AcDb3dPolylineVertex
8
0
10
52.3
20
52.7
30
53.66531678899826
70
32
0
VERTEX
5
A1B
330
9FB
100
AcDbEntity
100
AcDbVertex
100
AcDb3dPolylineVertex
8
0
10
52.3
20
52.7
30
53.86071653575417
70
32
0
VERTEX
5
A1C
330
9FB
100
AcDbEntity
100
AcDbVertex
100
AcDb3dPolylineVertex
8
0
10
52.4
20
52.7
30
53.66375029791226
70
32
0
VERTEX
5
A1D
330
9FB
100
AcDbEntity
100
AcDbVertex
100
AcDb3dPolylineVertex
8
0
10
52.4
20
52.7
30
53.85915004466817
70
32
0
VERTEX
5
A1E
330
9FB
100
AcDbEntity
100
AcDbVertex
100
AcDb3dPolylineVertex
8
0
10
52.5
20
52.6
30
53.69488580109087
70
32
0
VERTEX
5
A1F
330
9FB
100
AcDbEntity
100
AcDbVertex
100
AcDb3dPolylineVertex
8
0
10
52.5
20
52.6
30
53.89028554784678
70
32
0
VERTEX
5
A20
330
9FB
100
AcDbEntity
100
AcDbVertex
100
AcDb3dPolylineVertex
8
0
10
52.6
20
52.7
30
53.66061731574027
70
32
0
VERTEX
5
A21
330
9FB
100
AcDbEntity
100
AcDbVertex
100
AcDb3dPolylineVertex
8
0
10
52.6
20
52.7
30
53.85601706249618
70
32
0
VERTEX
5
A22
330
9FB
100
AcDbEntity
100
AcDbVertex
100
AcDb3dPolylineVertex
8
0
10
52.8
20
52.7
30
53.65748433356826
70
32
0
VERTEX
5
A23
330
9FB
100
AcDbEntity
100
AcDbVertex
100
AcDb3dPolylineVertex
8
0
10
52.8
20
52.7
30
53.85288408032417
70
32
0
VERTEX
5
A24
330
9FB
100
AcDbEntity
100
AcDbVertex
100
AcDb3dPolylineVertex
8
0
10
52.9
20
52.6
30
53.688619836746874
70
32
0
VERTEX
5
A25
330
9FB
100
AcDbEntity
100
AcDbVertex
100
AcDb3dPolylineVertex
8
0
10
52.9
20
52.6
30
53.884019583502784
70
32
0
VERTEX
5
A26
330
9FB
100
AcDbEntity
100
AcDbVertex
100
AcDb3dPolylineVertex
8
0
10
52.8
20
52.5
30
53.72288832209749
70
32
0
VERTEX
5
A27
330
9FB
100
AcDbEntity
100
AcDbVertex
100
AcDb3dPolylineVertex
8
0
10
52.8
20
52.5
30
53.9182880688534
70
32
0
VERTEX
5
A28
330
9FB
100
AcDbEntity
100
AcDbVertex
100
AcDb3dPolylineVertex
8
0
10
52.6
20
52.5
30
53.72602130426948
70
32
0
VERTEX
5
A29
330
9FB
100
AcDbEntity
100
AcDbVertex
100
AcDb3dPolylineVertex
8
0
10
52.6
20
52.5
30
53.92142105102539
70
32
0
VERTEX
5
A2A
330
9FB
100
AcDbEntity
100
AcDbVertex
100
AcDb3dPolylineVertex
8
0
10
52.5
20
52.6
30
53.69488580109087
70
32
0
VERTEX
5
A2B
330
9FB
100
AcDbEntity
100
AcDbVertex
100
AcDb3dPolylineVertex
8
0
10
52.5
20
52.6
30
53.89028554784678
70
32
0
VERTEX
5
A2C
330
9FB
100
AcDbEntity
100
AcDbVertex
100
AcDb3dPolylineVertex
8
0
10
52.4
20
52.5
30
53.729154286441485
70
32
0
VERTEX
5
A2D
330
9FB
100
AcDbEntity
100
AcDbVertex
100
AcDb3dPolylineVertex
8
0
10
52.4
20
52.5
30
53.924554033197396
70
32
0
SEQEND
5
A2E
100
AcDbEntity
8
0
0
POLYLINE
5
A2F
330
91F
100
AcDbEntity
100
AcDb3dPolyline
8
0
66
1
70
0
10
0
20
0
30
0
0
VERTEX
5
A30
330
A2F
100
AcDbEntity
100
AcDbVertex
100
AcDb3dPolylineVertex
8
0
10
55.3
20
52.2
30
53.827864849112274
70
32
0
VERTEX
5
A31
330
A2F
100
AcDbEntity
100
AcDbVertex
100
AcDb3dPolylineVertex
8
0
10
55.2
20
52.3
30
53.86074819251587
70
32
0
VERTEX
5
A32
330
A2F
100
AcDbEntity
100
AcDbVertex
100
AcDb3dPolylineVertex
8
0
10
55.3
20
52.4
30
53.896940392951535
70
32
0
VERTEX
5
A33
330
A2F
100
AcDbEntity
100
AcDbVertex
100
AcDb3dPolylineVertex
8
0
10
55.4
20
52.4
30
53.89859482146757
70
32
0
VERTEX
5
A34
330
A2F
100
AcDbEntity
100
AcDbVertex
100
AcDb3dPolylineVertex
8
0
10
55.5
20
52.3
30
53.86571147806396
70
32
0
VERTEX
5
A35
330
A2F
100
AcDbEntity
100
AcDbVertex
100
AcDb3dPolylineVertex
8
0
10
55.4
20
52.2
30
53.82951927762829
70
32
0
VERTEX
5
A36
330
A2F
100
AcDbEntity
100
AcDbVertex
100
AcDb3dPolylineVertex
8
0
10
55.3
20
52.2
30
53.827864849112274
70
32
0
VERTEX
5
A37
330
A2F
100
AcDbEntity
100
AcDbVertex
100
AcDb3dPolylineVertex
8
0
10
55.3
20
52.2
30
53.87786484911227
70
32
0
VERTEX
5
A38
330
A2F
100
AcDbEntity
100
AcDbVertex
100
AcDb3dPolylineVertex
8
0
10
55.2
20
52.3
30
53.91074819251587
70
32
0
VERTEX
5
A39
330
A2F
100
AcDbEntity
100
AcDbVertex
100
AcDb3dPolylineVertex
8
0
10
55.3
20
52.4
30
53.94694039295153
70
32
0
VERTEX
5
A3A
330
A2F
100
AcDbEntity
100
AcDbVertex
100
AcDb3dPolylineVertex
8
0
10
55.4
20
52.4
30
53.948594821467566
70
32
0
VERTEX
5
A3B
330
A2F
100
AcDbEntity
100
AcDbVertex
100
AcDb3dPolylineVertex
8
0
10
55.5
20
52.3
30
53.915711478063955
70
32
0
VERTEX
5
A3C
330
A2F
100
AcDbEntity
100
AcDbVertex
100
AcDb3dPolylineVertex
8
0
10
55.4
20
52.2
30
53.87951927762829
70
32
0
VERTEX
5
A3D
330
A2F
100
AcDbEntity
100
AcDbVertex
100
AcDb3dPolylineVertex
8
0
10
55.3
20
52.2
30
53.87786484911227
70
32
0
VERTEX
5
A3E
330
A2F
100
AcDbEntity
100
AcDbVertex
100
AcDb3dPolylineVertex
8
0
10
55.3
20
52.2
30
53.827864849112274
70
32
0
VERTEX
5
A3F
330
A2F
100
AcDbEntity
100
AcDbVertex
100
AcDb3dPolylineVertex
8
0
10
55.3
20
52.2
30
53.87786484911227
70
32
0
VERTEX
5
A40
330
A2F
100
AcDbEntity
100
AcDbVertex
100
AcDb3dPolylineVertex
8
0
10
55.2
20
52.3
30
53.86074819251587
70
32
0
VERTEX
5
A41
330
A2F
100
AcDbEntity
100
AcDbVertex
100
AcDb3dPolylineVertex
8
0
10
55.2
20
52.3
30
53.91074819251587
70
32
0
VERTEX
5
A42
330
A2F
100
AcDbEntity
100
AcDbVertex
100
AcDb3dPolylineVertex
8
0
10
55.3
20
52.4
30
53.896940392951535
70
32
0
VERTEX
5
A43
330
A2F
100
AcDbEntity
100
AcDbVertex
100
AcDb3dPolylineVertex
8
0
10
55.3
20
52.4
30
53.94694039295153
70
32
0
VERTEX
5
A44
330
A2F
100
AcDbEntity
100
AcDbVertex
100
AcDb3dPolylineVertex
8
0
10
55.4
20
52.4
30
53.89859482146757
70
32
0
VERTEX
5
A45
330
A2F
100
AcDbEntity
100
AcDbVertex
100
AcDb3dPolylineVertex
8
0
10
55.4
20
52.4
30
53.948594821467566
70
32
0
VERTEX
5
A46
330
A2F
100
AcDbEntity
100
AcDbVertex
100
AcDb3dPolylineVertex
8
0
10
55.5
20
52.3
30
53.86571147806396
70
32
0
VERTEX
5
A47
330
A2F
100
AcDbEntity
100
AcDbVertex
100
AcDb3dPolylineVertex
8
0
10
55.5
20
52.3
30
53.915711478063955
70
32
0
VERTEX
5
A48
330
A2F
100
AcDbEntity
100
AcDbVertex
100
AcDb3dPolylineVertex
8
0
10
55.4
20
52.2
30
53.82951927762829
70
32
0
VERTEX
5
A49
330
A2F
100
AcDbEntity
100
AcDbVertex
100
AcDb3dPolylineVertex
8
0
10
55.4
20
52.2
30
53.87951927762829
70
32
0
SEQEND
5
A4A
100
AcDbEntity
8
0
0
POLYLINE
5
A4B
330
91F
100
AcDbEntity
100
AcDb3dPolyline
8
0
66
1
70
0
10
0
20
0
30
0
0
VERTEX
5
A4C
330
A4B
100
AcDbEntity
100
AcDbVertex
100
AcDb3dPolylineVertex
8
0
10
52.4
20
52.2
30
53.77988642214745
70
32
0
VERTEX
5
A4D
330
A4B
100
AcDbEntity
100
AcDbVertex
100
AcDb3dPolylineVertex
8
0
10
52.3
20
52.3
30
53.812769765551046
70
32
0
VERTEX
5
A4E
330
A4B
100
AcDbEntity
100
AcDbVertex
100
AcDb3dPolylineVertex
8
0
10
52.3
20
52.4
30
53.84730753747069
70
32
0
VERTEX
5
A4F
330
A4B
100
AcDbEntity
100
AcDbVertex
100
AcDb3dPolylineVertex
8
0
10
52.4
20
52.5
30
53.883499737906355
70
32
0
VERTEX
5
A50
330
A4B
100
AcDbEntity
100
AcDbVertex
100
AcDb3dPolylineVertex
8
0
10
52.7
20
52.5
30
53.888463023454435
70
32
0
VERTEX
5
A51
330
A4B
100
AcDbEntity
100
AcDbVertex
100
AcDb3dPolylineVertex
8
0
10
52.8
20
52.4
30
53.85557968005084
70
32
0
VERTEX
5
A52
330
A4B
100
AcDbEntity
100
AcDbVertex
100
AcDb3dPolylineVertex
8
0
10
52.7
20
52.3
30
53.81938747961517
70
32
0
VERTEX
5
A53
330
A4B
100
AcDbEntity
100
AcDbVertex
100
AcDb3dPolylineVertex
8
0
10
52.6
20
52.3
30
53.81773305109913
70
32
0
VERTEX
5
A54
330
A4B
100
AcDbEntity
100
AcDbVertex
100
AcDb3dPolylineVertex
8
0
10
52.5
20
52.2
30
53.781540850663475
70
32
0
VERTEX
5
A55
330
A4B
100
AcDbEntity
100
AcDbVertex
100
AcDb3dPolylineVertex
8
0
10
52.4
20
52.2
30
53.77988642214745
70
32
0
VERTEX
5
A56
330
A4B
100
AcDbEntity
100
AcDbVertex
100
AcDb3dPolylineVertex
8
0
10
52.4
20
52.2
30
53.83402963111109
70
32
0
VERTEX
5
A57
330
A4B
100
AcDbEntity
100
AcDbVertex
100
AcDb3dPolylineVertex
8
0
10
52.3
20
52.3
30
53.86691297451469
70
32
0
VERTEX
5
A58
330
A4B
100
AcDbEntity
100
AcDbVertex
100
AcDb3dPolylineVertex
8
0
10
52.3
20
52.4
30
53.901450746434335
70
32
0
VERTEX
5
A59
330
A4B
100
AcDbEntity
100
AcDbVertex
100
AcDb3dPolylineVertex
8
0
10
52.4
20
52.5
30
53.93764294687
70
32
0
VERTEX
5
A5A
330
A4B
100
AcDbEntity
100
AcDbVertex
100
AcDb3dPolylineVertex
8
0
10
52.7
20
52.5
30
53.94260623241808
70
32
0
VERTEX
5
A5B
330
A4B
100
AcDbEntity
100
AcDbVertex
100
AcDb3dPolylineVertex
8
0
10
52.8
20
52.4
30
53.90972288901448
70
32
0
VERTEX
5
A5C
330
A4B
100
AcDbEntity
100
AcDbVertex
100
AcDb3dPolylineVertex
8
0
10
52.7
20
52.3
30
53.87353068857882
70
32
0
VERTEX
5
A5D
330
A4B
100
AcDbEntity
100
AcDbVertex
100
AcDb3dPolylineVertex
8
0
10
52.6
20
52.3
30
53.87187626006278
70
32
0
VERTEX
5
A5E
330
A4B
100
AcDbEntity
100
AcDbVertex
100
AcDb3dPolylineVertex
8
0
10
52.5
20
52.2
30
53.83568405962712
70
32
0
VERTEX
5
A5F
330
A4B
100
AcDbEntity
100
AcDbVertex
100
AcDb3dPolylineVertex
8
0
10
52.4
20
52.2
30
53.83402963111109
70
32
0
VERTEX
5
A60
330
A4B
100
AcDbEntity
100
AcDbVertex
100
AcDb3dPolylineVertex
8
0
10
52.4
20
52.2
30
53.77988642214745
70
32
0
VERTEX
5
A61
330
A4B
100
AcDbEntity
100
AcDbVertex
100
AcDb3dPolylineVertex
8
0
10
52.4
20
52.2
30
53.83402963111109
70
32
0
VERTEX
5
A62
330
A4B
100
AcDbEntity
100
AcDbVertex
100
AcDb3dPolylineVertex
8
0
10
52.3
20
52.3
30
53.812769765551046
70
32
0
VERTEX
5
A63
330
A4B
100
AcDbEntity
100
AcDbVertex
100
AcDb3dPolylineVertex
8
0
10
52.3
20
52.3
30
53.86691297451469
70
32
0
VERTEX
5
A64
330
A4B
100
AcDbEntity
100
AcDbVertex
100
AcDb3dPolylineVertex
8
0
10
52.3
20
52.4
30
53.84730753747069
70
32
0
VERTEX
5
A65
330
A4B
100
AcDbEntity
100
AcDbVertex
100
AcDb3dPolylineVertex
8
0
10
52.3
20
52.4
30
53.901450746434335
70
32
0
VERTEX
5
A66
330
A4B
100
AcDbEntity
100
AcDbVertex
100
AcDb3dPolylineVertex
8
0
10
52.4
20
52.5
30
53.883499737906355
70
32
0
VERTEX
5
A67
330
A4B
100
AcDbEntity
100
AcDbVertex
100
AcDb3dPolylineVertex
8
0
10
52.4
20
52.5
30
53.93764294687
70
32
0
VERTEX
5
A68
330
A4B
100
AcDbEntity
100
AcDbVertex
100
AcDb3dPolylineVertex
8
0
10
52.7
20
52.5
30
53.888463023454435
70
32
0
VERTEX
5
A69
330
A4B
100
AcDbEntity
100
AcDbVertex
100
AcDb3dPolylineVertex
8
0
10
52.7
20
52.5
30
53.94260623241808
70
32
0
VERTEX
5
A6A
330
A4B
100
AcDbEntity
100
AcDbVertex
100
AcDb3dPolylineVertex
8
0
10
52.8
20
52.4
30
53.85557968005084
70
32
0
VERTEX
5
A6B
330
A4B
100
AcDbEntity
100
AcDbVertex
100
AcDb3dPolylineVertex
8
0
10
52.8
20
52.4
30
53.90972288901448
70
32
0
VERTEX
5
A6C
330
A4B
100
AcDbEntity
100
AcDbVertex
100
AcDb3dPolylineVertex
8
0
10
52.7
20
52.3
30
53.81938747961517
70
32
0
VERTEX
5
A6D
330
A4B
100
AcDbEntity
100
AcDbVertex
100
AcDb3dPolylineVertex
8
0
10
52.7
20
52.3
30
53.87353068857882
70
32
0
VERTEX
5
A6E
330
A4B
100
AcDbEntity
100
AcDbVertex
100
AcDb3dPolylineVertex
8
0
10
52.6
20
52.3
30
53.81773305109913
70
32
0
VERTEX
5
A6F
330
A4B
100
AcDbEntity
100
AcDbVertex
100
AcDb3dPolylineVertex
8
0
10
52.6
20
52.3
30
53.87187626006278
70
32
0
VERTEX
5
A70
330
A4B
100
AcDbEntity
100
AcDbVertex
100
AcDb3dPolylineVertex
8
0
10
52.5
20
52.2
30
53.781540850663475
70
32
0
VERTEX
5
A71
330
A4B
100
AcDbEntity
100
AcDbVertex
100
AcDb3dPolylineVertex
8
0
10
52.5
20
52.2
30
53.83568405962712
70
32
0
SEQEND
5
A72
100
AcDbEntity
8
0
0
POLYLINE
5
A73
330
91F
100
AcDbEntity
100
AcDb3dPolyline
8
0
66
1
70
0
10
0
20
0
30
0
0
VERTEX
5
A74
330
A73
100
AcDbEntity
100
AcDbVertex
100
AcDb3dPolylineVertex
8
0
10
46.1
20
48.8
30
52.42040709351669
70
32
0
VERTEX
5
A75
330
A73
100
AcDbEntity
100
AcDbVertex
100
AcDb3dPolylineVertex
8
0
10
46
20
48.9
30
52.38633593192678
70
32
0
VERTEX
5
A76
330
A73
100
AcDbEntity
100
AcDbVertex
100
AcDb3dPolylineVertex
8
0
10
46
20
49
30
52.38477846096259
70
32
0
VERTEX
5
A77
330
A73
100
AcDbEntity
100
AcDbVertex
100
AcDb3dPolylineVertex
8
0
10
46.1
20
49.1
30
52.415734680624126
70
32
0
VERTEX
5
A78
330
A73
100
AcDbEntity
100
AcDbVertex
100
AcDb3dPolylineVertex
8
0
10
46.2
20
49
30
52.44980584221403
70
32
0
VERTEX
5
A79
330
A73
100
AcDbEntity
100
AcDbVertex
100
AcDb3dPolylineVertex
8
0
10
46.2
20
48.9
30
52.45136331317822
70
32
0
VERTEX
5
A7A
330
A73
100
AcDbEntity
100
AcDbVertex
100
AcDb3dPolylineVertex
8
0
10
46.1
20
48.8
30
52.42040709351669
70
32
0
VERTEX
5
A7B
330
A73
100
AcDbEntity
100
AcDbVertex
100
AcDb3dPolylineVertex
8
0
10
46.1
20
48.8
30
52.470407093516684
70
32
0
VERTEX
5
A7C
330
A73
100
AcDbEntity
100
AcDbVertex
100
AcDb3dPolylineVertex
8
0
10
46
20
48.9
30
52.43633593192678
70
32
0
VERTEX
5
A7D
330
A73
100
AcDbEntity
100
AcDbVertex
100
AcDb3dPolylineVertex
8
0
10
46
20
49
30
52.43477846096259
70
32
0
VERTEX
5
A7E
330
A73
100
AcDbEntity
100
AcDbVertex
100
AcDb3dPolylineVertex
8
0
10
46.1
20
49.1
30
52.465734680624124
70
32
0
VERTEX
5
A7F
330
A73
100
AcDbEntity
100
AcDbVertex
100
AcDb3dPolylineVertex
8
0
10
46.2
20
49
30
52.49980584221403
70
32
0
VERTEX
5
A80
330
A73
100
AcDbEntity
100
AcDbVertex
100
AcDb3dPolylineVertex
8
0
10
46.2
20
48.9
30
52.50136331317822
70
32
0
VERTEX
5
A81
330
A73
100
AcDbEntity
100
AcDbVertex
100
AcDb3dPolylineVertex
8
0
10
46.1
20
48.8
30
52.470407093516684
70
32
0
VERTEX
5
A82
330
A73
100
AcDbEntity
100
AcDbVertex
100
AcDb3dPolylineVertex
8
0
10
46.1
20
48.8
30
52.42040709351669
70
32
0
VERTEX
5
A83
330
A73
100
AcDbEntity
100
AcDbVertex
100
AcDb3dPolylineVertex
8
0
10
46.1
20
48.8
30
52.470407093516684
70
32
0
VERTEX
5
A84
330
A73
100
AcDbEntity
100
AcDbVertex
100
AcDb3dPolylineVertex
8
0
10
46
20
48.9
30
52.38633593192678
70
32
0
VERTEX
5
A85
330
A73
100
AcDbEntity
100
AcDbVertex
100
AcDb3dPolylineVertex
8
0
10
46
20
48.9
30
52.43633593192678
70
32
0
VERTEX
5
A86
330
A73
100
AcDbEntity
100
AcDbVertex
100
AcDb3dPolylineVertex
8
0
10
46
20
49
30
52.38477846096259
70
32
0
VERTEX
5
A87
330
A73
100
AcDbEntity
100
AcDbVertex
100
AcDb3dPolylineVertex
8
0
10
46
20
49
30
52.43477846096259
70
32
0
VERTEX
5
A88
330
A73
100
AcDbEntity
100
AcDbVertex
100
AcDb3dPolylineVertex
8
0
10
46.1
20
49.1
30
52.415734680624126
70
32
0
VERTEX
5
A89
330
A73
100
AcDbEntity
100
AcDbVertex
100
AcDb3dPolylineVertex
8
0
10
46.1
20
49.1
30
52.465734680624124
70
32
0
VERTEX
5
A8A
330
A73
100
AcDbEntity
100
AcDbVertex
100
AcDb3dPolylineVertex
8
0
10
46.2
20
49
30
52.44980584221403
70
32
0
VERTEX
5
A8B
330
A73
100
AcDbEntity
100
AcDbVertex
100
AcDb3dPolylineVertex
8
0
10
46.2
20
49
30
52.49980584221403
70
32
0
VERTEX
5
A8C
330
A73
100
AcDbEntity
100
AcDbVertex
100
AcDb3dPolylineVertex
8
0
10
46.2
20
48.9
30
52.45136331317822
70
32
0
VERTEX
5
A8D
330
A73
100
AcDbEntity
100
AcDbVertex
100
AcDb3dPolylineVertex
8
0
10
46.2
20
48.9
30
52.50136331317822
70
32
0
SEQEND
5
A8E
100
AcDbEntity
8
0
0
POLYLINE
5
A8F
330
91F
100
AcDbEntity
100
AcDb3dPolyline
8
0
66
1
70
0
10
0
20
0
30
0
0
VERTEX
5
A90
330
A8F
100
AcDbEntity
100
AcDbVertex
100
AcDb3dPolylineVertex
8
0
10
47.6
20
48.4
30
52.91434233675919
70
32
0
VERTEX
5
A91
330
A8F
100
AcDbEntity
100
AcDbVertex
100
AcDb3dPolylineVertex
8
0
10
47.5
20
48.5
30
52.88027117516929
70
32
0
VERTEX
5
A92
330
A8F
100
AcDbEntity
100
AcDbVertex
100
AcDb3dPolylineVertex
8
0
10
47.5
20
48.7
30
52.877156233240925
70
32
0
VERTEX
5
A93
330
A8F
100
AcDbEntity
100
AcDbVertex
100
AcDb3dPolylineVertex
8
0
10
47.6
20
48.8
30
52.90811245290245
70
32
0
VERTEX
5
A94
330
A8F
100
AcDbEntity
100
AcDbVertex
100
AcDb3dPolylineVertex
8
0
10
47.7
20
48.8
30
52.94062614352817
70
32
0
VERTEX
5
A95
330
A8F
100
AcDbEntity
100
AcDbVertex
100
AcDb3dPolylineVertex
8
0
10
47.8
20
48.9
30
52.9715823631897
70
32
0
VERTEX
5
A96
330
A8F
100
AcDbEntity
100
AcDbVertex
100
AcDb3dPolylineVertex
8
0
10
47.9
20
48.8
30
53.0056535247796
70
32
0
VERTEX
5
A97
330
A8F
100
AcDbEntity
100
AcDbVertex
100
AcDb3dPolylineVertex
8
0
10
47.9
20
48.5
30
53.010325937672164
70
32
0
VERTEX
5
A98
330
A8F
100
AcDbEntity
100
AcDbVertex
100
AcDb3dPolylineVertex
8
0
10
47.8
20
48.4
30
52.97936971801063
70
32
0
VERTEX
5
A99
330
A8F
100
AcDbEntity
100
AcDbVertex
100
AcDb3dPolylineVertex
8
0
10
47.6
20
48.4
30
52.91434233675919
70
32
0
VERTEX
5
A9A
330
A8F
100
AcDbEntity
100
AcDbVertex
100
AcDb3dPolylineVertex
8
0
10
47.6
20
48.4
30
52.98897488499549
70
32
0
VERTEX
5
A9B
330
A8F
100
AcDbEntity
100
AcDbVertex
100
AcDb3dPolylineVertex
8
0
10
47.5
20
48.5
30
52.95490372340559
70
32
0
VERTEX
5
A9C
330
A8F
100
AcDbEntity
100
AcDbVertex
100
AcDb3dPolylineVertex
8
0
10
47.5
20
48.7
30
52.95178878147723
70
32
0
VERTEX
5
A9D
330
A8F
100
AcDbEntity
100
AcDbVertex
100
AcDb3dPolylineVertex
8
0
10
47.6
20
48.8
30
52.98274500113875
70
32
0
VERTEX
5
A9E
330
A8F
100
AcDbEntity
100
AcDbVertex
100
AcDb3dPolylineVertex
8
0
10
47.7
20
48.8
30
53.01525869176447
70
32
0
VERTEX
5
A9F
330
A8F
100
AcDbEntity
100
AcDbVertex
100
AcDb3dPolylineVertex
8
0
10
47.8
20
48.9
30
53.046214911426
70
32
0
VERTEX
5
AA0
330
A8F
100
AcDbEntity
100
AcDbVertex
100
AcDb3dPolylineVertex
8
0
10
47.9
20
48.8
30
53.080286073015905
70
32
0
VERTEX
5
AA1
330
A8F
100
AcDbEntity
100
AcDbVertex
100
AcDb3dPolylineVertex
8
0
10
47.9
20
48.5
30
53.084958485908466
70
32
0
VERTEX
5
AA2
330
A8F
100
AcDbEntity
100
AcDbVertex
100
AcDb3dPolylineVertex
8
0
10
47.8
20
48.4
30
53.05400226624693
70
32
0
VERTEX
5
AA3
330
A8F
100
AcDbEntity
100
AcDbVertex
100
AcDb3dPolylineVertex
8
0
10
47.6
20
48.4
30
52.98897488499549
70
32
0
VERTEX
5
AA4
330
A8F
100
AcDbEntity
100
AcDbVertex
100
AcDb3dPolylineVertex
8
0
10
47.6
20
48.4
30
52.91434233675919
70
32
0
VERTEX
5
AA5
330
A8F
100
AcDbEntity
100
AcDbVertex
100
AcDb3dPolylineVertex
8
0
10
47.6
20
48.4
30
52.98897488499549
70
32
0
VERTEX
5
AA6
330
A8F
100
AcDbEntity
100
AcDbVertex
100
AcDb3dPolylineVertex
8
0
10
47.5
20
48.5
30
52.88027117516929
70
32
0
VERTEX
5
AA7
330
A8F
100
AcDbEntity
100
AcDbVertex
100
AcDb3dPolylineVertex
8
0
10
47.5
20
48.5
30
52.95490372340559
70
32
0
VERTEX
5
AA8
330
A8F
100
AcDbEntity
100
AcDbVertex
100
AcDb3dPolylineVertex
8
0
10
47.5
20
48.7
30
52.877156233240925
70
32
0
VERTEX
5
AA9
330
A8F
100
AcDbEntity
100
AcDbVertex
100
AcDb3dPolylineVertex
8
0
10
47.5
20
48.7
30
52.95178878147723
70
32
0
VERTEX
5
AAA
330
A8F
100
AcDbEntity
100
AcDbVertex
100
AcDb3dPolylineVertex
8
0
10
47.6
20
48.8
30
52.90811245290245
70
32
0
VERTEX
5
AAB
330
A8F
100
AcDbEntity
100
AcDbVertex
100
AcDb3dPolylineVertex
8
0
10
47.6
20
48.8
30
52.98274500113875
70
32
0
VERTEX
5
AAC
330
A8F
100
AcDbEntity
100
AcDbVertex
100
AcDb3dPolylineVertex
8
0
10
47.7
20
48.8
30
52.94062614352817
70
32
0
VERTEX
5
AAD
330
A8F
100
AcDbEntity
100
AcDbVertex
100
AcDb3dPolylineVertex
8
0
10
47.7
20
48.8
30
53.01525869176447
70
32
0
VERTEX
5
AAE
330
A8F
100
AcDbEntity
100
AcDbVertex
100
AcDb3dPolylineVertex
8
0
10
47.8
20
48.9
30
52.9715823631897
70
32
0
VERTEX
5
AAF
330
A8F
100
AcDbEntity
100
AcDbVertex
100
AcDb3dPolylineVertex
8
0
10
47.8
20
48.9
30
53.046214911426
70
32
0
VERTEX
5
AB0
330
A8F
100
AcDbEntity
100
AcDbVertex
100
AcDb3dPolylineVertex
8
0
10
47.9
20
48.8
30
53.0056535247796
70
32
0
VERTEX
5
AB1
330
A8F
100
AcDbEntity
100
AcDbVertex
100
AcDb3dPolylineVertex
8
0
10
47.9
20
48.8
30
53.080286073015905
70
32
0
VERTEX
5
AB2
330
A8F
100
AcDbEntity
100
AcDbVertex
100
AcDb3dPolylineVertex
8
0
10
47.9
20
48.5
30
53.010325937672164
70
32
0
VERTEX
5
AB3
330
A8F
100
AcDbEntity
100
AcDbVertex
100
AcDb3dPolylineVertex
8
0
10
47.9
20
48.5
30
53.084958485908466
70
32
0
VERTEX
5
AB4
330
A8F
100
AcDbEntity
100
AcDbVertex
100
AcDb3dPolylineVertex
8
0
10
47.8
20
48.4
30
52.97936971801063
70
32
0
VERTEX
5
AB5
330
A8F
100
AcDbEntity
100
AcDbVertex
100
AcDb3dPolylineVertex
8
0
10
47.8
20
48.4
30
53.05400226624693
70
32
0
SEQEND
5
AB6
100
AcDbEntity
8
0
0
POLYLINE
5
AB7
330
91F
100
AcDbEntity
100
AcDb3dPolyline
8
0
66
1
70
0
10
0
20
0
30
0
0
VERTEX
5
AB8
330
AB7
100
AcDbEntity
100
AcDbVertex
100
AcDb3dPolylineVertex
8
0
10
49.3
20
42.5
30
53.558965864283365
70
32
0
VERTEX
5
AB9
330
AB7
100
AcDbEntity
100
AcDbVertex
100
AcDb3dPolylineVertex
8
0
10
49.2
20
42.6
30
53.524894702693466
70
32
0
VERTEX
5
ABA
330
AB7
100
AcDbEntity
100
AcDbVertex
100
AcDb3dPolylineVertex
8
0
10
49.3
20
42.7
30
53.55585092235499
70
32
0
VERTEX
5
ABB
330
AB7
100
AcDbEntity
100
AcDbVertex
100
AcDb3dPolylineVertex
8
0
10
49.2
20
42.8
30
53.52177976076509
70
32
0
VERTEX
5
ABC
330
AB7
100
AcDbEntity
100
AcDbVertex
100
AcDb3dPolylineVertex
8
0
10
49.4
20
43
30
53.58369220008815
70
32
0
VERTEX
5
ABD
330
AB7
100
AcDbEntity
100
AcDbVertex
100
AcDb3dPolylineVertex
8
0
10
49.5
20
43
30
53.61620589071388
70
32
0
VERTEX
5
ABE
330
AB7
100
AcDbEntity
100
AcDbVertex
100
AcDb3dPolylineVertex
8
0
10
49.6
20
42.9
30
53.65027705230378
70
32
0
VERTEX
5
ABF
330
AB7
100
AcDbEntity
100
AcDbVertex
100
AcDb3dPolylineVertex
8
0
10
49.6
20
42.8
30
53.651834523267965
70
32
0
VERTEX
5
AC0
330
AB7
100
AcDbEntity
100
AcDbVertex
100
AcDb3dPolylineVertex
8
0
10
49.3
20
42.5
30
53.558965864283365
70
32
0
VERTEX
5
AC1
330
AB7
100
AcDbEntity
100
AcDbVertex
100
AcDb3dPolylineVertex
8
0
10
49.3
20
42.5
30
53.666073280031945
70
32
0
VERTEX
5
AC2
330
AB7
100
AcDbEntity
100
AcDbVertex
100
AcDb3dPolylineVertex
8
0
10
49.2
20
42.6
30
53.632002118442045
70
32
0
VERTEX
5
AC3
330
AB7
100
AcDbEntity
100
AcDbVertex
100
AcDb3dPolylineVertex
8
0
10
49.3
20
42.7
30
53.66295833810357
70
32
0
VERTEX
5
AC4
330
AB7
100
AcDbEntity
100
AcDbVertex
100
AcDb3dPolylineVertex
8
0
10
49.2
20
42.8
30
53.62888717651367
70
32
0
VERTEX
5
AC5
330
AB7
100
AcDbEntity
100
AcDbVertex
100
AcDb3dPolylineVertex
8
0
10
49.4
20
43
30
53.69079961583673
70
32
0
VERTEX
5
AC6
330
AB7
100
AcDbEntity
100
AcDbVertex
100
AcDb3dPolylineVertex
8
0
10
49.5
20
43
30
53.72331330646246
70
32
0
VERTEX
5
AC7
330
AB7
100
AcDbEntity
100
AcDbVertex
100
AcDb3dPolylineVertex
8
0
10
49.6
20
42.9
30
53.75738446805236
70
32
0
VERTEX
5
AC8
330
AB7
100
AcDbEntity
100
AcDbVertex
100
AcDb3dPolylineVertex
8
0
10
49.6
20
42.8
30
53.758941939016545
70
32
0
VERTEX
5
AC9
330
AB7
100
AcDbEntity
100
AcDbVertex
100
AcDb3dPolylineVertex
8
0
10
49.3
20
42.5
30
53.666073280031945
70
32
0
VERTEX
5
ACA
330
AB7
100
AcDbEntity
100
AcDbVertex
100
AcDb3dPolylineVertex
8
0
10
49.3
20
42.5
30
53.558965864283365
70
32
0
VERTEX
5
ACB
330
AB7
100
AcDbEntity
100
AcDbVertex
100
AcDb3dPolylineVertex
8
0
10
49.3
20
42.5
30
53.666073280031945
70
32
0
VERTEX
5
ACC
330
AB7
100
AcDbEntity
100
AcDbVertex
100
AcDb3dPolylineVertex
8
0
10
49.2
20
42.6
30
53.524894702693466
70
32
0
VERTEX
5
ACD
330
AB7
100
AcDbEntity
100
AcDbVertex
100
AcDb3dPolylineVertex
8
0
10
49.2
20
42.6
30
53.632002118442045
70
32
0
VERTEX
5
ACE
330
AB7
100
AcDbEntity
100
AcDbVertex
100
AcDb3dPolylineVertex
8
0
10
49.3
20
42.7
30
53.55585092235499
70
32
0
VERTEX
5
ACF
330
AB7
100
AcDbEntity
100
AcDbVertex
100
AcDb3dPolylineVertex
8
0
10
49.3
20
42.7
30
53.66295833810357
70
32
0
VERTEX
5
AD0
330
AB7
100
AcDbEntity
100
AcDbVertex
100
AcDb3dPolylineVertex
8
0
10
49.2
20
42.8
30
53.52177976076509
70
32
0
VERTEX
5
AD1
330
AB7
100
AcDbEntity
100
AcDbVertex
100
AcDb3dPolylineVertex
8
0
10
49.2
20
42.8
30
53.62888717651367
70
32
0
VERTEX
5
AD2
330
AB7
100
AcDbEntity
100
AcDbVertex
100
AcDb3dPolylineVertex
8
0
10
49.4
20
43
30
53.58369220008815
70
32
0
VERTEX
5
AD3
330
AB7
100
AcDbEntity
100
AcDbVertex
100
AcDb3dPolylineVertex
8
0
10
49.4
20
43
30
53.69079961583673
70
32
0
VERTEX
5
AD4
330
AB7
100
AcDbEntity
100
AcDbVertex
100
AcDb3dPolylineVertex
8
0
10
49.5
20
43
30
53.61620589071388
70
32
0
VERTEX
5
AD5
330
AB7
100
AcDbEntity
100
AcDbVertex
100
AcDb3dPolylineVertex
8
0
10
49.5
20
43
30
53.72331330646246
70
32
0
VERTEX
5
AD6
330
AB7
100
AcDbEntity
100
AcDbVertex
100
AcDb3dPolylineVertex
8
0
10
49.6
20
42.9
30
53.65027705230378
70
32
0
VERTEX
5
AD7
330
AB7
100
AcDbEntity
100
AcDbVertex
100
AcDb3dPolylineVertex
8
0
10
49.6
20
42.9
30
53.75738446805236
70
32
0
VERTEX
5
AD8
330
AB7
100
AcDbEntity
100
AcDbVertex
100
AcDb3dPolylineVertex
8
0
10
49.6
20
42.8
30
53.651834523267965
70
32
0
VERTEX
5
AD9
330
AB7
100
AcDbEntity
100
AcDbVertex
100
AcDb3dPolylineVertex
8
0
10
49.6
20
42.8
30
53.758941939016545
70
32
0
SEQEND
5
ADA
100
AcDbEntity
8
0
0
POLYLINE
5
ADB
330
91F
100
AcDbEntity
100
AcDb3dPolyline
8
0
66
1
70
0
10
0
20
0
30
0
0
VERTEX
5
ADC
330
ADB
100
AcDbEntity
100
AcDbVertex
100
AcDb3dPolylineVertex
8
0
10
50.3
20
46.3
30
53.655329833343565
70
32
0
VERTEX
5
ADD
330
ADB
100
AcDbEntity
100
AcDbVertex
100
AcDb3dPolylineVertex
8
0
10
50.2
20
46.4
30
53.687671620158206
70
32
0
VERTEX
5
ADE
330
ADB
100
AcDbEntity
100
AcDbVertex
100
AcDb3dPolylineVertex
8
0
10
50.3
20
46.5
30
53.658286667894735
70
32
0
VERTEX
5
ADF
330
ADB
100
AcDbEntity
100
AcDbVertex
100
AcDb3dPolylineVertex
8
0
10
50.2
20
46.6
30
53.69062845470937
70
32
0
VERTEX
5
AE0
330
ADB
100
AcDbEntity
100
AcDbVertex
100
AcDb3dPolylineVertex
8
0
10
50.3
20
46.7
30
53.6612435024459
70
32
0
VERTEX
5
AE1
330
ADB
100
AcDbEntity
100
AcDbVertex
100
AcDb3dPolylineVertex
8
0
10
50.3
20
46.8
30
53.662721919721484
70
32
0
VERTEX
5
AE2
330
ADB
100
AcDbEntity
100
AcDbVertex
100
AcDb3dPolylineVertex
8
0
10
50.4
20
46.9
30
53.633336967458014
70
32
0
VERTEX
5
AE3
330
ADB
100
AcDbEntity
100
AcDbVertex
100
AcDb3dPolylineVertex
8
0
10
50.5
20
46.8
30
53.60099518064338
70
32
0
VERTEX
5
AE4
330
ADB
100
AcDbEntity
100
AcDbVertex
100
AcDb3dPolylineVertex
8
0
10
50.4
20
46.7
30
53.63038013290685
70
32
0
VERTEX
5
AE5
330
ADB
100
AcDbEntity
100
AcDbVertex
100
AcDb3dPolylineVertex
8
0
10
50.4
20
46.6
30
53.62890171563127
70
32
0
VERTEX
5
AE6
330
ADB
100
AcDbEntity
100
AcDbVertex
100
AcDb3dPolylineVertex
8
0
10
50.3
20
46.5
30
53.658286667894735
70
32
0
VERTEX
5
AE7
330
ADB
100
AcDbEntity
100
AcDbVertex
100
AcDb3dPolylineVertex
8
0
10
50.4
20
46.4
30
53.6259448810801
70
32
0
VERTEX
5
AE8
330
ADB
100
AcDbEntity
100
AcDbVertex
100
AcDb3dPolylineVertex
8
0
10
50.3
20
46.3
30
53.655329833343565
70
32
0
VERTEX
5
AE9
330
ADB
100
AcDbEntity
100
AcDbVertex
100
AcDb3dPolylineVertex
8
0
10
50.3
20
46.3
30
53.70532983334356
70
32
0
VERTEX
5
AEA
330
ADB
100
AcDbEntity
100
AcDbVertex
100
AcDb3dPolylineVertex
8
0
10
50.2
20
46.4
30
53.7376716201582
70
32
0
VERTEX
5
AEB
330
ADB
100
AcDbEntity
100
AcDbVertex
100
AcDb3dPolylineVertex
8
0
10
50.3
20
46.5
30
53.70828666789473
70
32
0
VERTEX
5
AEC
330
ADB
100
AcDbEntity
100
AcDbVertex
100
AcDb3dPolylineVertex
8
0
10
50.2
20
46.6
30
53.740628454709366
70
32
0
VERTEX
5
AED
330
ADB
100
AcDbEntity
100
AcDbVertex
100
AcDb3dPolylineVertex
8
0
10
50.3
20
46.7
30
53.711243502445896
70
32
0
VERTEX
5
AEE
330
ADB
100
AcDbEntity
100
AcDbVertex
100
AcDb3dPolylineVertex
8
0
10
50.3
20
46.8
30
53.71272191972148
70
32
0
VERTEX
5
AEF
330
ADB
100
AcDbEntity
100
AcDbVertex
100
AcDb3dPolylineVertex
8
0
10
50.4
20
46.9
30
53.68333696745801
70
32
0
VERTEX
5
AF0
330
ADB
100
AcDbEntity
100
AcDbVertex
100
AcDb3dPolylineVertex
8
0
10
50.5
20
46.8
30
53.65099518064338
70
32
0
VERTEX
5
AF1
330
ADB
100
AcDbEntity
100
AcDbVertex
100
AcDb3dPolylineVertex
8
0
10
50.4
20
46.7
30
53.68038013290685
70
32
0
VERTEX
5
AF2
330
ADB
100
AcDbEntity
100
AcDbVertex
100
AcDb3dPolylineVertex
8
0
10
50.4
20
46.6
30
53.67890171563127
70
32
0
VERTEX
5
AF3
330
ADB
100
AcDbEntity
100
AcDbVertex
100
AcDb3dPolylineVertex
8
0
10
50.3
20
46.5
30
53.70828666789473
70
32
0
VERTEX
5
AF4
330
ADB
100
AcDbEntity
100
AcDbVertex
100
AcDb3dPolylineVertex
8
0
10
50.4
20
46.4
30
53.6759448810801
70
32
0
VERTEX
5
AF5
330
ADB
100
AcDbEntity
100
AcDbVertex
100
AcDb3dPolylineVertex
8
0
10
50.3
20
46.3
30
53.70532983334356
70
32
0
VERTEX
5
AF6
330
ADB
100
AcDbEntity
100
AcDbVertex
100
AcDb3dPolylineVertex
8
0
10
50.3
20
46.3
30
53.655329833343565
70
32
0
VERTEX
5
AF7
330
ADB
100
AcDbEntity
100
AcDbVertex
100
AcDb3dPolylineVertex
8
0
10
50.3
20
46.3
30
53.70532983334356
70
32
0
VERTEX
5
AF8
330
ADB
100
AcDbEntity
100
AcDbVertex
100
AcDb3dPolylineVertex
8
0
10
50.2
20
46.4
30
53.687671620158206
70
32
0
VERTEX
5
AF9
330
ADB
100
AcDbEntity
100
AcDbVertex
100
AcDb3dPolylineVertex
8
0
10
50.2
20
46.4
30
53.7376716201582
70
32
0
VERTEX
5
AFA
330
ADB
100
AcDbEntity
100
AcDbVertex
100
AcDb3dPolylineVertex
8
0
10
50.3
20
46.5
30
53.658286667894735
70
32
0
VERTEX
5
AFB
330
ADB
100
AcDbEntity
100
AcDbVertex
100
AcDb3dPolylineVertex
8
0
10
50.3
20
46.5
30
53.70828666789473
70
32
0
VERTEX
5
AFC
330
ADB
100
AcDbEntity
100
AcDbVertex
100
AcDb3dPolylineVertex
8
0
10
50.2
20
46.6
30
53.69062845470937
70
32
0
VERTEX
5
AFD
330
ADB
100
AcDbEntity
100
AcDbVertex
100
AcDb3dPolylineVertex
8
0
10
50.2
20
46.6
30
53.740628454709366
70
32
0
VERTEX
5
AFE
330
ADB
100
AcDbEntity
100
AcDbVertex
100
AcDb3dPolylineVertex
8
0
10
50.3
20
46.7
30
53.6612435024459
70
32
0
VERTEX
5
AFF
330
ADB
100
AcDbEntity
100
AcDbVertex
100
AcDb3dPolylineVertex
8
0
10
50.3
20
46.7
30
53.711243502445896
70
32
0
VERTEX
5
B00
330
ADB
100
AcDbEntity
100
AcDbVertex
100
AcDb3dPolylineVertex
8
0
10
50.3
20
46.8
30
53.662721919721484
70
32
0
VERTEX
5
B01
330
ADB
100
AcDbEntity
100
AcDbVertex
100
AcDb3dPolylineVertex
8
0
10
50.3
20
46.8
30
53.71272191972148
70
32
0
VERTEX
5
B02
330
ADB
100
AcDbEntity
100
AcDbVertex
100
AcDb3dPolylineVertex
8
0
10
50.4
20
46.9
30
53.633336967458014
70
32
0
VERTEX
5
B03
330
ADB
100
AcDbEntity
100
AcDbVertex
100
AcDb3dPolylineVertex
8
0
10
50.4
20
46.9
30
53.68333696745801
70
32
0
VERTEX
5
B04
330
ADB
100
AcDbEntity
100
AcDbVertex
100
AcDb3dPolylineVertex
8
0
10
50.5
20
46.8
30
53.60099518064338
70
32
0
VERTEX
5
B05
330
ADB
100
AcDbEntity
100
AcDbVertex
100
AcDb3dPolylineVertex
8
0
10
50.5
20
46.8
30
53.65099518064338
70
32
0
VERTEX
5
B06
330
ADB
100
AcDbEntity
100
AcDbVertex
100
AcDb3dPolylineVertex
8
0
10
50.4
20
46.7
30
53.63038013290685
70
32
0
VERTEX
5
B07
330
ADB
100
AcDbEntity
100
AcDbVertex
100
AcDb3dPolylineVertex
8
0
10
50.4
20
46.7
30
53.68038013290685
70
32
0
VERTEX
5
B08
330
ADB
100
AcDbEntity
100
AcDbVertex
100
AcDb3dPolylineVertex
8
0
10
50.4
20
46.6
30
53.62890171563127
70
32
0
VERTEX
5
B09
330
ADB
100
AcDbEntity
100
AcDbVertex
100
AcDb3dPolylineVertex
8
0
10
50.4
20
46.6
30
53.67890171563127
70
32
0
VERTEX
5
B0A
330
ADB
100
AcDbEntity
100
AcDbVertex
100
AcDb3dPolylineVertex
8
0
10
50.3
20
46.5
30
53.658286667894735
70
32
0
VERTEX
5
B0B
330
ADB
100
AcDbEntity
100
AcDbVertex
100
AcDb3dPolylineVertex
8
0
10
50.3
20
46.5
30
53.70828666789473
70
32
0
VERTEX
5
B0C
330
ADB
100
AcDbEntity
100
AcDbVertex
100
AcDb3dPolylineVertex
8
0
10
50.4
20
46.4
30
53.6259448810801
70
32
0
VERTEX
5
B0D
330
ADB
100
AcDbEntity
100
AcDbVertex
100
AcDb3dPolylineVertex
8
0
10
50.4
20
46.4
30
53.6759448810801
70
32
0
SEQEND
5
B0E
100
AcDbEntity
8
0
0
POLYLINE
5
B0F
330
91F
100
AcDbEntity
100
AcDb3dPolyline
8
0
66
1
70
0
10
0
20
0
30
0
0
VERTEX
5
B10
330
B0F
100
AcDbEntity
100
AcDbVertex
100
AcDb3dPolylineVertex
8
0
10
52.9
20
43.9
30
52.81740021071427
70
32
0
VERTEX
5
B11
330
B0F
100
AcDbEntity
100
AcDbVertex
100
AcDb3dPolylineVertex
8
0
10
52.8
20
44
30
52.849741997528895
70
32
0
VERTEX
5
B12
330
B0F
100
AcDbEntity
100
AcDbVertex
100
AcDb3dPolylineVertex
8
0
10
52.8
20
44.1
30
52.85122041480448
70
32
0
VERTEX
5
B13
330
B0F
100
AcDbEntity
100
AcDbVertex
100
AcDb3dPolylineVertex
8
0
10
53
20
44.3
30
52.79245051027755
70
32
0
VERTEX
5
B14
330
B0F
100
AcDbEntity
100
AcDbVertex
100
AcDb3dPolylineVertex
8
0
10
53.1
20
44.3
30
52.76158714073849
70
32
0
VERTEX
5
B15
330
B0F
100
AcDbEntity
100
AcDbVertex
100
AcDb3dPolylineVertex
8
0
10
53.3
20
44.5
30
52.70281723621156
70
32
0
VERTEX
5
B16
330
B0F
100
AcDbEntity
100
AcDbVertex
100
AcDb3dPolylineVertex
8
0
10
53.1
20
44.7
30
52.767500809840826
70
32
0
VERTEX
5
B17
330
B0F
100
AcDbEntity
100
AcDbVertex
100
AcDb3dPolylineVertex
8
0
10
52.6
20
44.7
30
52.921817657536074
70
32
0
VERTEX
5
B18
330
B0F
100
AcDbEntity
100
AcDbVertex
100
AcDb3dPolylineVertex
8
0
10
52.4
20
44.9
30
52.98650123116535
70
32
0
VERTEX
5
B19
330
B0F
100
AcDbEntity
100
AcDbVertex
100
AcDb3dPolylineVertex
8
0
10
52.3
20
44.9
30
53.01736460070439
70
32
0
VERTEX
5
B1A
330
B0F
100
AcDbEntity
100
AcDbVertex
100
AcDb3dPolylineVertex
8
0
10
52.2
20
45
30
53.04970638751903
70
32
0
VERTEX
5
B1B
330
B0F
100
AcDbEntity
100
AcDbVertex
100
AcDb3dPolylineVertex
8
0
10
52
20
45
30
53.111433126597134
70
32
0
VERTEX
5
B1C
330
B0F
100
AcDbEntity
100
AcDbVertex
100
AcDb3dPolylineVertex
8
0
10
51.9
20
45.1
30
53.14377491341176
70
32
0
VERTEX
5
B1D
330
B0F
100
AcDbEntity
100
AcDbVertex
100
AcDb3dPolylineVertex
8
0
10
51.7
20
45.1
30
53.205501652489865
70
32
0
VERTEX
5
B1E
330
B0F
100
AcDbEntity
100
AcDbVertex
100
AcDb3dPolylineVertex
8
0
10
51.6
20
45.2
30
53.23784343930449
70
32
0
VERTEX
5
B1F
330
B0F
100
AcDbEntity
100
AcDbVertex
100
AcDb3dPolylineVertex
8
0
10
51.4
20
45.2
30
53.299570178382595
70
32
0
VERTEX
5
B20
330
B0F
100
AcDbEntity
100
AcDbVertex
100
AcDb3dPolylineVertex
8
0
10
51.3
20
45.3
30
53.331911965197236
70
32
0
VERTEX
5
B21
330
B0F
100
AcDbEntity
100
AcDbVertex
100
AcDb3dPolylineVertex
8
0
10
51.3
20
45.4
30
53.33339038247282
70
32
0
VERTEX
5
B22
330
B0F
100
AcDbEntity
100
AcDbVertex
100
AcDb3dPolylineVertex
8
0
10
51.4
20
45.5
30
53.30400543020935
70
32
0
VERTEX
5
B23
330
B0F
100
AcDbEntity
100
AcDbVertex
100
AcDb3dPolylineVertex
8
0
10
51.4
20
45.8
30
53.3084406820361
70
32
0
VERTEX
5
B24
330
B0F
100
AcDbEntity
100
AcDbVertex
100
AcDb3dPolylineVertex
8
0
10
51.5
20
45.9
30
53.27905572977263
70
32
0
VERTEX
5
B25
330
B0F
100
AcDbEntity
100
AcDbVertex
100
AcDb3dPolylineVertex
8
0
10
51.4
20
46
30
53.31139751658726
70
32
0
VERTEX
5
B26
330
B0F
100
AcDbEntity
100
AcDbVertex
100
AcDb3dPolylineVertex
8
0
10
51.4
20
46.2
30
53.31435435113843
70
32
0
VERTEX
5
B27
330
B0F
100
AcDbEntity
100
AcDbVertex
100
AcDb3dPolylineVertex
8
0
10
51.2
20
46.4
30
53.379037924767694
70
32
0
VERTEX
5
B28
330
B0F
100
AcDbEntity
100
AcDbVertex
100
AcDb3dPolylineVertex
8
0
10
51.3
20
46.5
30
53.349652972504224
70
32
0
VERTEX
5
B29
330
B0F
100
AcDbEntity
100
AcDbVertex
100
AcDb3dPolylineVertex
8
0
10
51.4
20
46.5
30
53.318789602965175
70
32
0
VERTEX
5
B2A
330
B0F
100
AcDbEntity
100
AcDbVertex
100
AcDb3dPolylineVertex
8
0
10
51.5
20
46.6
30
53.289404650701705
70
32
0
VERTEX
5
B2B
330
B0F
100
AcDbEntity
100
AcDbVertex
100
AcDb3dPolylineVertex
8
0
10
51.7
20
46.6
30
53.2276779116236
70
32
0
VERTEX
5
B2C
330
B0F
100
AcDbEntity
100
AcDbVertex
100
AcDb3dPolylineVertex
8
0
10
52.1
20
47
30
53.110138102569735
70
32
0
VERTEX
5
B2D
330
B0F
100
AcDbEntity
100
AcDbVertex
100
AcDb3dPolylineVertex
8
0
10
52.1
20
47.2
30
53.1130949371209
70
32
0
VERTEX
5
B2E
330
B0F
100
AcDbEntity
100
AcDbVertex
100
AcDb3dPolylineVertex
8
0
10
51.9
20
47.4
30
53.177778510750166
70
32
0
VERTEX
5
B2F
330
B0F
100
AcDbEntity
100
AcDbVertex
100
AcDb3dPolylineVertex
8
0
10
51.9
20
47.5
30
53.17925692802575
70
32
0
VERTEX
5
B30
330
B0F
100
AcDbEntity
100
AcDbVertex
100
AcDb3dPolylineVertex
8
0
10
52
20
47.6
30
53.14987197576228
70
32
0
VERTEX
5
B31
330
B0F
100
AcDbEntity
100
AcDbVertex
100
AcDb3dPolylineVertex
8
0
10
52.3
20
47.6
30
53.057281867145136
70
32
0
VERTEX
5
B32
330
B0F
100
AcDbEntity
100
AcDbVertex
100
AcDb3dPolylineVertex
8
0
10
52.4
20
47.7
30
53.02789691488166
70
32
0
VERTEX
5
B33
330
B0F
100
AcDbEntity
100
AcDbVertex
100
AcDb3dPolylineVertex
8
0
10
53.1
20
47.7
30
52.811853328108306
70
32
0
VERTEX
5
B34
330
B0F
100
AcDbEntity
100
AcDbVertex
100
AcDb3dPolylineVertex
8
0
10
53.2
20
47.6
30
52.77951154129367
70
32
0
VERTEX
5
B35
330
B0F
100
AcDbEntity
100
AcDbVertex
100
AcDb3dPolylineVertex
8
0
10
53.3
20
47.6
30
52.748648171754624
70
32
0
VERTEX
5
B36
330
B0F
100
AcDbEntity
100
AcDbVertex
100
AcDb3dPolylineVertex
8
0
10
53.4
20
47.7
30
52.719263219491154
70
32
0
VERTEX
5
B37
330
B0F
100
AcDbEntity
100
AcDbVertex
100
AcDb3dPolylineVertex
8
0
10
53.5
20
47.6
30
52.68692143267652
70
32
0
VERTEX
5
B38
330
B0F
100
AcDbEntity
100
AcDbVertex
100
AcDb3dPolylineVertex
8
0
10
53.6
20
47.7
30
52.65753648041305
70
32
0
VERTEX
5
B39
330
B0F
100
AcDbEntity
100
AcDbVertex
100
AcDb3dPolylineVertex
8
0
10
53.7
20
47.6
30
52.62519469359842
70
32
0
VERTEX
5
B3A
330
B0F
100
AcDbEntity
100
AcDbVertex
100
AcDb3dPolylineVertex
8
0
10
53.8
20
47.6
30
52.59433132405937
70
32
0
VERTEX
5
B3B
330
B0F
100
AcDbEntity
100
AcDbVertex
100
AcDb3dPolylineVertex
8
0
10
54
20
47.4
30
52.5296477504301
70
32
0
VERTEX
5
B3C
330
B0F
100
AcDbEntity
100
AcDbVertex
100
AcDb3dPolylineVertex
8
0
10
54
20
46.9
30
52.52225566405218
70
32
0
VERTEX
5
B3D
330
B0F
100
AcDbEntity
100
AcDbVertex
100
AcDb3dPolylineVertex
8
0
10
54.1
20
46.8
30
52.489913877237555
70
32
0
VERTEX
5
B3E
330
B0F
100
AcDbEntity
100
AcDbVertex
100
AcDb3dPolylineVertex
8
0
10
54.1
20
46.2
30
52.48104337358405
70
32
0
VERTEX
5
B3F
330
B0F
100
AcDbEntity
100
AcDbVertex
100
AcDb3dPolylineVertex
8
0
10
54
20
46.1
30
52.51042832584752
70
32
0
VERTEX
5
B40
330
B0F
100
AcDbEntity
100
AcDbVertex
100
AcDb3dPolylineVertex
8
0
10
54
20
45.2
30
52.49712257036728
70
32
0
VERTEX
5
B41
330
B0F
100
AcDbEntity
100
AcDbVertex
100
AcDb3dPolylineVertex
8
0
10
54.1
20
45.1
30
52.46478078355265
70
32
0
VERTEX
5
B42
330
B0F
100
AcDbEntity
100
AcDbVertex
100
AcDb3dPolylineVertex
8
0
10
54
20
45
30
52.49416573581611
70
32
0
VERTEX
5
B43
330
B0F
100
AcDbEntity
100
AcDbVertex
100
AcDb3dPolylineVertex
8
0
10
54
20
44.8
30
52.49120890126495
70
32
0
VERTEX
5
B44
330
B0F
100
AcDbEntity
100
AcDbVertex
100
AcDb3dPolylineVertex
8
0
10
53.8
20
44.6
30
52.54997880579189
70
32
0
VERTEX
5
B45
330
B0F
100
AcDbEntity
100
AcDbVertex
100
AcDb3dPolylineVertex
8
0
10
53.8
20
44.5
30
52.5485003885163
70
32
0
VERTEX
5
B46
330
B0F
100
AcDbEntity
100
AcDbVertex
100
AcDb3dPolylineVertex
8
0
10
53.7
20
44.4
30
52.577885340779765
70
32
0
VERTEX
5
B47
330
B0F
100
AcDbEntity
100
AcDbVertex
100
AcDb3dPolylineVertex
8
0
10
53.7
20
44.1
30
52.573450088953024
70
32
0
VERTEX
5
B48
330
B0F
100
AcDbEntity
100
AcDbVertex
100
AcDb3dPolylineVertex
8
0
10
53.5
20
43.9
30
52.63221999347996
70
32
0
VERTEX
5
B49
330
B0F
100
AcDbEntity
100
AcDbVertex
100
AcDb3dPolylineVertex
8
0
10
52.9
20
43.9
30
52.81740021071427
70
32
0
VERTEX
5
B4A
330
B0F
100
AcDbEntity
100
AcDbVertex
100
AcDb3dPolylineVertex
8
0
10
52.9
20
43.9
30
52.88875730897826
70
32
0
VERTEX
5
B4B
330
B0F
100
AcDbEntity
100
AcDbVertex
100
AcDb3dPolylineVertex
8
0
10
52.8
20
44
30
52.92109909579289
70
32
0
VERTEX
5
B4C
330
B0F
100
AcDbEntity
100
AcDbVertex
100
AcDb3dPolylineVertex
8
0
10
52.8
20
44.1
30
52.922577513068475
70
32
0
VERTEX
5
B4D
330
B0F
100
AcDbEntity
100
AcDbVertex
100
AcDb3dPolylineVertex
8
0
10
53
20
44.3
30
52.86380760854154
70
32
0
VERTEX
5
B4E
330
B0F
100
AcDbEntity
100
AcDbVertex
100
AcDb3dPolylineVertex
8
0
10
53.1
20
44.3
30
52.83294423900249
70
32
0
VERTEX
5
B4F
330
B0F
100
AcDbEntity
100
AcDbVertex
100
AcDb3dPolylineVertex
8
0
10
53.3
20
44.5
30
52.77417433447555
70
32
0
VERTEX
5
B50
330
B0F
100
AcDbEntity
100
AcDbVertex
100
AcDb3dPolylineVertex
8
0
10
53.1
20
44.7
30
52.83885790810482
70
32
0
VERTEX
5
B51
330
B0F
100
AcDbEntity
100
AcDbVertex
100
AcDb3dPolylineVertex
8
0
10
52.6
20
44.7
30
52.99317475580007
70
32
0
VERTEX
5
B52
330
B0F
100
AcDbEntity
100
AcDbVertex
100
AcDb3dPolylineVertex
8
0
10
52.4
20
44.9
30
53.057858329429344
70
32
0
VERTEX
5
B53
330
B0F
100
AcDbEntity
100
AcDbVertex
100
AcDb3dPolylineVertex
8
0
10
52.3
20
44.9
30
53.088721698968385
70
32
0
VERTEX
5
B54
330
B0F
100
AcDbEntity
100
AcDbVertex
100
AcDb3dPolylineVertex
8
0
10
52.2
20
45
30
53.121063485783026
70
32
0
VERTEX
5
B55
330
B0F
100
AcDbEntity
100
AcDbVertex
100
AcDb3dPolylineVertex
8
0
10
52
20
45
30
53.18279022486113
70
32
0
VERTEX
5
B56
330
B0F
100
AcDbEntity
100
AcDbVertex
100
AcDb3dPolylineVertex
8
0
10
51.9
20
45.1
30
53.215132011675756
70
32
0
VERTEX
5
B57
330
B0F
100
AcDbEntity
100
AcDbVertex
100
AcDb3dPolylineVertex
8
0
10
51.7
20
45.1
30
53.27685875075386
70
32
0
VERTEX
5
B58
330
B0F
100
AcDbEntity
100
AcDbVertex
100
AcDb3dPolylineVertex
8
0
10
51.6
20
45.2
30
53.309200537568486
70
32
0
VERTEX
5
B59
330
B0F
100
AcDbEntity
100
AcDbVertex
100
AcDb3dPolylineVertex
8
0
10
51.4
20
45.2
30
53.37092727664659
70
32
0
VERTEX
5
B5A
330
B0F
100
AcDbEntity
100
AcDbVertex
100
AcDb3dPolylineVertex
8
0
10
51.3
20
45.3
30
53.40326906346123
70
32
0
VERTEX
5
B5B
330
B0F
100
AcDbEntity
100
AcDbVertex
100
AcDb3dPolylineVertex
8
0
10
51.3
20
45.4
30
53.404747480736816
70
32
0
VERTEX
5
B5C
330
B0F
100
AcDbEntity
100
AcDbVertex
100
AcDb3dPolylineVertex
8
0
10
51.4
20
45.5
30
53.375362528473346
70
32
0
VERTEX
5
B5D
330
B0F
100
AcDbEntity
100
AcDbVertex
100
AcDb3dPolylineVertex
8
0
10
51.4
20
45.8
30
53.379797780300095
70
32
0
VERTEX
5
B5E
330
B0F
100
AcDbEntity
100
AcDbVertex
100
AcDb3dPolylineVertex
8
0
10
51.5
20
45.9
30
53.350412828036625
70
32
0
VERTEX
5
B5F
330
B0F
100
AcDbEntity
100
AcDbVertex
100
AcDb3dPolylineVertex
8
0
10
51.4
20
46
30
53.38275461485126
70
32
0
VERTEX
5
B60
330
B0F
100
AcDbEntity
100
AcDbVertex
100
AcDb3dPolylineVertex
8
0
10
51.4
20
46.2
30
53.38571144940242
70
32
0
VERTEX
5
B61
330
B0F
100
AcDbEntity
100
AcDbVertex
100
AcDb3dPolylineVertex
8
0
10
51.2
20
46.4
30
53.45039502303169
70
32
0
VERTEX
5
B62
330
B0F
100
AcDbEntity
100
AcDbVertex
100
AcDb3dPolylineVertex
8
0
10
51.3
20
46.5
30
53.42101007076822
70
32
0
VERTEX
5
B63
330
B0F
100
AcDbEntity
100
AcDbVertex
100
AcDb3dPolylineVertex
8
0
10
51.4
20
46.5
30
53.39014670122917
70
32
0
VERTEX
5
B64
330
B0F
100
AcDbEntity
100
AcDbVertex
100
AcDb3dPolylineVertex
8
0
10
51.5
20
46.6
30
53.3607617489657
70
32
0
VERTEX
5
B65
330
B0F
100
AcDbEntity
100
AcDbVertex
100
AcDb3dPolylineVertex
8
0
10
51.7
20
46.6
30
53.2990350098876
70
32
0
VERTEX
5
B66
330
B0F
100
AcDbEntity
100
AcDbVertex
100
AcDb3dPolylineVertex
8
0
10
52.1
20
47
30
53.18149520083373
70
32
0
VERTEX
5
B67
330
B0F
100
AcDbEntity
100
AcDbVertex
100
AcDb3dPolylineVertex
8
0
10
52.1
20
47.2
30
53.18445203538489
70
32
0
VERTEX
5
B68
330
B0F
100
AcDbEntity
100
AcDbVertex
100
AcDb3dPolylineVertex
8
0
10
51.9
20
47.4
30
53.24913560901416
70
32
0
VERTEX
5
B69
330
B0F
100
AcDbEntity
100
AcDbVertex
100
AcDb3dPolylineVertex
8
0
10
51.9
20
47.5
30
53.250614026289746
70
32
0
VERTEX
5
B6A
330
B0F
100
AcDbEntity
100
AcDbVertex
100
AcDb3dPolylineVertex
8
0
10
52
20
47.6
30
53.221229074026276
70
32
0
VERTEX
5
B6B
330
B0F
100
AcDbEntity
100
AcDbVertex
100
AcDb3dPolylineVertex
8
0
10
52.3
20
47.6
30
53.12863896540913
70
32
0
VERTEX
5
B6C
330
B0F
100
AcDbEntity
100
AcDbVertex
100
AcDb3dPolylineVertex
8
0
10
52.4
20
47.7
30
53.099254013145654
70
32
0
VERTEX
5
B6D
330
B0F
100
AcDbEntity
100
AcDbVertex
100
AcDb3dPolylineVertex
8
0
10
53.1
20
47.7
30
52.8832104263723
70
32
0
VERTEX
5
B6E
330
B0F
100
AcDbEntity
100
AcDbVertex
100
AcDb3dPolylineVertex
8
0
10
53.2
20
47.6
30
52.85086863955767
70
32
0
VERTEX
5
B6F
330
B0F
100
AcDbEntity
100
AcDbVertex
100
AcDb3dPolylineVertex
8
0
10
53.3
20
47.6
30
52.82000527001862
70
32
0
VERTEX
5
B70
330
B0F
100
AcDbEntity
100
AcDbVertex
100
AcDb3dPolylineVertex
8
0
10
53.4
20
47.7
30
52.79062031775515
70
32
0
VERTEX
5
B71
330
B0F
100
AcDbEntity
100
AcDbVertex
100
AcDb3dPolylineVertex
8
0
10
53.5
20
47.6
30
52.758278530940515
70
32
0
VERTEX
5
B72
330
B0F
100
AcDbEntity
100
AcDbVertex
100
AcDb3dPolylineVertex
8
0
10
53.6
20
47.7
30
52.728893578677045
70
32
0
VERTEX
5
B73
330
B0F
100
AcDbEntity
100
AcDbVertex
100
AcDb3dPolylineVertex
8
0
10
53.7
20
47.6
30
52.69655179186241
70
32
0
VERTEX
5
B74
330
B0F
100
AcDbEntity
100
AcDbVertex
100
AcDb3dPolylineVertex
8
0
10
53.8
20
47.6
30
52.66568842232336
70
32
0
VERTEX
5
B75
330
B0F
100
AcDbEntity
100
AcDbVertex
100
AcDb3dPolylineVertex
8
0
10
54
20
47.4
30
52.601004848694096
70
32
0
VERTEX
5
B76
330
B0F
100
AcDbEntity
100
AcDbVertex
100
AcDb3dPolylineVertex
8
0
10
54
20
46.9
30
52.59361276231618
70
32
0
VERTEX
5
B77
330
B0F
100
AcDbEntity
100
AcDbVertex
100
AcDb3dPolylineVertex
8
0
10
54.1
20
46.8
30
52.56127097550155
70
32
0
VERTEX
5
B78
330
B0F
100
AcDbEntity
100
AcDbVertex
100
AcDb3dPolylineVertex
8
0
10
54.1
20
46.2
30
52.552400471848046
70
32
0
VERTEX
5
B79
330
B0F
100
AcDbEntity
100
AcDbVertex
100
AcDb3dPolylineVertex
8
0
10
54
20
46.1
30
52.581785424111516
70
32
0
VERTEX
5
B7A
330
B0F
100
AcDbEntity
100
AcDbVertex
100
AcDb3dPolylineVertex
8
0
10
54
20
45.2
30
52.56847966863128
70
32
0
VERTEX
5
B7B
330
B0F
100
AcDbEntity
100
AcDbVertex
100
AcDb3dPolylineVertex
8
0
10
54.1
20
45.1
30
52.53613788181664
70
32
0
VERTEX
5
B7C
330
B0F
100
AcDbEntity
100
AcDbVertex
100
AcDb3dPolylineVertex
8
0
10
54
20
45
30
52.565522834080106
70
32
0
VERTEX
5
B7D
330
B0F
100
AcDbEntity
100
AcDbVertex
100
AcDb3dPolylineVertex
8
0
10
54
20
44.8
30
52.56256599952894
70
32
0
VERTEX
5
B7E
330
B0F
100
AcDbEntity
100
AcDbVertex
100
AcDb3dPolylineVertex
8
0
10
53.8
20
44.6
30
52.62133590405588
70
32
0
VERTEX
5
B7F
330
B0F
100
AcDbEntity
100
AcDbVertex
100
AcDb3dPolylineVertex
8
0
10
53.8
20
44.5
30
52.6198574867803
70
32
0
VERTEX
5
B80
330
B0F
100
AcDbEntity
100
AcDbVertex
100
AcDb3dPolylineVertex
8
0
10
53.7
20
44.4
30
52.64924243904376
70
32
0
VERTEX
5
B81
330
B0F
100
AcDbEntity
100
AcDbVertex
100
AcDb3dPolylineVertex
8
0
10
53.7
20
44.1
30
52.64480718721702
70
32
0
VERTEX
5
B82
330
B0F
100
AcDbEntity
100
AcDbVertex
100
AcDb3dPolylineVertex
8
0
10
53.5
20
43.9
30
52.70357709174395
70
32
0
VERTEX
5
B83
330
B0F
100
AcDbEntity
100
AcDbVertex
100
AcDb3dPolylineVertex
8
0
10
52.9
20
43.9
30
52.88875730897826
70
32
0
VERTEX
5
B84
330
B0F
100
AcDbEntity
100
AcDbVertex
100
AcDb3dPolylineVertex
8
0
10
52.9
20
43.9
30
52.81740021071427
70
32
0
VERTEX
5
B85
330
B0F
100
AcDbEntity
100
AcDbVertex
100
AcDb3dPolylineVertex
8
0
10
52.9
20
43.9
30
52.88875730897826
70
32
0
VERTEX
5
B86
330
B0F
100
AcDbEntity
100
AcDbVertex
100
AcDb3dPolylineVertex
8
0
10
52.8
20
44
30
52.849741997528895
70
32
0
VERTEX
5
B87
330
B0F
100
AcDbEntity
100
AcDbVertex
100
AcDb3dPolylineVertex
8
0
10
52.8
20
44
30
52.92109909579289
70
32
0
VERTEX
5
B88
330
B0F
100
AcDbEntity
100
AcDbVertex
100
AcDb3dPolylineVertex
8
0
10
52.8
20
44.1
30
52.85122041480448
70
32
0
VERTEX
5
B89
330
B0F
100
AcDbEntity
100
AcDbVertex
100
AcDb3dPolylineVertex
8
0
10
52.8
20
44.1
30
52.922577513068475
70
32
0
VERTEX
5
B8A
330
B0F
100
AcDbEntity
100
AcDbVertex
100
AcDb3dPolylineVertex
8
0
10
53
20
44.3
30
52.79245051027755
70
32
0
VERTEX
5
B8B
330
B0F
100
AcDbEntity
100
AcDbVertex
100
AcDb3dPolylineVertex
8
0
10
53
20
44.3
30
52.86380760854154
70
32
0
VERTEX
5
B8C
330
B0F
100
AcDbEntity
100
AcDbVertex
100
AcDb3dPolylineVertex
8
0
10
53.1
20
44.3
30
52.76158714073849
70
32
0
VERTEX
5
B8D
330
B0F
100
AcDbEntity
100
AcDbVertex
100
AcDb3dPolylineVertex
8
0
10
53.1
20
44.3
30
52.83294423900249
70
32
0
VERTEX
5
B8E
330
B0F
100
AcDbEntity
100
AcDbVertex
100
AcDb3dPolylineVertex
8
0
10
53.3
20
44.5
30
52.70281723621156
70
32
0
VERTEX
5
B8F
330
B0F
100
AcDbEntity
100
AcDbVertex
100
AcDb3dPolylineVertex
8
0
10
53.3
20
44.5
30
52.77417433447555
70
32
0
VERTEX
5
B90
330
B0F
100
AcDbEntity
100
AcDbVertex
100
AcDb3dPolylineVertex
8
0
10
53.1
20
44.7
30
52.767500809840826
70
32
0
VERTEX
5
B91
330
B0F
100
AcDbEntity
100
AcDbVertex
100
AcDb3dPolylineVertex
8
0
10
53.1
20
44.7
30
52.83885790810482
70
32
0
VERTEX
5
B92
330
B0F
100
AcDbEntity
100
AcDbVertex
100
AcDb3dPolylineVertex
8
0
10
52.6
20
44.7
30
52.921817657536074
70
32
0
VERTEX
5
B93
330
B0F
100
AcDbEntity
100
AcDbVertex
100
AcDb3dPolylineVertex
8
0
10
52.6
20
44.7
30
52.99317475580007
70
32
0
VERTEX
5
B94
330
B0F
100
AcDbEntity
100
AcDbVertex
100
AcDb3dPolylineVertex
8
0
10
52.4
20
44.9
30
52.98650123116535
70
32
0
VERTEX
5
B95
330
B0F
100
AcDbEntity
100
AcDbVertex
100
AcDb3dPolylineVertex
8
0
10
52.4
20
44.9
30
53.057858329429344
70
32
0
VERTEX
5
B96
330
B0F
100
AcDbEntity
100
AcDbVertex
100
AcDb3dPolylineVertex
8
0
10
52.3
20
44.9
30
53.01736460070439
70
32
0
VERTEX
5
B97
330
B0F
100
AcDbEntity
100
AcDbVertex
100
AcDb3dPolylineVertex
8
0
10
52.3
20
44.9
30
53.088721698968385
70
32
0
VERTEX
5
B98
330
B0F
100
AcDbEntity
100
AcDbVertex
100
AcDb3dPolylineVertex
8
0
10
52.2
20
45
30
53.04970638751903
70
32
0
VERTEX
5
B99
330
B0F
100
AcDbEntity
100
AcDbVertex
100
AcDb3dPolylineVertex
8
0
10
52.2
20
45
30
53.121063485783026
70
32
0
VERTEX
5
B9A
330
B0F
100
AcDbEntity
100
AcDbVertex
100
AcDb3dPolylineVertex
8
0
10
52
20
45
30
53.111433126597134
70
32
0
VERTEX
5
B9B
330
B0F
100
AcDbEntity
100
AcDbVertex
100
AcDb3dPolylineVertex
8
0
10
52
20
45
30
53.18279022486113
70
32
0
VERTEX
5
B9C
330
B0F
100
AcDbEntity
100
AcDbVertex
100
AcDb3dPolylineVertex
8
0
10
51.9
20
45.1
30
53.14377491341176
70
32
0
VERTEX
5
B9D
330
B0F
100
AcDbEntity
100
AcDbVertex
100
AcDb3dPolylineVertex
8
0
10
51.9
20
45.1
30
53.215132011675756
70
32
0
VERTEX
5
B9E
330
B0F
100
AcDbEntity
100
AcDbVertex
100
AcDb3dPolylineVertex
8
0
10
51.7
20
45.1
30
53.205501652489865
70
32
0
VERTEX
5
B9F
330
B0F
100
AcDbEntity
100
AcDbVertex
100
AcDb3dPolylineVertex
8
0
10
51.7
20
45.1
30
53.27685875075386
70
32
0
VERTEX
5
BA0
330
B0F
100
AcDbEntity
100
AcDbVertex
100
AcDb3dPolylineVertex
8
0
10
51.6
20
45.2
30
53.23784343930449
70
32
0
VERTEX
5
BA1
330
B0F
100
AcDbEntity
100
AcDbVertex
100
AcDb3dPolylineVertex
8
0
10
51.6
20
45.2
30
53.309200537568486
70
32
0
VERTEX
5
BA2
330
B0F
100
AcDbEntity
100
AcDbVertex
100
AcDb3dPolylineVertex
8
0
10
51.4
20
45.2
30
53.299570178382595
70
32
0
VERTEX
5
BA3
330
B0F
100
AcDbEntity
100
AcDbVertex
100
AcDb3dPolylineVertex
8
0
10
51.4
20
45.2
30
53.37092727664659
70
32
0
VERTEX
5
BA4
330
B0F
100
AcDbEntity
100
AcDbVertex
100
AcDb3dPolylineVertex
8
0
10
51.3
20
45.3
30
53.331911965197236
70
32
0
VERTEX
5
BA5
330
B0F
100
AcDbEntity
100
AcDbVertex
100
AcDb3dPolylineVertex
8
0
10
51.3
20
45.3
30
53.40326906346123
70
32
0
VERTEX
5
BA6
330
B0F
100
AcDbEntity
100
AcDbVertex
100
AcDb3dPolylineVertex
8
0
10
51.3
20
45.4
30
53.33339038247282
70
32
0
VERTEX
5
BA7
330
B0F
100
AcDbEntity
100
AcDbVertex
100
AcDb3dPolylineVertex
8
0
10
51.3
20
45.4
30
53.404747480736816
70
32
0
VERTEX
5
BA8
330
B0F
100
AcDbEntity
100
AcDbVertex
100
AcDb3dPolylineVertex
8
0
10
51.4
20
45.5
30
53.30400543020935
70
32
0
VERTEX
5
BA9
330
B0F
100
AcDbEntity
100
AcDbVertex
100
AcDb3dPolylineVertex
8
0
10
51.4
20
45.5
30
53.375362528473346
70
32
0
VERTEX
5
BAA
330
B0F
100
AcDbEntity
100
AcDbVertex
100
AcDb3dPolylineVertex
8
0
10
51.4
20
45.8
30
53.3084406820361
70
32
0
VERTEX
5
BAB
330
B0F
100
AcDbEntity
100
AcDbVertex
100
AcDb3dPolylineVertex
8
0
10
51.4
20
45.8
30
53.379797780300095
70
32
0
VERTEX
5
BAC
330
B0F
100
AcDbEntity
100
AcDbVertex
100
AcDb3dPolylineVertex
8
0
10
51.5
20
45.9
30
53.27905572977263
70
32
0
VERTEX
5
BAD
330
B0F
100
AcDbEntity
100
AcDbVertex
100
AcDb3dPolylineVertex
8
0
10
51.5
20
45.9
30
53.350412828036625
70
32
0
VERTEX
5
BAE
330
B0F
100
AcDbEntity
100
AcDbVertex
100
AcDb3dPolylineVertex
8
0
10
51.4
20
46
30
53.31139751658726
70
32
0
VERTEX
5
BAF
330
B0F
100
AcDbEntity
100
AcDbVertex
100
AcDb3dPolylineVertex
8
0
10
51.4
20
46
30
53.38275461485126
70
32
0
VERTEX
5
BB0
330
B0F
100
AcDbEntity
100
AcDbVertex
100
AcDb3dPolylineVertex
8
0
10
51.4
20
46.2
30
53.31435435113843
70
32
0
VERTEX
5
BB1
330
B0F
100
AcDbEntity
100
AcDbVertex
100
AcDb3dPolylineVertex
8
0
10
51.4
20
46.2
30
53.38571144940242
70
32
0
VERTEX
5
BB2
330
B0F
100
AcDbEntity
100
AcDbVertex
100
AcDb3dPolylineVertex
8
0
10
51.2
20
46.4
30
53.379037924767694
70
32
0
VERTEX
5
BB3
330
B0F
100
AcDbEntity
100
AcDbVertex
100
AcDb3dPolylineVertex
8
0
10
51.2
20
46.4
30
53.45039502303169
70
32
0
VERTEX
5
BB4
330
B0F
100
AcDbEntity
100
AcDbVertex
100
AcDb3dPolylineVertex
8
0
10
51.3
20
46.5
30
53.349652972504224
70
32
0
VERTEX
5
BB5
330
B0F
100
AcDbEntity
100
AcDbVertex
100
AcDb3dPolylineVertex
8
0
10
51.3
20
46.5
30
53.42101007076822
70
32
0
VERTEX
5
BB6
330
B0F
100
AcDbEntity
100
AcDbVertex
100
AcDb3dPolylineVertex
8
0
10
51.4
20
46.5
30
53.318789602965175
70
32
0
VERTEX
5
BB7
330
B0F
100
AcDbEntity
100
AcDbVertex
100
AcDb3dPolylineVertex
8
0
10
51.4
20
46.5
30
53.39014670122917
70
32
0
VERTEX
5
BB8
330
B0F
100
AcDbEntity
100
AcDbVertex
100
AcDb3dPolylineVertex
8
0
10
51.5
20
46.6
30
53.289404650701705
70
32
0
VERTEX
5
BB9
330
B0F
100
AcDbEntity
100
AcDbVertex
100
AcDb3dPolylineVertex
8
0
10
51.5
20
46.6
30
53.3607617489657
70
32
0
VERTEX
5
BBA
330
B0F
100
AcDbEntity
100
AcDbVertex
100
AcDb3dPolylineVertex
8
0
10
51.7
20
46.6
30
53.2276779116236
70
32
0
VERTEX
5
BBB
330
B0F
100
AcDbEntity
100
AcDbVertex
100
AcDb3dPolylineVertex
8
0
10
51.7
20
46.6
30
53.2990350098876
70
32
0
VERTEX
5
BBC
330
B0F
100
AcDbEntity
100
AcDbVertex
100
AcDb3dPolylineVertex
8
0
10
52.1
20
47
30
53.110138102569735
70
32
0
VERTEX
5
BBD
330
B0F
100
AcDbEntity
100
AcDbVertex
100
AcDb3dPolylineVertex
8
0
10
52.1
20
47
30
53.18149520083373
70
32
0
VERTEX
5
BBE
330
B0F
100
AcDbEntity
100
AcDbVertex
100
AcDb3dPolylineVertex
8
0
10
52.1
20
47.2
30
53.1130949371209
70
32
0
VERTEX
5
BBF
330
B0F
100
AcDbEntity
100
AcDbVertex
100
AcDb3dPolylineVertex
8
0
10
52.1
20
47.2
30
53.18445203538489
70
32
0
VERTEX
5
BC0
330
B0F
100
AcDbEntity
100
AcDbVertex
100
AcDb3dPolylineVertex
8
0
10
51.9
20
47.4
30
53.177778510750166
70
32
0
VERTEX
5
BC1
330
B0F
100
AcDbEntity
100
AcDbVertex
100
AcDb3dPolylineVertex
8
0
10
51.9
20
47.4
30
53.24913560901416
70
32
0
VERTEX
5
BC2
330
B0F
100
AcDbEntity
100
AcDbVertex
100
AcDb3dPolylineVertex
8
0
10
51.9
20
47.5
30
53.17925692802575
70
32
0
VERTEX
5
BC3
330
B0F
100
AcDbEntity
100
AcDbVertex
100
AcDb3dPolylineVertex
8
0
10
51.9
20
47.5
30
53.250614026289746
70
32
0
VERTEX
5
BC4
330
B0F
100
AcDbEntity
100
AcDbVertex
100
AcDb3dPolylineVertex
8
0
10
52
20
47.6
30
53.14987197576228
70
32
0
VERTEX
5
BC5
330
B0F
100
AcDbEntity
100
AcDbVertex
100
AcDb3dPolylineVertex
8
0
10
52
20
47.6
30
53.221229074026276
70
32
0
VERTEX
5
BC6
330
B0F
100
AcDbEntity
100
AcDbVertex
100
AcDb3dPolylineVertex
8
0
10
52.3
20
47.6
30
53.057281867145136
70
32
0
VERTEX
5
BC7
330
B0F
100
AcDbEntity
100
AcDbVertex
100
AcDb3dPolylineVertex
8
0
10
52.3
20
47.6
30
53.12863896540913
70
32
0
VERTEX
5
BC8
330
B0F
100
AcDbEntity
100
AcDbVertex
100
AcDb3dPolylineVertex
8
0
10
52.4
20
47.7
30
53.02789691488166
70
32
0
VERTEX
5
BC9
330
B0F
100
AcDbEntity
100
AcDbVertex
100
AcDb3dPolylineVertex
8
0
10
52.4
20
47.7
30
53.099254013145654
70
32
0
VERTEX
5
BCA
330
B0F
100
AcDbEntity
100
AcDbVertex
100
AcDb3dPolylineVertex
8
0
10
53.1
20
47.7
30
52.811853328108306
70
32
0
VERTEX
5
BCB
330
B0F
100
AcDbEntity
100
AcDbVertex
100
AcDb3dPolylineVertex
8
0
10
53.1
20
47.7
30
52.8832104263723
70
32
0
VERTEX
5
BCC
330
B0F
100
AcDbEntity
100
AcDbVertex
100
AcDb3dPolylineVertex
8
0
10
53.2
20
47.6
30
52.77951154129367
70
32
0
VERTEX
5
BCD
330
B0F
100
AcDbEntity
100
AcDbVertex
100
AcDb3dPolylineVertex
8
0
10
53.2
20
47.6
30
52.85086863955767
70
32
0
VERTEX
5
BCE
330
B0F
100
AcDbEntity
100
AcDbVertex
100
AcDb3dPolylineVertex
8
0
10
53.3
20
47.6
30
52.748648171754624
70
32
0
VERTEX
5
BCF
330
B0F
100
AcDbEntity
100
AcDbVertex
100
AcDb3dPolylineVertex
8
0
10
53.3
20
47.6
30
52.82000527001862
70
32
0
VERTEX
5
BD0
330
B0F
100
AcDbEntity
100
AcDbVertex
100
AcDb3dPolylineVertex
8
0
10
53.4
20
47.7
30
52.719263219491154
70
32
0
VERTEX
5
BD1
330
B0F
100
AcDbEntity
100
AcDbVertex
100
AcDb3dPolylineVertex
8
0
10
53.4
20
47.7
30
52.79062031775515
70
32
0
VERTEX
5
BD2
330
B0F
100
AcDbEntity
100
AcDbVertex
100
AcDb3dPolylineVertex
8
0
10
53.5
20
47.6
30
52.68692143267652
70
32
0
VERTEX
5
BD3
330
B0F
100
AcDbEntity
100
AcDbVertex
100
AcDb3dPolylineVertex
8
0
10
53.5
20
47.6
30
52.758278530940515
70
32
0
VERTEX
5
BD4
330
B0F
100
AcDbEntity
100
AcDbVertex
100
AcDb3dPolylineVertex
8
0
10
53.6
20
47.7
30
52.65753648041305
70
32
0
VERTEX
5
BD5
330
B0F
100
AcDbEntity
100
AcDbVertex
100
AcDb3dPolylineVertex
8
0
10
53.6
20
47.7
30
52.728893578677045
70
32
0
VERTEX
5
BD6
330
B0F
100
AcDbEntity
100
AcDbVertex
100
AcDb3dPolylineVertex
8
0
10
53.7
20
47.6
30
52.62519469359842
70
32
0
VERTEX
5
BD7
330
B0F
100
AcDbEntity
100
AcDbVertex
100
AcDb3dPolylineVertex
8
0
10
53.7
20
47.6
30
52.69655179186241
70
32
0
VERTEX
5
BD8
330
B0F
100
AcDbEntity
100
AcDbVertex
100
AcDb3dPolylineVertex
8
0
10
53.8
20
47.6
30
52.59433132405937
70
32
0
VERTEX
5
BD9
330
B0F
100
AcDbEntity
100
AcDbVertex
100
AcDb3dPolylineVertex
8
0
10
53.8
20
47.6
30
52.66568842232336
70
32
0
VERTEX
5
BDA
330
B0F
100
AcDbEntity
100
AcDbVertex
100
AcDb3dPolylineVertex
8
0
10
54
20
47.4
30
52.5296477504301
70
32
0
VERTEX
5
BDB
330
B0F
100
AcDbEntity
100
AcDbVertex
100
AcDb3dPolylineVertex
8
0
10
54
20
47.4
30
52.601004848694096
70
32
0
VERTEX
5
BDC
330
B0F
100
AcDbEntity
100
AcDbVertex
100
AcDb3dPolylineVertex
8
0
10
54
20
46.9
30
52.52225566405218
70
32
0
VERTEX
5
BDD
330
B0F
100
AcDbEntity
100
AcDbVertex
100
AcDb3dPolylineVertex
8
0
10
54
20
46.9
30
52.59361276231618
70
32
0
VERTEX
5
BDE
330
B0F
100
AcDbEntity
100
AcDbVertex
100
AcDb3dPolylineVertex
8
0
10
54.1
20
46.8
30
52.489913877237555
70
32
0
VERTEX
5
BDF
330
B0F
100
AcDbEntity
100
AcDbVertex
100
AcDb3dPolylineVertex
8
0
10
54.1
20
46.8
30
52.56127097550155
70
32
0
VERTEX
5
BE0
330
B0F
100
AcDbEntity
100
AcDbVertex
100
AcDb3dPolylineVertex
8
0
10
54.1
20
46.2
30
52.48104337358405
70
32
0
VERTEX
5
BE1
330
B0F
100
AcDbEntity
100
AcDbVertex
100
AcDb3dPolylineVertex
8
0
10
54.1
20
46.2
30
52.552400471848046
70
32
0
VERTEX
5
BE2
330
B0F
100
AcDbEntity
100
AcDbVertex
100
AcDb3dPolylineVertex
8
0
10
54
20
46.1
30
52.51042832584752
70
32
0
VERTEX
5
BE3
330
B0F
100
AcDbEntity
100
AcDbVertex
100
AcDb3dPolylineVertex
8
0
10
54
20
46.1
30
52.581785424111516
70
32
0
VERTEX
5
BE4
330
B0F
100
AcDbEntity
100
AcDbVertex
100
AcDb3dPolylineVertex
8
0
10
54
20
45.2
30
52.49712257036728
70
32
0
VERTEX
5
BE5
330
B0F
100
AcDbEntity
100
AcDbVertex
100
AcDb3dPolylineVertex
8
0
10
54
20
45.2
30
52.56847966863128
70
32
0
VERTEX
5
BE6
330
B0F
100
AcDbEntity
100
AcDbVertex
100
AcDb3dPolylineVertex
8
0
10
54.1
20
45.1
30
52.46478078355265
70
32
0
VERTEX
5
BE7
330
B0F
100
AcDbEntity
100
AcDbVertex
100
AcDb3dPolylineVertex
8
0
10
54.1
20
45.1
30
52.53613788181664
70
32
0
VERTEX
5
BE8
330
B0F
100
AcDbEntity
100
AcDbVertex
100
AcDb3dPolylineVertex
8
0
10
54
20
45
30
52.49416573581611
70
32
0
VERTEX
5
BE9
330
B0F
100
AcDbEntity
100
AcDbVertex
100
AcDb3dPolylineVertex
8
0
10
54
20
45
30
52.565522834080106
70
32
0
VERTEX
5
BEA
330
B0F
100
AcDbEntity
100
AcDbVertex
100
AcDb3dPolylineVertex
8
0
10
54
20
44.8
30
52.49120890126495
70
32
0
VERTEX
5
BEB
330
B0F
100
AcDbEntity
100
AcDbVertex
100
AcDb3dPolylineVertex
8
0
10
54
20
44.8
30
52.56256599952894
70
32
0
VERTEX
5
BEC
330
B0F
100
AcDbEntity
100
AcDbVertex
100
AcDb3dPolylineVertex
8
0
10
53.8
20
44.6
30
52.54997880579189
70
32
0
VERTEX
5
BED
330
B0F
100
AcDbEntity
100
AcDbVertex
100
AcDb3dPolylineVertex
8
0
10
53.8
20
44.6
30
52.62133590405588
70
32
0
VERTEX
5
BEE
330
B0F
100
AcDbEntity
100
AcDbVertex
100
AcDb3dPolylineVertex
8
0
10
53.8
20
44.5
30
52.5485003885163
70
32
0
VERTEX
5
BEF
330
B0F
100
AcDbEntity
100
AcDbVertex
100
AcDb3dPolylineVertex
8
0
10
53.8
20
44.5
30
52.6198574867803
70
32
0
VERTEX
5
BF0
330
B0F
100
AcDbEntity
100
AcDbVertex
100
AcDb3dPolylineVertex
8
0
10
53.7
20
44.4
30
52.577885340779765
70
32
0
VERTEX
5
BF1
330
B0F
100
AcDbEntity
100
AcDbVertex
100
AcDb3dPolylineVertex
8
0
10
53.7
20
44.4
30
52.64924243904376
70
32
0
VERTEX
5
BF2
330
B0F
100
AcDbEntity
100
AcDbVertex
100
AcDb3dPolylineVertex
8
0
10
53.7
20
44.1
30
52.573450088953024
70
32
0
VERTEX
5
BF3
330
B0F
100
AcDbEntity
100
AcDbVertex
100
AcDb3dPolylineVertex
8
0
10
53.7
20
44.1
30
52.64480718721702
70
32
0
VERTEX
5
BF4
330
B0F
100
AcDbEntity
100
AcDbVertex
100
AcDb3dPolylineVertex
8
0
10
53.5
20
43.9
30
52.63221999347996
70
32
0
VERTEX
5
BF5
330
B0F
100
AcDbEntity
100
AcDbVertex
100
AcDb3dPolylineVertex
8
0
10
53.5
20
43.9
30
52.70357709174395
70
32
0
SEQEND
5
BF6
100
AcDbEntity
8
0
0
POLYLINE
5
BF7
330
91F
100
AcDbEntity
100
AcDb3dPolyline
8
0
66
1
70
0
10
0
20
0
30
0
0
VERTEX
5
BF8
330
BF7
100
AcDbEntity
100
AcDbVertex
100
AcDb3dPolylineVertex
8
0
10
50.2
20
43.5
30
53.6447975191663
70
32
0
VERTEX
5
BF9
330
BF7
100
AcDbEntity
100
AcDbVertex
100
AcDb3dPolylineVertex
8
0
10
50.1
20
43.6
30
53.67713930598094
70
32
0
VERTEX
5
BFA
330
BF7
100
AcDbEntity
100
AcDbVertex
100
AcDb3dPolylineVertex
8
0
10
50.2
20
43.7
30
53.64775435371747
70
32
0
VERTEX
5
BFB
330
BF7
100
AcDbEntity
100
AcDbVertex
100
AcDb3dPolylineVertex
8
0
10
50.3
20
43.6
30
53.61541256690283
70
32
0
VERTEX
5
BFC
330
BF7
100
AcDbEntity
100
AcDbVertex
100
AcDb3dPolylineVertex
8
0
10
50.2
20
43.5
30
53.6447975191663
70
32
0
VERTEX
5
BFD
330
BF7
100
AcDbEntity
100
AcDbVertex
100
AcDb3dPolylineVertex
8
0
10
50.2
20
43.5
30
53.6947975191663
70
32
0
VERTEX
5
BFE
330
BF7
100
AcDbEntity
100
AcDbVertex
100
AcDb3dPolylineVertex
8
0
10
50.1
20
43.6
30
53.727139305980934
70
32
0
VERTEX
5
BFF
330
BF7
100
AcDbEntity
100
AcDbVertex
100
AcDb3dPolylineVertex
8
0
10
50.2
20
43.7
30
53.697754353717464
70
32
0
VERTEX
5
C00
330
BF7
100
AcDbEntity
100
AcDbVertex
100
AcDb3dPolylineVertex
8
0
10
50.3
20
43.6
30
53.66541256690283
70
32
0
VERTEX
5
C01
330
BF7
100
AcDbEntity
100
AcDbVertex
100
AcDb3dPolylineVertex
8
0
10
50.2
20
43.5
30
53.6947975191663
70
32
0
VERTEX
5
C02
330
BF7
100
AcDbEntity
100
AcDbVertex
100
AcDb3dPolylineVertex
8
0
10
50.2
20
43.5
30
53.6447975191663
70
32
0
VERTEX
5
C03
330
BF7
100
AcDbEntity
100
AcDbVertex
100
AcDb3dPolylineVertex
8
0
10
50.2
20
43.5
30
53.6947975191663
70
32
0
VERTEX
5
C04
330
BF7
100
AcDbEntity
100
AcDbVertex
100
AcDb3dPolylineVertex
8
0
10
50.1
20
43.6
30
53.67713930598094
70
32
0
VERTEX
5
C05
330
BF7
100
AcDbEntity
100
AcDbVertex
100
AcDb3dPolylineVertex
8
0
10
50.1
20
43.6
30
53.727139305980934
70
32
0
VERTEX
5
C06
330
BF7
100
AcDbEntity
100
AcDbVertex
100
AcDb3dPolylineVertex
8
0
10
50.2
20
43.7
30
53.64775435371747
70
32
0
VERTEX
5
C07
330
BF7
100
AcDbEntity
100
AcDbVertex
100
AcDb3dPolylineVertex
8
0
10
50.2
20
43.7
30
53.697754353717464
70
32
0
VERTEX
5
C08
330
BF7
100
AcDbEntity
100
AcDbVertex
100
AcDb3dPolylineVertex
8
0
10
50.3
20
43.6
30
53.61541256690283
70
32
0
VERTEX
5
C09
330
BF7
100
AcDbEntity
100
AcDbVertex
100
AcDb3dPolylineVertex
8
0
10
50.3
20
43.6
30
53.66541256690283
70
32
0
SEQEND
5
C0A
100
AcDbEntity
8
0
0
POLYLINE
5
C0B
330
91F
100
AcDbEntity
100
AcDb3dPolyline
8
0
66
1
70
0
10
0
20
0
30
0
0
VERTEX
5
C0C
330
C0B
100
AcDbEntity
100
AcDbVertex
100
AcDb3dPolylineVertex
8
0
10
51.8
20
42.4
30
53.13472101651008
70
32
0
VERTEX
5
C0D
330
C0B
100
AcDbEntity
100
AcDbVertex
100
AcDb3dPolylineVertex
8
0
10
51.7
20
42.5
30
53.16706280332471
70
32
0
VERTEX
5
C0E
330
C0B
100
AcDbEntity
100
AcDbVertex
100
AcDb3dPolylineVertex
8
0
10
51.5
20
42.5
30
53.228789542402815
70
32
0
VERTEX
5
C0F
330
C0B
100
AcDbEntity
100
AcDbVertex
100
AcDb3dPolylineVertex
8
0
10
51.4
20
42.6
30
53.26113132921745
70
32
0
VERTEX
5
C10
330
C0B
100
AcDbEntity
100
AcDbVertex
100
AcDb3dPolylineVertex
8
0
10
51.4
20
42.9
30
53.2655665810442
70
32
0
VERTEX
5
C11
330
C0B
100
AcDbEntity
100
AcDbVertex
100
AcDb3dPolylineVertex
8
0
10
51.6
20
43.1
30
53.206796676517264
70
32
0
VERTEX
5
C12
330
C0B
100
AcDbEntity
100
AcDbVertex
100
AcDb3dPolylineVertex
8
0
10
51.9
20
43.1
30
53.114206567900105
70
32
0
VERTEX
5
C13
330
C0B
100
AcDbEntity
100
AcDbVertex
100
AcDb3dPolylineVertex
8
0
10
52
20
43
30
53.08186478108547
70
32
0
VERTEX
5
C14
330
C0B
100
AcDbEntity
100
AcDbVertex
100
AcDb3dPolylineVertex
8
0
10
52
20
42.8
30
53.07890794653431
70
32
0
VERTEX
5
C15
330
C0B
100
AcDbEntity
100
AcDbVertex
100
AcDb3dPolylineVertex
8
0
10
52.2
20
42.6
30
53.01422437290504
70
32
0
VERTEX
5
C16
330
C0B
100
AcDbEntity
100
AcDbVertex
100
AcDb3dPolylineVertex
8
0
10
52.2
20
42.5
30
53.012745955629455
70
32
0
VERTEX
5
C17
330
C0B
100
AcDbEntity
100
AcDbVertex
100
AcDb3dPolylineVertex
8
0
10
52.1
20
42.4
30
53.042130907892926
70
32
0
VERTEX
5
C18
330
C0B
100
AcDbEntity
100
AcDbVertex
100
AcDb3dPolylineVertex
8
0
10
51.8
20
42.4
30
53.13472101651008
70
32
0
VERTEX
5
C19
330
C0B
100
AcDbEntity
100
AcDbVertex
100
AcDb3dPolylineVertex
8
0
10
51.8
20
42.4
30
53.242815579011705
70
32
0
VERTEX
5
C1A
330
C0B
100
AcDbEntity
100
AcDbVertex
100
AcDb3dPolylineVertex
8
0
10
51.7
20
42.5
30
53.27515736582634
70
32
0
VERTEX
5
C1B
330
C0B
100
AcDbEntity
100
AcDbVertex
100
AcDb3dPolylineVertex
8
0
10
51.5
20
42.5
30
53.33688410490444
70
32
0
VERTEX
5
C1C
330
C0B
100
AcDbEntity
100
AcDbVertex
100
AcDb3dPolylineVertex
8
0
10
51.4
20
42.6
30
53.369225891719076
70
32
0
VERTEX
5
C1D
330
C0B
100
AcDbEntity
100
AcDbVertex
100
AcDb3dPolylineVertex
8
0
10
51.4
20
42.9
30
53.373661143545824
70
32
0
VERTEX
5
C1E
330
C0B
100
AcDbEntity
100
AcDbVertex
100
AcDb3dPolylineVertex
8
0
10
51.6
20
43.1
30
53.31489123901889
70
32
0
VERTEX
5
C1F
330
C0B
100
AcDbEntity
100
AcDbVertex
100
AcDb3dPolylineVertex
8
0
10
51.9
20
43.1
30
53.22230113040173
70
32
0
VERTEX
5
C20
330
C0B
100
AcDbEntity
100
AcDbVertex
100
AcDb3dPolylineVertex
8
0
10
52
20
43
30
53.1899593435871
70
32
0
VERTEX
5
C21
330
C0B
100
AcDbEntity
100
AcDbVertex
100
AcDb3dPolylineVertex
8
0
10
52
20
42.8
30
53.187002509035935
70
32
0
VERTEX
5
C22
330
C0B
100
AcDbEntity
100
AcDbVertex
100
AcDb3dPolylineVertex
8
0
10
52.2
20
42.6
30
53.12231893540667
70
32
0
VERTEX
5
C23
330
C0B
100
AcDbEntity
100
AcDbVertex
100
AcDb3dPolylineVertex
8
0
10
52.2
20
42.5
30
53.12084051813108
70
32
0
VERTEX
5
C24
330
C0B
100
AcDbEntity
100
AcDbVertex
100
AcDb3dPolylineVertex
8
0
10
52.1
20
42.4
30
53.15022547039455
70
32
0
VERTEX
5
C25
330
C0B
100
AcDbEntity
100
AcDbVertex
100
AcDb3dPolylineVertex
8
0
10
51.8
20
42.4
30
53.242815579011705
70
32
0
VERTEX
5
C26
330
C0B
100
AcDbEntity
100
AcDbVertex
100
AcDb3dPolylineVertex
8
0
10
51.8
20
42.4
30
53.13472101651008
70
32
0
VERTEX
5
C27
330
C0B
100
AcDbEntity
100
AcDbVertex
100
AcDb3dPolylineVertex
8
0
10
51.8
20
42.4
30
53.242815579011705
70
32
0
VERTEX
5
C28
330
C0B
100
AcDbEntity
100
AcDbVertex
100
AcDb3dPolylineVertex
8
0
10
51.7
20
42.5
30
53.16706280332471
70
32
0
VERTEX
5
C29
330
C0B
100
AcDbEntity
100
AcDbVertex
100
AcDb3dPolylineVertex
8
0
10
51.7
20
42.5
30
53.27515736582634
70
32
0
VERTEX
5
C2A
330
C0B
100
AcDbEntity
100
AcDbVertex
100
AcDb3dPolylineVertex
8
0
10
51.5
20
42.5
30
53.228789542402815
70
32
0
VERTEX
5
C2B
330
C0B
100
AcDbEntity
100
AcDbVertex
100
AcDb3dPolylineVertex
8
0
10
51.5
20
42.5
30
53.33688410490444
70
32
0
VERTEX
5
C2C
330
C0B
100
AcDbEntity
100
AcDbVertex
100
AcDb3dPolylineVertex
8
0
10
51.4
20
42.6
30
53.26113132921745
70
32
0
VERTEX
5
C2D
330
C0B
100
AcDbEntity
100
AcDbVertex
100
AcDb3dPolylineVertex
8
0
10
51.4
20
42.6
30
53.369225891719076
70
32
0
VERTEX
5
C2E
330
C0B
100
AcDbEntity
100
AcDbVertex
100
AcDb3dPolylineVertex
8
0
10
51.4
20
42.9
30
53.2655665810442
70
32
0
VERTEX
5
C2F
330
C0B
100
AcDbEntity
100
AcDbVertex
100
AcDb3dPolylineVertex
8
0
10
51.4
20
42.9
30
53.373661143545824
70
32
0
VERTEX
5
C30
330
C0B
100
AcDbEntity
100
AcDbVertex
100
AcDb3dPolylineVertex
8
0
10
51.6
20
43.1
30
53.206796676517264
70
32
0
VERTEX
5
C31
330
C0B
100
AcDbEntity
100
AcDbVertex
100
AcDb3dPolylineVertex
8
0
10
51.6
20
43.1
30
53.31489123901889
70
32
0
VERTEX
5
C32
330
C0B
100
AcDbEntity
100
AcDbVertex
100
AcDb3dPolylineVertex
8
0
10
51.9
20
43.1
30
53.114206567900105
70
32
0
VERTEX
5
C33
330
C0B
100
AcDbEntity
100
AcDbVertex
100
AcDb3dPolylineVertex
8
0
10
51.9
20
43.1
30
53.22230113040173
70
32
0
VERTEX
5
C34
330
C0B
100
AcDbEntity
100
AcDbVertex
100
AcDb3dPolylineVertex
8
0
10
52
20
43
30
53.08186478108547
70
32
0
VERTEX
5
C35
330
C0B
100
AcDbEntity
100
AcDbVertex
100
AcDb3dPolylineVertex
8
0
10
52
20
43
30
53.1899593435871
70
32
0
VERTEX
5
C36
330
C0B
100
AcDbEntity
100
AcDbVertex
100
AcDb3dPolylineVertex
8
0
10
52
20
42.8
30
53.07890794653431
70
32
0
VERTEX
5
C37
330
C0B
100
AcDbEntity
100
AcDbVertex
100
AcDb3dPolylineVertex
8
0
10
52
20
42.8
30
53.187002509035935
70
32
0
VERTEX
5
C38
330
C0B
100
AcDbEntity
100
AcDbVertex
100
AcDb3dPolylineVertex
8
0
10
52.2
20
42.6
30
53.01422437290504
70
32
0
VERTEX
5
C39
330
C0B
100
AcDbEntity
100
AcDbVertex
100
AcDb3dPolylineVertex
8
0
10
52.2
20
42.6
30
53.12231893540667
70
32
0
VERTEX
5
C3A
330
C0B
100
AcDbEntity
100
AcDbVertex
100
AcDb3dPolylineVertex
8
0
10
52.2
20
42.5
30
53.012745955629455
70
32
0
VERTEX
5
C3B
330
C0B
100
AcDbEntity
100
AcDbVertex
100
AcDb3dPolylineVertex
8
0
10
52.2
20
42.5
30
53.12084051813108
70
32
0
VERTEX
5
C3C
330
C0B
100
AcDbEntity
100
AcDbVertex
100
AcDb3dPolylineVertex
8
0
10
52.1
20
42.4
30
53.042130907892926
70
32
0
VERTEX
5
C3D
330
C0B
100
AcDbEntity
100
AcDbVertex
100
AcDb3dPolylineVertex
8
0
10
52.1
20
42.4
30
53.15022547039455
70
32
0
SEQEND
5
C3E
100
AcDbEntity
8
0
0
POLYLINE
5
C3F
330
91F
100
AcDbEntity
100
AcDb3dPolyline
8
0
66
1
70
0
10
0
20
0
30
0
0
VERTEX
5
C40
330
C3F
100
AcDbEntity
100
AcDbVertex
100
AcDb3dPolylineVertex
8
0
10
63.41235824982128
20
49.62058466089769
30
49.31737889532736
70
32
0
VERTEX
5
C41
330
C3F
100
AcDbEntity
100
AcDbVertex
100
AcDb3dPolylineVertex
8
0
10
61.01045936187306
20
49.62058466089769
30
49.31737889532736
70
32
0
VERTEX
5
C42
330
C3F
100
AcDbEntity
100
AcDbVertex
100
AcDb3dPolylineVertex
8
0
10
61.01045936187306
20
54.06191741811233
30
49.31737889532736
70
32
0
VERTEX
5
C43
330
C3F
100
AcDbEntity
100
AcDbVertex
100
AcDb3dPolylineVertex
8
0
10
63.41235824982128
20
54.06191741811233
30
49.31737889532736
70
32
0
VERTEX
5
C44
330
C3F
100
AcDbEntity
100
AcDbVertex
100
AcDb3dPolylineVertex
8
0
10
63.41235824982128
20
54.06191741811233
30
48.70777889532736
70
32
0
VERTEX
5
C45
330
C3F
100
AcDbEntity
100
AcDbVertex
100
AcDb3dPolylineVertex
8
0
10
61.01045936187306
20
54.06191741811233
30
48.70777889532736
70
32
0
VERTEX
5
C46
330
C3F
100
AcDbEntity
100
AcDbVertex
100
AcDb3dPolylineVertex
8
0
10
61.01045936187306
20
49.62058466089769
30
48.70777889532736
70
32
0
VERTEX
5
C47
330
C3F
100
AcDbEntity
100
AcDbVertex
100
AcDb3dPolylineVertex
8
0
10
63.41235824982128
20
49.62058466089769
30
48.70777889532736
70
32
0
VERTEX
5
C48
330
C3F
100
AcDbEntity
100
AcDbVertex
100
AcDb3dPolylineVertex
8
0
10
63.41235824982128
20
54.06191741811233
30
48.70777889532736
70
32
0
VERTEX
5
C49
330
C3F
100
AcDbEntity
100
AcDbVertex
100
AcDb3dPolylineVertex
8
0
10
63.41235824982128
20
49.62058466089769
30
48.70777889532736
70
32
0
VERTEX
5
C4A
330
C3F
100
AcDbEntity
100
AcDbVertex
100
AcDb3dPolylineVertex
8
0
10
63.41235824982128
20
49.62058466089769
30
49.31737889532736
70
32
0
VERTEX
5
C4B
330
C3F
100
AcDbEntity
100
AcDbVertex
100
AcDb3dPolylineVertex
8
0
10
63.41235824982128
20
54.06191741811233
30
49.31737889532736
70
32
0
VERTEX
5
C4C
330
C3F
100
AcDbEntity
100
AcDbVertex
100
AcDb3dPolylineVertex
8
0
10
61.01045936187306
20
54.06191741811233
30
49.31737889532736
70
32
0
VERTEX
5
C4D
330
C3F
100
AcDbEntity
100
AcDbVertex
100
AcDb3dPolylineVertex
8
0
10
61.01045936187306
20
49.62058466089769
30
49.31737889532736
70
32
0
VERTEX
5
C4E
330
C3F
100
AcDbEntity
100
AcDbVertex
100
AcDb3dPolylineVertex
8
0
10
61.01045936187306
20
49.62058466089769
30
48.70777889532736
70
32
0
VERTEX
5
C4F
330
C3F
100
AcDbEntity
100
AcDbVertex
100
AcDb3dPolylineVertex
8
0
10
61.01045936187306
20
54.06191741811233
30
48.70777889532736
70
32
0
VERTEX
5
C50
330
C3F
100
AcDbEntity
100
AcDbVertex
100
AcDb3dPolylineVertex
8
0
10
61.01045936187306
20
54.06191741811233
30
49.31737889532736
70
32
0
VERTEX
5
C51
330
C3F
100
AcDbEntity
100
AcDbVertex
100
AcDb3dPolylineVertex
8
0
10
61.01045936187306
20
54.06191741811233
30
48.70777889532736
70
32
0
VERTEX
5
C52
330
C3F
100
AcDbEntity
100
AcDbVertex
100
AcDb3dPolylineVertex
8
0
10
63.41235824982128
20
54.06191741811233
30
48.70777889532736
70
32
0
VERTEX
5
C53
330
C3F
100
AcDbEntity
100
AcDbVertex
100
AcDb3dPolylineVertex
8
0
10
63.41235824982128
20
54.06191741811233
30
49.31737889532736
70
32
0
VERTEX
5
C54
330
C3F
100
AcDbEntity
100
AcDbVertex
100
AcDb3dPolylineVertex
8
0
10
63.41235824982128
20
49.62058466089769
30
49.31737889532736
70
32
0
VERTEX
5
C55
330
C3F
100
AcDbEntity
100
AcDbVertex
100
AcDb3dPolylineVertex
8
0
10
63.41235824982128
20
49.62058466089769
30
48.70777889532736
70
32
0
VERTEX
5
C56
330
C3F
100
AcDbEntity
100
AcDbVertex
100
AcDb3dPolylineVertex
8
0
10
61.01045936187306
20
49.62058466089769
30
48.70777889532736
70
32
0
VERTEX
5
C57
330
C3F
100
AcDbEntity
100
AcDbVertex
100
AcDb3dPolylineVertex
8
0
10
61.01045936187306
20
49.62058466089769
30
49.31737889532736
70
32
0
SEQEND
5
C58
100
AcDbEntity
8
0
0
POLYLINE
5
C59
330
91F
100
AcDbEntity
100
AcDb3dPolyline
8
roofs
66
1
70
0
10
0
20
0
30
0
0
VERTEX
5
C5A
330
C59
100
AcDbEntity
100
AcDbVertex
100
AcDb3dPolylineVertex
8
roofs
10
59.6
20
51.9
30
53.81257889383724
70
32
0
VERTEX
5
C5B
330
C59
100
AcDbEntity
100
AcDbVertex
100
AcDb3dPolylineVertex
8
roofs
10
58.9
20
52.3
30
53.807349200994864
70
32
0
VERTEX
5
C5C
330
C59
100
AcDbEntity
100
AcDbVertex
100
AcDb3dPolylineVertex
8
roofs
10
50.9
20
52.5
30
53.72864582322756
70
32
0
VERTEX
5
C5D
330
C59
100
AcDbEntity
100
AcDbVertex
100
AcDb3dPolylineVertex
8
roofs
10
55
20
56.4
30
52.322376781367005
70
32
0
VERTEX
5
C5E
330
C59
100
AcDbEntity
100
AcDbVertex
100
AcDb3dPolylineVertex
8
roofs
10
59.8
20
56.2
30
52.40326015828702
70
32
0
SEQEND
5
C5F
100
AcDbEntity
8
roofs
0
POLYLINE
5
C60
330
91F
100
AcDbEntity
100
AcDb3dPolyline
8
roofs
66
1
70
0
10
0
20
0
30
0
0
VERTEX
5
C61
330
C60
100
AcDbEntity
100
AcDbVertex
100
AcDb3dPolylineVertex
8
roofs
10
54.7
20
47.4
30
52.23686469476515
70
32
0
VERTEX
5
C62
330
C60
100
AcDbEntity
100
AcDbVertex
100
AcDb3dPolylineVertex
8
roofs
10
50.1
20
52
30
53.715067009086944
70
32
0
VERTEX
5
C63
330
C60
100
AcDbEntity
100
AcDbVertex
100
AcDb3dPolylineVertex
8
roofs
10
50.3
20
52.4
30
53.77206605611812
70
32
0
VERTEX
5
C64
330
C60
100
AcDbEntity
100
AcDbVertex
100
AcDb3dPolylineVertex
8
roofs
10
50.20000000000001
20
52.20000000000001
30
53.75129836106745
70
32
0
VERTEX
5
C65
330
C60
100
AcDbEntity
100
AcDbVertex
100
AcDb3dPolylineVertex
8
roofs
10
50.4
20
52
30
53.70784588027446
70
32
0
VERTEX
5
C66
330
C60
100
AcDbEntity
100
AcDbVertex
100
AcDb3dPolylineVertex
8
roofs
10
50.8
20
52.3
30
53.69679268423218
70
32
0
VERTEX
5
C67
330
C60
100
AcDbEntity
100
AcDbVertex
100
AcDb3dPolylineVertex
8
roofs
10
50.9
20
52.5
30
53.72864582322756
70
32
0
VERTEX
5
C68
330
C60
100
AcDbEntity
100
AcDbVertex
100
AcDb3dPolylineVertex
8
roofs
10
58.9
20
52.3
30
53.807349200994864
70
32
0
VERTEX
5
C69
330
C60
100
AcDbEntity
100
AcDbVertex
100
AcDb3dPolylineVertex
8
roofs
10
59.6
20
51.9
30
53.795391959542584
70
32
0
VERTEX
5
C6A
330
C60
100
AcDbEntity
100
AcDbVertex
100
AcDb3dPolylineVertex
8
roofs
10
59.1
20
47.5
30
52.26745785249845
70
32
0
SEQEND
5
C6B
100
AcDbEntity
8
roofs
0
POLYLINE
5
C6C
330
91F
100
AcDbEntity
100
AcDb3dPolyline
8
roofs
66
1
70
0
10
0
20
0
30
0
0
VERTEX
5
C6D
330
C6C
100
AcDbEntity
100
AcDbVertex
100
AcDb3dPolylineVertex
8
roofs
10
49.6
20
42.2
30
53.73596883043555
70
32
0
VERTEX
5
C6E
330
C6C
100
AcDbEntity
100
AcDbVertex
100
AcDb3dPolylineVertex
8
roofs
10
44.2
20
42.5
30
51.91286247216178
70
32
0
VERTEX
5
C6F
330
C6C
100
AcDbEntity
100
AcDbVertex
100
AcDb3dPolylineVertex
8
roofs
10
44.5
20
42.4
30
51.94951074825151
70
32
0
VERTEX
5
C70
330
C6C
100
AcDbEntity
100
AcDbVertex
100
AcDb3dPolylineVertex
8
roofs
10
47.2
20
45.4
30
52.83655174395339
70
32
0
VERTEX
5
C71
330
C6C
100
AcDbEntity
100
AcDbVertex
100
AcDb3dPolylineVertex
8
roofs
10
46.7
20
46.1
30
52.851670464780824
70
32
0
VERTEX
5
C72
330
C6C
100
AcDbEntity
100
AcDbVertex
100
AcDb3dPolylineVertex
8
roofs
10
46.7
20
46.6
30
52.64975359848309
70
32
0
VERTEX
5
C73
330
C6C
100
AcDbEntity
100
AcDbVertex
100
AcDb3dPolylineVertex
8
roofs
10
44.3
20
49.1
30
51.83048824936121
70
32
0
VERTEX
5
C74
330
C6C
100
AcDbEntity
100
AcDbVertex
100
AcDb3dPolylineVertex
8
roofs
10
44.8
20
56.6
30
51.87624638017585
70
32
0
VERTEX
5
C75
330
C6C
100
AcDbEntity
100
AcDbVertex
100
AcDb3dPolylineVertex
8
roofs
10
50.3
20
56.5
30
53.7561587402309
70
32
0
VERTEX
5
C76
330
C6C
100
AcDbEntity
100
AcDbVertex
100
AcDb3dPolylineVertex
8
roofs
10
50.20000000000001
20
52.20000000000001
30
53.75129836106745
70
32
0
VERTEX
5
C77
330
C6C
100
AcDbEntity
100
AcDbVertex
100
AcDb3dPolylineVertex
8
roofs
10
50.3
20
52.4
30
53.77206605611812
70
32
0
VERTEX
5
C78
330
C6C
100
AcDbEntity
100
AcDbVertex
100
AcDb3dPolylineVertex
8
roofs
10
50.1
20
52
30
53.715067009086944
70
32
0
SEQEND
5
C79
100
AcDbEntity
8
roofs
0
POLYLINE
5
C7A
330
91F
100
AcDbEntity
100
AcDb3dPolyline
8
roofs
66
1
70
0
10
0
20
0
30
0
0
VERTEX
5
C7B
330
C7A
100
AcDbEntity
100
AcDbVertex
100
AcDb3dPolylineVertex
8
roofs
10
44.2
20
42.5
30
51.91286247216178
70
32
0
VERTEX
5
C7C
330
C7A
100
AcDbEntity
100
AcDbVertex
100
AcDb3dPolylineVertex
8
roofs
10
43.1
20
42.5
30
51.909080000333255
70
32
0
VERTEX
5
C7D
330
C7A
100
AcDbEntity
100
AcDbVertex
100
AcDb3dPolylineVertex
8
roofs
10
43.1
20
43
30
52.059740819486045
70
32
0
VERTEX
5
C7E
330
C7A
100
AcDbEntity
100
AcDbVertex
100
AcDb3dPolylineVertex
8
roofs
10
44.2
20
43.9
30
52.3468075955796
70
32
0
VERTEX
5
C7F
330
C7A
100
AcDbEntity
100
AcDbVertex
100
AcDb3dPolylineVertex
8
roofs
10
46.7
20
46.1
30
52.851670464780824
70
32
0
VERTEX
5
C80
330
C7A
100
AcDbEntity
100
AcDbVertex
100
AcDb3dPolylineVertex
8
roofs
10
47.2
20
45.4
30
52.83655174395339
70
32
0
VERTEX
5
C81
330
C7A
100
AcDbEntity
100
AcDbVertex
100
AcDb3dPolylineVertex
8
roofs
10
44.5
20
42.4
30
51.94951074825151
70
32
0
SEQEND
5
C82
100
AcDbEntity
8
roofs
0
POLYLINE
5
C83
330
91F
100
AcDbEntity
100
AcDb3dPolyline
8
roofs
66
1
70
0
10
0
20
0
30
0
0
VERTEX
5
C84
330
C83
100
AcDbEntity
100
AcDbVertex
100
AcDb3dPolylineVertex
8
roofs
10
49.6
20
42.2
30
53.73596883043555
70
32
0
VERTEX
5
C85
330
C83
100
AcDbEntity
100
AcDbVertex
100
AcDb3dPolylineVertex
8
roofs
10
50.1
20
52
30
53.715067009086944
70
32
0
VERTEX
5
C86
330
C83
100
AcDbEntity
100
AcDbVertex
100
AcDb3dPolylineVertex
8
roofs
10
54.7
20
47.4
30
52.23686469476515
70
32
0
VERTEX
5
C87
330
C83
100
AcDbEntity
100
AcDbVertex
100
AcDb3dPolylineVertex
8
roofs
10
54.4
20
42.3
30
52.33079499121917
70
32
0
SEQEND
5
C88
100
AcDbEntity
8
roofs
0
POLYLINE
5
C89
330
91F
100
AcDbEntity
100
AcDb3dPolyline
8
roofs
66
1
70
0
10
0
20
0
30
0
0
VERTEX
5
C8A
330
C89
100
AcDbEntity
100
AcDbVertex
100
AcDb3dPolylineVertex
8
roofs
10
50.20000000000001
20
52.20000000000001
30
53.75129836106745
70
32
0
VERTEX
5
C8B
330
C89
100
AcDbEntity
100
AcDbVertex
100
AcDb3dPolylineVertex
8
roofs
10
50.3
20
56.5
30
53.7561587402309
70
32
0
VERTEX
5
C8C
330
C89
100
AcDbEntity
100
AcDbVertex
100
AcDb3dPolylineVertex
8
roofs
10
55
20
56.4
30
52.322376781367005
70
32
0
VERTEX
5
C8D
330
C89
100
AcDbEntity
100
AcDbVertex
100
AcDb3dPolylineVertex
8
roofs
10
50.9
20
52.5
30
53.72864582322756
70
32
0
VERTEX
5
C8E
330
C89
100
AcDbEntity
100
AcDbVertex
100
AcDb3dPolylineVertex
8
roofs
10
50.8
20
52.3
30
53.69679268423218
70
32
0
VERTEX
5
C8F
330
C89
100
AcDbEntity
100
AcDbVertex
100
AcDb3dPolylineVertex
8
roofs
10
50.4
20
52
30
53.70784588027446
70
32
0
SEQEND
5
C90
100
AcDbEntity
8
roofs
0
POLYLINE
5
C91
330
91F
100
AcDbEntity
100
AcDb3dPolyline
8
panels
66
1
70
0
10
0
20
0
30
0
0
VERTEX
5
C92
330
C91
100
AcDbEntity
100
AcDbVertex
100
AcDb3dPolylineVertex
8
panels
10
54.63403382240157
20
56.04190605913701
30
52.535884429438525
70
32
0
VERTEX
5
C93
330
C91
100
AcDbEntity
100
AcDbVertex
100
AcDb3dPolylineVertex
8
panels
10
55.648870166765946
20
55.99329336370531
30
52.535884429438525
70
32
0
VERTEX
5
C94
330
C91
100
AcDbEntity
100
AcDbVertex
100
AcDb3dPolylineVertex
8
panels
10
55.565428784666814
20
54.25137499390022
30
53.106833576638984
70
32
0
VERTEX
5
C95
330
C91
100
AcDbEntity
100
AcDbVertex
100
AcDb3dPolylineVertex
8
panels
10
54.55059244030243
20
54.29998768933191
30
53.106833576638984
70
32
0
SEQEND
5
C96
100
AcDbEntity
8
panels
0
POLYLINE
5
C97
330
91F
100
AcDbEntity
100
AcDb3dPolyline
8
panels
66
1
70
0
10
0
20
0
30
0
0
VERTEX
5
C98
330
C97
100
AcDbEntity
100
AcDbVertex
100
AcDb3dPolylineVertex
8
panels
10
53.2204166406706
20
54.33953888278273
30
53.114736632954454
70
32
0
VERTEX
5
C99
330
C97
100
AcDbEntity
100
AcDbVertex
100
AcDb3dPolylineVertex
8
panels
10
54.23525298503499
20
54.29092618735105
30
53.114736632954454
70
32
0
VERTEX
5
C9A
330
C97
100
AcDbEntity
100
AcDbVertex
100
AcDb3dPolylineVertex
8
panels
10
54.151811602935844
20
52.54900781754594
30
53.68568578015491
70
32
0
VERTEX
5
C9B
330
C97
100
AcDbEntity
100
AcDbVertex
100
AcDb3dPolylineVertex
8
panels
10
53.13697525857147
20
52.59762051297763
30
53.68568578015491
70
32
0
SEQEND
5
C9C
100
AcDbEntity
8
panels
0
POLYLINE
5
C9D
330
91F
100
AcDbEntity
100
AcDb3dPolyline
8
panels
66
1
70
0
10
0
20
0
30
0
0
VERTEX
5
C9E
330
C9D
100
AcDbEntity
100
AcDbVertex
100
AcDb3dPolylineVertex
8
panels
10
54.24793843933954
20
54.29031852865815
30
53.114736632954454
70
32
0
VERTEX
5
C9F
330
C9D
100
AcDbEntity
100
AcDbVertex
100
AcDb3dPolylineVertex
8
panels
10
55.262774783703925
20
54.241705833226455
30
53.114736632954454
70
32
0
VERTEX
5
CA0
330
C9D
100
AcDbEntity
100
AcDbVertex
100
AcDb3dPolylineVertex
8
panels
10
55.17933340160479
20
52.499787463421356
30
53.68568578015491
70
32
0
VERTEX
5
CA1
330
C9D
100
AcDbEntity
100
AcDbVertex
100
AcDb3dPolylineVertex
8
panels
10
54.16449705724041
20
52.54840015885304
30
53.68568578015491
70
32
0
SEQEND
5
CA2
100
AcDbEntity
8
panels
0
POLYLINE
5
CA3
330
91F
100
AcDbEntity
100
AcDb3dPolyline
8
panels
66
1
70
0
10
0
20
0
30
0
0
VERTEX
5
CA4
330
CA3
100
AcDbEntity
100
AcDbVertex
100
AcDb3dPolylineVertex
8
panels
10
52.820366778914696
20
52.294320616937725
30
53.81941732956086
70
32
0
VERTEX
5
CA5
330
CA3
100
AcDbEntity
100
AcDbVertex
100
AcDb3dPolylineVertex
8
panels
10
53.835203123279086
20
52.245707921506025
30
53.81941732956086
70
32
0
VERTEX
5
CA6
330
CA3
100
AcDbEntity
100
AcDbVertex
100
AcDb3dPolylineVertex
8
panels
10
53.75222406984001
20
50.51344110307268
30
53.219758137648384
70
32
0
VERTEX
5
CA7
330
CA3
100
AcDbEntity
100
AcDbVertex
100
AcDb3dPolylineVertex
8
panels
10
52.73738772547563
20
50.562053798504365
30
53.219758137648384
70
32
0
SEQEND
5
CA8
100
AcDbEntity
8
panels
0
POLYLINE
5
CA9
330
91F
100
AcDbEntity
100
AcDb3dPolyline
8
panels
66
1
70
0
10
0
20
0
30
0
0
VERTEX
5
CAA
330
CA9
100
AcDbEntity
100
AcDbVertex
100
AcDb3dPolylineVertex
8
panels
10
53.84788857758364
20
52.24510026281314
30
53.81941732956086
70
32
0
VERTEX
5
CAB
330
CA9
100
AcDbEntity
100
AcDbVertex
100
AcDb3dPolylineVertex
8
panels
10
54.862724921948015
20
52.19648756738145
30
53.81941732956086
70
32
0
VERTEX
5
CAC
330
CA9
100
AcDbEntity
100
AcDbVertex
100
AcDb3dPolylineVertex
8
panels
10
54.779745868508954
20
50.46422074894809
30
53.219758137648384
70
32
0
VERTEX
5
CAD
330
CA9
100
AcDbEntity
100
AcDbVertex
100
AcDb3dPolylineVertex
8
panels
10
53.76490952414456
20
50.51283344437978
30
53.219758137648384
70
32
0
SEQEND
5
CAE
100
AcDbEntity
8
panels
0
POLYLINE
5
CAF
330
91F
100
AcDbEntity
100
AcDb3dPolyline
8
panels
66
1
70
0
10
0
20
0
30
0
0
VERTEX
5
CB0
330
CAF
100
AcDbEntity
100
AcDbVertex
100
AcDb3dPolylineVertex
8
panels
10
55.90293217492151
20
52.14665955456396
30
53.81941732956086
70
32
0
VERTEX
5
CB1
330
CAF
100
AcDbEntity
100
AcDbVertex
100
AcDb3dPolylineVertex
8
panels
10
56.91776851928589
20
52.098046859132275
30
53.81941732956086
70
32
0
VERTEX
5
CB2
330
CAF
100
AcDbEntity
100
AcDbVertex
100
AcDb3dPolylineVertex
8
panels
10
56.834789465846825
20
50.365780040698915
30
53.219758137648384
70
32
0
VERTEX
5
CB3
330
CAF
100
AcDbEntity
100
AcDbVertex
100
AcDb3dPolylineVertex
8
panels
10
55.81995312148244
20
50.41439273613061
30
53.219758137648384
70
32
0
SEQEND
5
CB4
100
AcDbEntity
8
panels
0
POLYLINE
5
CB5
330
91F
100
AcDbEntity
100
AcDb3dPolyline
8
panels
66
1
70
0
10
0
20
0
30
0
0
VERTEX
5
CB6
330
CB5
100
AcDbEntity
100
AcDbVertex
100
AcDb3dPolylineVertex
8
panels
10
57.95797577225939
20
52.04821884631478
30
53.81941732956086
70
32
0
VERTEX
5
CB7
330
CB5
100
AcDbEntity
100
AcDbVertex
100
AcDb3dPolylineVertex
8
panels
10
58.97281211662378
20
51.999606150883096
30
53.81941732956086
70
32
0
VERTEX
5
CB8
330
CB5
100
AcDbEntity
100
AcDbVertex
100
AcDb3dPolylineVertex
8
panels
10
58.889833063184696
20
50.26733933244974
30
53.219758137648384
70
32
0
VERTEX
5
CB9
330
CB5
100
AcDbEntity
100
AcDbVertex
100
AcDb3dPolylineVertex
8
panels
10
57.87499671882032
20
50.31595202788144
30
53.219758137648384
70
32
0
SEQEND
5
CBA
100
AcDbEntity
8
panels
0
POLYLINE
5
CBB
330
91F
100
AcDbEntity
100
AcDb3dPolyline
8
panels
66
1
70
0
10
0
20
0
30
0
0
VERTEX
5
CBC
330
CBB
100
AcDbEntity
100
AcDbVertex
100
AcDb3dPolylineVertex
8
panels
10
57.873848125928035
20
50.2919740566617
30
53.21145767798921
70
32
0
VERTEX
5
CBD
330
CBB
100
AcDbEntity
100
AcDbVertex
100
AcDb3dPolylineVertex
8
panels
10
58.88868447029241
20
50.24336136123001
30
53.21145767798921
70
32
0
VERTEX
5
CBE
330
CBB
100
AcDbEntity
100
AcDbVertex
100
AcDb3dPolylineVertex
8
panels
10
58.80570541685334
20
48.51109454279665
30
52.61179848607674
70
32
0
VERTEX
5
CBF
330
CBB
100
AcDbEntity
100
AcDbVertex
100
AcDb3dPolylineVertex
8
panels
10
57.79086907248895
20
48.55970723822834
30
52.61179848607674
70
32
0
SEQEND
5
CC0
100
AcDbEntity
8
panels
0
POLYLINE
5
CC1
330
91F
100
AcDbEntity
100
AcDb3dPolyline
8
panels
66
1
70
0
10
0
20
0
30
0
0
VERTEX
5
CC2
330
CC1
100
AcDbEntity
100
AcDbVertex
100
AcDb3dPolylineVertex
8
panels
10
56.84632632725909
20
50.34119441078629
30
53.21145767798921
70
32
0
VERTEX
5
CC3
330
CC1
100
AcDbEntity
100
AcDbVertex
100
AcDb3dPolylineVertex
8
panels
10
57.86116267162347
20
50.29258171535459
30
53.21145767798921
70
32
0
VERTEX
5
CC4
330
CC1
100
AcDbEntity
100
AcDbVertex
100
AcDb3dPolylineVertex
8
panels
10
57.7781836181844
20
48.56031489692124
30
52.61179848607674
70
32
0
VERTEX
5
CC5
330
CC1
100
AcDbEntity
100
AcDbVertex
100
AcDb3dPolylineVertex
8
panels
10
56.763347273820024
20
48.60892759235293
30
52.61179848607674
70
32
0
SEQEND
5
CC6
100
AcDbEntity
8
panels
0
POLYLINE
5
CC7
330
91F
100
AcDbEntity
100
AcDb3dPolyline
8
panels
66
1
70
0
10
0
20
0
30
0
0
VERTEX
5
CC8
330
CC7
100
AcDbEntity
100
AcDbVertex
100
AcDb3dPolylineVertex
8
panels
10
55.81880452859015
20
50.39041476491087
30
53.21145767798921
70
32
0
VERTEX
5
CC9
330
CC7
100
AcDbEntity
100
AcDbVertex
100
AcDb3dPolylineVertex
8
panels
10
56.83364087295454
20
50.341802069479186
30
53.21145767798921
70
32
0
VERTEX
5
CCA
330
CC7
100
AcDbEntity
100
AcDbVertex
100
AcDb3dPolylineVertex
8
panels
10
56.75066181951546
20
48.60953525104583
30
52.61179848607674
70
32
0
VERTEX
5
CCB
330
CC7
100
AcDbEntity
100
AcDbVertex
100
AcDb3dPolylineVertex
8
panels
10
55.73582547515108
20
48.65814794647751
30
52.61179848607674
70
32
0
SEQEND
5
CCC
100
AcDbEntity
8
panels
0
POLYLINE
5
CCD
330
91F
100
AcDbEntity
100
AcDb3dPolyline
8
panels
66
1
70
0
10
0
20
0
30
0
0
VERTEX
5
CCE
330
CCD
100
AcDbEntity
100
AcDbVertex
100
AcDb3dPolylineVertex
8
panels
10
54.791282729921214
20
50.43963511903546
30
53.21145767798921
70
32
0
VERTEX
5
CCF
330
CCD
100
AcDbEntity
100
AcDbVertex
100
AcDb3dPolylineVertex
8
panels
10
55.8061190742856
20
50.39102242360377
30
53.21145767798921
70
32
0
VERTEX
5
CD0
330
CCD
100
AcDbEntity
100
AcDbVertex
100
AcDb3dPolylineVertex
8
panels
10
55.72314002084653
20
48.65875560517041
30
52.61179848607674
70
32
0
VERTEX
5
CD1
330
CCD
100
AcDbEntity
100
AcDbVertex
100
AcDb3dPolylineVertex
8
panels
10
54.70830367648214
20
48.707368300602106
30
52.61179848607674
70
32
0
SEQEND
5
CD2
100
AcDbEntity
8
panels
0
POLYLINE
5
CD3
330
91F
100
AcDbEntity
100
AcDb3dPolyline
8
panels
66
1
70
0
10
0
20
0
30
0
0
VERTEX
5
CD4
330
CD3
100
AcDbEntity
100
AcDbVertex
100
AcDb3dPolylineVertex
8
panels
10
53.76376093125227
20
50.48885547316005
30
53.21145767798921
70
32
0
VERTEX
5
CD5
330
CD3
100
AcDbEntity
100
AcDbVertex
100
AcDb3dPolylineVertex
8
panels
10
54.778597275616654
20
50.44024277772836
30
53.21145767798921
70
32
0
VERTEX
5
CD6
330
CD3
100
AcDbEntity
100
AcDbVertex
100
AcDb3dPolylineVertex
8
panels
10
54.695618222177586
20
48.707975959295
30
52.61179848607674
70
32
0
VERTEX
5
CD7
330
CD3
100
AcDbEntity
100
AcDbVertex
100
AcDb3dPolylineVertex
8
panels
10
53.6807818778132
20
48.756588654726684
30
52.61179848607674
70
32
0
SEQEND
5
CD8
100
AcDbEntity
8
panels
0
POLYLINE
5
CD9
330
91F
100
AcDbEntity
100
AcDb3dPolyline
8
panels
66
1
70
0
10
0
20
0
30
0
0
VERTEX
5
CDA
330
CD9
100
AcDbEntity
100
AcDbVertex
100
AcDb3dPolylineVertex
8
panels
10
54.41729755359205
20
48.69727508617357
30
52.60349802641757
70
32
0
VERTEX
5
CDB
330
CD9
100
AcDbEntity
100
AcDbVertex
100
AcDb3dPolylineVertex
8
panels
10
56.25019587239977
20
48.60947558212125
30
52.60349802641757
70
32
0
VERTEX
5
CDC
330
CD9
100
AcDbEntity
100
AcDbVertex
100
AcDb3dPolylineVertex
8
panels
10
56.204252156708165
20
47.65035673333199
30
52.27147964005077
70
32
0
VERTEX
5
CDD
330
CD9
100
AcDbEntity
100
AcDbVertex
100
AcDb3dPolylineVertex
8
panels
10
54.371353837900436
20
47.7381562373843
30
52.27147964005077
70
32
0
SEQEND
5
CDE
100
AcDbEntity
8
panels
0
POLYLINE
5
CDF
330
91F
100
AcDbEntity
100
AcDb3dPolyline
8
panels
66
1
70
0
10
0
20
0
30
0
0
VERTEX
5
CE0
330
CDF
100
AcDbEntity
100
AcDbVertex
100
AcDb3dPolylineVertex
8
panels
10
56.262881326704324
20
48.60886792342835
30
52.60349802641757
70
32
0
VERTEX
5
CE1
330
CDF
100
AcDbEntity
100
AcDbVertex
100
AcDb3dPolylineVertex
8
panels
10
58.09577964551204
20
48.52106841937604
30
52.60349802641757
70
32
0
VERTEX
5
CE2
330
CDF
100
AcDbEntity
100
AcDbVertex
100
AcDb3dPolylineVertex
8
panels
10
58.04983592982044
20
47.561949570586776
30
52.27147964005077
70
32
0
VERTEX
5
CE3
330
CDF
100
AcDbEntity
100
AcDbVertex
100
AcDb3dPolylineVertex
8
panels
10
56.21693761101271
20
47.6497490746391
30
52.27147964005077
70
32
0
SEQEND
5
CE4
100
AcDbEntity
8
panels
0
POLYLINE
5
CE5
330
91F
100
AcDbEntity
100
AcDb3dPolyline
8
panels
66
1
70
0
10
0
20
0
30
0
0
VERTEX
5
CE6
330
CE5
100
AcDbEntity
100
AcDbVertex
100
AcDb3dPolylineVertex
8
panels
10
44.62463261345995
20
49.19610207557541
30
51.93454153104871
70
32
0
VERTEX
5
CE7
330
CE5
100
AcDbEntity
100
AcDbVertex
100
AcDb3dPolylineVertex
8
panels
10
44.673245308891644
20
50.2109384199398
30
51.93454153104871
70
32
0
VERTEX
5
CE8
330
CE5
100
AcDbEntity
100
AcDbVertex
100
AcDb3dPolylineVertex
8
panels
10
46.41613272628723
20
50.12745061851834
30
52.50251885216105
70
32
0
VERTEX
5
CE9
330
CE5
100
AcDbEntity
100
AcDbVertex
100
AcDb3dPolylineVertex
8
panels
10
46.367520030855545
20
49.112614274153955
30
52.50251885216105
70
32
0
SEQEND
5
CEA
100
AcDbEntity
8
panels
0
POLYLINE
5
CEB
330
91F
100
AcDbEntity
100
AcDb3dPolyline
8
panels
66
1
70
0
10
0
20
0
30
0
0
VERTEX
5
CEC
330
CEB
100
AcDbEntity
100
AcDbVertex
100
AcDb3dPolylineVertex
8
panels
10
44.67385296758454
20
50.22362387424435
30
51.93454153104871
70
32
0
VERTEX
5
CED
330
CEB
100
AcDbEntity
100
AcDbVertex
100
AcDb3dPolylineVertex
8
panels
10
44.72246566301622
20
51.238460218608736
30
51.93454153104871
70
32
0
VERTEX
5
CEE
330
CEB
100
AcDbEntity
100
AcDbVertex
100
AcDb3dPolylineVertex
8
panels
10
46.465353080411816
20
51.154972417187274
30
52.50251885216105
70
32
0
VERTEX
5
CEF
330
CEB
100
AcDbEntity
100
AcDbVertex
100
AcDb3dPolylineVertex
8
panels
10
46.41674038498012
20
50.1401360728229
30
52.50251885216105
70
32
0
SEQEND
5
CF0
100
AcDbEntity
8
panels
0
POLYLINE
5
CF1
330
91F
100
AcDbEntity
100
AcDb3dPolyline
8
panels
66
1
70
0
10
0
20
0
30
0
0
VERTEX
5
CF2
330
CF1
100
AcDbEntity
100
AcDbVertex
100
AcDb3dPolylineVertex
8
panels
10
44.72307332170912
20
51.251145672913296
30
51.93454153104871
70
32
0
VERTEX
5
CF3
330
CF1
100
AcDbEntity
100
AcDbVertex
100
AcDb3dPolylineVertex
8
panels
10
44.771686017140816
20
52.26598201727768
30
51.93454153104871
70
32
0
VERTEX
5
CF4
330
CF1
100
AcDbEntity
100
AcDbVertex
100
AcDb3dPolylineVertex
8
panels
10
46.5145734345364
20
52.18249421585622
30
52.50251885216105
70
32
0
VERTEX
5
CF5
330
CF1
100
AcDbEntity
100
AcDbVertex
100
AcDb3dPolylineVertex
8
panels
10
46.465960739104716
20
51.16765787149183
30
52.50251885216105
70
32
0
SEQEND
5
CF6
100
AcDbEntity
8
panels
0
POLYLINE
5
CF7
330
91F
100
AcDbEntity
100
AcDb3dPolyline
8
panels
66
1
70
0
10
0
20
0
30
0
0
VERTEX
5
CF8
330
CF7
100
AcDbEntity
100
AcDbVertex
100
AcDb3dPolylineVertex
8
panels
10
44.77229367583371
20
52.27866747158223
30
51.93454153104871
70
32
0
VERTEX
5
CF9
330
CF7
100
AcDbEntity
100
AcDbVertex
100
AcDb3dPolylineVertex
8
panels
10
44.820906371265394
20
53.29350381594661
30
51.93454153104871
70
32
0
VERTEX
5
CFA
330
CF7
100
AcDbEntity
100
AcDbVertex
100
AcDb3dPolylineVertex
8
panels
10
46.56379378866099
20
53.21001601452515
30
52.50251885216105
70
32
0
VERTEX
5
CFB
330
CF7
100
AcDbEntity
100
AcDbVertex
100
AcDb3dPolylineVertex
8
panels
10
46.515181093229295
20
52.19517967016077
30
52.50251885216105
70
32
0
SEQEND
5
CFC
100
AcDbEntity
8
panels
0
POLYLINE
5
CFD
330
91F
100
AcDbEntity
100
AcDb3dPolyline
8
panels
66
1
70
0
10
0
20
0
30
0
0
VERTEX
5
CFE
330
CFD
100
AcDbEntity
100
AcDbVertex
100
AcDb3dPolylineVertex
8
panels
10
44.821514029958294
20
53.306189270251174
30
51.93454153104871
70
32
0
VERTEX
5
CFF
330
CFD
100
AcDbEntity
100
AcDbVertex
100
AcDb3dPolylineVertex
8
panels
10
44.87012672538999
20
54.32102561461555
30
51.93454153104871
70
32
0
VERTEX
5
D00
330
CFD
100
AcDbEntity
100
AcDbVertex
100
AcDb3dPolylineVertex
8
panels
10
46.61301414278557
20
54.237537813194095
30
52.50251885216105
70
32
0
VERTEX
5
D01
330
CFD
100
AcDbEntity
100
AcDbVertex
100
AcDb3dPolylineVertex
8
panels
10
46.56440144735389
20
53.22270146882971
30
52.50251885216105
70
32
0
SEQEND
5
D02
100
AcDbEntity
8
panels
0
POLYLINE
5
D03
330
91F
100
AcDbEntity
100
AcDb3dPolyline
8
panels
66
1
70
0
10
0
20
0
30
0
0
VERTEX
5
D04
330
D03
100
AcDbEntity
100
AcDbVertex
100
AcDb3dPolylineVertex
8
panels
10
44.87073438408288
20
54.3337110689201
30
51.93454153104871
70
32
0
VERTEX
5
D05
330
D03
100
AcDbEntity
100
AcDbVertex
100
AcDb3dPolylineVertex
8
panels
10
44.919347079514566
20
55.34854741328449
30
51.93454153104871
70
32
0
VERTEX
5
D06
330
D03
100
AcDbEntity
100
AcDbVertex
100
AcDb3dPolylineVertex
8
panels
10
46.66223449691016
20
55.26505961186304
30
52.50251885216105
70
32
0
VERTEX
5
D07
330
D03
100
AcDbEntity
100
AcDbVertex
100
AcDb3dPolylineVertex
8
panels
10
46.613621801478466
20
54.25022326749864
30
52.50251885216105
70
32
0
SEQEND
5
D08
100
AcDbEntity
8
panels
0
POLYLINE
5
D09
330
91F
100
AcDbEntity
100
AcDb3dPolyline
8
panels
66
1
70
0
10
0
20
0
30
0
0
VERTEX
5
D0A
330
D09
100
AcDbEntity
100
AcDbVertex
100
AcDb3dPolylineVertex
8
panels
10
44.919954738207466
20
55.361232867589045
30
51.93454153104871
70
32
0
VERTEX
5
D0B
330
D09
100
AcDbEntity
100
AcDbVertex
100
AcDb3dPolylineVertex
8
panels
10
44.96856743363916
20
56.37606921195343
30
51.93454153104871
70
32
0
VERTEX
5
D0C
330
D09
100
AcDbEntity
100
AcDbVertex
100
AcDb3dPolylineVertex
8
panels
10
46.711454851034745
20
56.292581410531966
30
52.50251885216105
70
32
0
VERTEX
5
D0D
330
D09
100
AcDbEntity
100
AcDbVertex
100
AcDb3dPolylineVertex
8
panels
10
46.66284215560306
20
55.27774506616758
30
52.50251885216105
70
32
0
SEQEND
5
D0E
100
AcDbEntity
8
panels
0
POLYLINE
5
D0F
330
91F
100
AcDbEntity
100
AcDb3dPolyline
8
panels
66
1
70
0
10
0
20
0
30
0
0
VERTEX
5
D10
330
D0F
100
AcDbEntity
100
AcDbVertex
100
AcDb3dPolylineVertex
8
panels
10
46.89188425231581
20
43.27801020053478
30
52.763881277200426
70
32
0
VERTEX
5
D11
330
D0F
100
AcDbEntity
100
AcDbVertex
100
AcDb3dPolylineVertex
8
panels
10
46.979683756368125
20
45.1109085193425
30
52.763881277200426
70
32
0
VERTEX
5
D12
330
D0F
100
AcDbEntity
100
AcDbVertex
100
AcDb3dPolylineVertex
8
panels
10
47.94468300218497
20
45.06468312084429
30
53.078358093685516
70
32
0
VERTEX
5
D13
330
D0F
100
AcDbEntity
100
AcDbVertex
100
AcDb3dPolylineVertex
8
panels
10
47.85688349813266
20
43.23178480203657
30
53.078358093685516
70
32
0
SEQEND
5
D14
100
AcDbEntity
8
panels
0
POLYLINE
5
D15
330
91F
100
AcDbEntity
100
AcDb3dPolyline
8
panels
66
1
70
0
10
0
20
0
30
0
0
VERTEX
5
D16
330
D15
100
AcDbEntity
100
AcDbVertex
100
AcDb3dPolylineVertex
8
panels
10
46.29293977581471
20
47.05089276907558
30
52.51038077257317
70
32
0
VERTEX
5
D17
330
D15
100
AcDbEntity
100
AcDbVertex
100
AcDb3dPolylineVertex
8
panels
10
46.3415524712464
20
48.065729113439964
30
52.51038077257317
70
32
0
VERTEX
5
D18
330
D15
100
AcDbEntity
100
AcDbVertex
100
AcDb3dPolylineVertex
8
panels
10
48.08443988864199
20
47.9822413120185
30
53.078358093685516
70
32
0
VERTEX
5
D19
330
D15
100
AcDbEntity
100
AcDbVertex
100
AcDb3dPolylineVertex
8
panels
10
48.035827193210295
20
46.96740496765412
30
53.078358093685516
70
32
0
SEQEND
5
D1A
100
AcDbEntity
8
panels
0
POLYLINE
5
D1B
330
91F
100
AcDbEntity
100
AcDb3dPolyline
8
panels
66
1
70
0
10
0
20
0
30
0
0
VERTEX
5
D1C
330
D1B
100
AcDbEntity
100
AcDbVertex
100
AcDb3dPolylineVertex
8
panels
10
46.68696713674847
20
55.276589431205124
30
52.51038077257317
70
32
0
VERTEX
5
D1D
330
D1B
100
AcDbEntity
100
AcDbVertex
100
AcDb3dPolylineVertex
8
panels
10
46.735579832180164
20
56.29142577556952
30
52.51038077257317
70
32
0
VERTEX
5
D1E
330
D1B
100
AcDbEntity
100
AcDbVertex
100
AcDb3dPolylineVertex
8
panels
10
48.47846724957576
20
56.20793797414806
30
53.078358093685516
70
32
0
VERTEX
5
D1F
330
D1B
100
AcDbEntity
100
AcDbVertex
100
AcDb3dPolylineVertex
8
panels
10
48.429854554144065
20
55.19310162978367
30
53.078358093685516
70
32
0
SEQEND
5
D20
100
AcDbEntity
8
panels
0
POLYLINE
5
D21
330
91F
100
AcDbEntity
100
AcDb3dPolyline
8
panels
66
1
70
0
10
0
20
0
30
0
0
VERTEX
5
D22
330
D21
100
AcDbEntity
100
AcDbVertex
100
AcDb3dPolylineVertex
8
panels
10
46.63774678262389
20
54.249067632536196
30
52.51038077257317
70
32
0
VERTEX
5
D23
330
D21
100
AcDbEntity
100
AcDbVertex
100
AcDb3dPolylineVertex
8
panels
10
46.68635947805558
20
55.26390397690058
30
52.51038077257317
70
32
0
VERTEX
5
D24
330
D21
100
AcDbEntity
100
AcDbVertex
100
AcDb3dPolylineVertex
8
panels
10
48.429246895451165
20
55.18041617547912
30
53.078358093685516
70
32
0
VERTEX
5
D25
330
D21
100
AcDbEntity
100
AcDbVertex
100
AcDb3dPolylineVertex
8
panels
10
48.38063420001948
20
54.165579831114734
30
53.078358093685516
70
32
0
SEQEND
5
D26
100
AcDbEntity
8
panels
0
POLYLINE
5
D27
330
91F
100
AcDbEntity
100
AcDb3dPolyline
8
panels
66
1
70
0
10
0
20
0
30
0
0
VERTEX
5
D28
330
D27
100
AcDbEntity
100
AcDbVertex
100
AcDb3dPolylineVertex
8
panels
10
46.5885264284993
20
53.22154583386725
30
52.51038077257317
70
32
0
VERTEX
5
D29
330
D27
100
AcDbEntity
100
AcDbVertex
100
AcDb3dPolylineVertex
8
panels
10
46.63713912393099
20
54.236382178231636
30
52.51038077257317
70
32
0
VERTEX
5
D2A
330
D27
100
AcDbEntity
100
AcDbVertex
100
AcDb3dPolylineVertex
8
panels
10
48.380026541326586
20
54.152894376810174
30
53.078358093685516
70
32
0
VERTEX
5
D2B
330
D27
100
AcDbEntity
100
AcDbVertex
100
AcDb3dPolylineVertex
8
panels
10
48.33141384589489
20
53.13805803244579
30
53.078358093685516
70
32
0
SEQEND
5
D2C
100
AcDbEntity
8
panels
0
POLYLINE
5
D2D
330
91F
100
AcDbEntity
100
AcDb3dPolyline
8
panels
66
1
70
0
10
0
20
0
30
0
0
VERTEX
5
D2E
330
D2D
100
AcDbEntity
100
AcDbVertex
100
AcDb3dPolylineVertex
8
panels
10
46.53930607437472
20
52.19402403519831
30
52.51038077257317
70
32
0
VERTEX
5
D2F
330
D2D
100
AcDbEntity
100
AcDbVertex
100
AcDb3dPolylineVertex
8
panels
10
46.58791876980641
20
53.2088603795627
30
52.51038077257317
70
32
0
VERTEX
5
D30
330
D2D
100
AcDbEntity
100
AcDbVertex
100
AcDb3dPolylineVertex
8
panels
10
48.33080618720199
20
53.12537257814124
30
53.078358093685516
70
32
0
VERTEX
5
D31
330
D2D
100
AcDbEntity
100
AcDbVertex
100
AcDb3dPolylineVertex
8
panels
10
48.28219349177031
20
52.11053623377685
30
53.078358093685516
70
32
0
SEQEND
5
D32
100
AcDbEntity
8
panels
0
POLYLINE
5
D33
330
91F
100
AcDbEntity
100
AcDb3dPolyline
8
panels
66
1
70
0
10
0
20
0
30
0
0
VERTEX
5
D34
330
D33
100
AcDbEntity
100
AcDbVertex
100
AcDb3dPolylineVertex
8
panels
10
46.490085720250136
20
51.16650223652938
30
52.51038077257317
70
32
0
VERTEX
5
D35
330
D33
100
AcDbEntity
100
AcDbVertex
100
AcDb3dPolylineVertex
8
panels
10
46.53869841568182
20
52.18133858089376
30
52.51038077257317
70
32
0
VERTEX
5
D36
330
D33
100
AcDbEntity
100
AcDbVertex
100
AcDb3dPolylineVertex
8
panels
10
48.281585833077415
20
52.097850779472296
30
53.078358093685516
70
32
0
VERTEX
5
D37
330
D33
100
AcDbEntity
100
AcDbVertex
100
AcDb3dPolylineVertex
8
panels
10
48.23297313764572
20
51.08301443510791
30
53.078358093685516
70
32
0
SEQEND
5
D38
100
AcDbEntity
8
panels
0
POLYLINE
5
D39
330
91F
100
AcDbEntity
100
AcDb3dPolyline
8
panels
66
1
70
0
10
0
20
0
30
0
0
VERTEX
5
D3A
330
D39
100
AcDbEntity
100
AcDbVertex
100
AcDb3dPolylineVertex
8
panels
10
46.44086536612555
20
50.13898043786044
30
52.51038077257317
70
32
0
VERTEX
5
D3B
330
D39
100
AcDbEntity
100
AcDbVertex
100
AcDb3dPolylineVertex
8
panels
10
46.489478061557236
20
51.15381678222482
30
52.51038077257317
70
32
0
VERTEX
5
D3C
330
D39
100
AcDbEntity
100
AcDbVertex
100
AcDb3dPolylineVertex
8
panels
10
48.23236547895282
20
51.07032898080336
30
53.078358093685516
70
32
0
VERTEX
5
D3D
330
D39
100
AcDbEntity
100
AcDbVertex
100
AcDb3dPolylineVertex
8
panels
10
48.183752783521136
20
50.05549263643898
30
53.078358093685516
70
32
0
SEQEND
5
D3E
100
AcDbEntity
8
panels
0
POLYLINE
5
D3F
330
91F
100
AcDbEntity
100
AcDb3dPolyline
8
panels
66
1
70
0
10
0
20
0
30
0
0
VERTEX
5
D40
330
D3F
100
AcDbEntity
100
AcDbVertex
100
AcDb3dPolylineVertex
8
panels
10
46.391645012000964
20
49.1114586391915
30
52.51038077257317
70
32
0
VERTEX
5
D41
330
D3F
100
AcDbEntity
100
AcDbVertex
100
AcDb3dPolylineVertex
8
panels
10
46.44025770743265
20
50.12629498355589
30
52.51038077257317
70
32
0
VERTEX
5
D42
330
D3F
100
AcDbEntity
100
AcDbVertex
100
AcDb3dPolylineVertex
8
panels
10
48.18314512482824
20
50.042807182134425
30
53.078358093685516
70
32
0
VERTEX
5
D43
330
D3F
100
AcDbEntity
100
AcDbVertex
100
AcDb3dPolylineVertex
8
panels
10
48.13453242939655
20
49.02797083777004
30
53.078358093685516
70
32
0
SEQEND
5
D44
100
AcDbEntity
8
panels
0
POLYLINE
5
D45
330
91F
100
AcDbEntity
100
AcDb3dPolyline
8
panels
66
1
70
0
10
0
20
0
30
0
0
VERTEX
5
D46
330
D45
100
AcDbEntity
100
AcDbVertex
100
AcDb3dPolylineVertex
8
panels
10
47.88100847927808
20
43.23062916707412
30
53.086220014097634
70
32
0
VERTEX
5
D47
330
D45
100
AcDbEntity
100
AcDbVertex
100
AcDb3dPolylineVertex
8
panels
10
47.92962117470977
20
44.2454655114385
30
53.086220014097634
70
32
0
VERTEX
5
D48
330
D45
100
AcDbEntity
100
AcDbVertex
100
AcDb3dPolylineVertex
8
panels
10
49.67250859210536
20
44.16197771001704
30
53.654197335209986
70
32
0
VERTEX
5
D49
330
D45
100
AcDbEntity
100
AcDbVertex
100
AcDb3dPolylineVertex
8
panels
10
49.62389589667367
20
43.14714136565266
30
53.654197335209986
70
32
0
SEQEND
5
D4A
100
AcDbEntity
8
panels
0
POLYLINE
5
D4B
330
91F
100
AcDbEntity
100
AcDb3dPolyline
8
panels
66
1
70
0
10
0
20
0
30
0
0
VERTEX
5
D4C
330
D4B
100
AcDbEntity
100
AcDbVertex
100
AcDb3dPolylineVertex
8
panels
10
47.930228833402666
20
44.258150965743056
30
53.086220014097634
70
32
0
VERTEX
5
D4D
330
D4B
100
AcDbEntity
100
AcDbVertex
100
AcDb3dPolylineVertex
8
panels
10
47.97884152883436
20
45.27298731010744
30
53.086220014097634
70
32
0
VERTEX
5
D4E
330
D4B
100
AcDbEntity
100
AcDbVertex
100
AcDb3dPolylineVertex
8
panels
10
49.721728946229945
20
45.189499508685984
30
53.654197335209986
70
32
0
VERTEX
5
D4F
330
D4B
100
AcDbEntity
100
AcDbVertex
100
AcDb3dPolylineVertex
8
panels
10
49.67311625079826
20
44.17466316432159
30
53.654197335209986
70
32
0
SEQEND
5
D50
100
AcDbEntity
8
panels
0
POLYLINE
5
D51
330
91F
100
AcDbEntity
100
AcDb3dPolyline
8
panels
66
1
70
0
10
0
20
0
30
0
0
VERTEX
5
D52
330
D51
100
AcDbEntity
100
AcDbVertex
100
AcDb3dPolylineVertex
8
panels
10
47.97944918752725
20
45.28567276441199
30
53.086220014097634
70
32
0
VERTEX
5
D53
330
D51
100
AcDbEntity
100
AcDbVertex
100
AcDb3dPolylineVertex
8
panels
10
48.028061882958944
20
46.30050910877638
30
53.086220014097634
70
32
0
VERTEX
5
D54
330
D51
100
AcDbEntity
100
AcDbVertex
100
AcDb3dPolylineVertex
8
panels
10
49.77094930035453
20
46.21702130735492
30
53.654197335209986
70
32
0
VERTEX
5
D55
330
D51
100
AcDbEntity
100
AcDbVertex
100
AcDb3dPolylineVertex
8
panels
10
49.72233660492284
20
45.20218496299053
30
53.654197335209986
70
32
0
SEQEND
5
D56
100
AcDbEntity
8
panels
0
POLYLINE
5
D57
330
91F
100
AcDbEntity
100
AcDb3dPolyline
8
panels
66
1
70
0
10
0
20
0
30
0
0
VERTEX
5
D58
330
D57
100
AcDbEntity
100
AcDbVertex
100
AcDb3dPolylineVertex
8
panels
10
48.02866954165184
20
46.313194563080934
30
53.086220014097634
70
32
0
VERTEX
5
D59
330
D57
100
AcDbEntity
100
AcDbVertex
100
AcDb3dPolylineVertex
8
panels
10
48.07728223708353
20
47.32803090744532
30
53.086220014097634
70
32
0
VERTEX
5
D5A
330
D57
100
AcDbEntity
100
AcDbVertex
100
AcDb3dPolylineVertex
8
panels
10
49.820169654479116
20
47.244543106023855
30
53.654197335209986
70
32
0
VERTEX
5
D5B
330
D57
100
AcDbEntity
100
AcDbVertex
100
AcDb3dPolylineVertex
8
panels
10
49.77155695904743
20
46.22970676165947
30
53.654197335209986
70
32
0
SEQEND
5
D5C
100
AcDbEntity
8
panels
0
POLYLINE
5
D5D
330
91F
100
AcDbEntity
100
AcDb3dPolyline
8
panels
66
1
70
0
10
0
20
0
30
0
0
VERTEX
5
D5E
330
D5D
100
AcDbEntity
100
AcDbVertex
100
AcDb3dPolylineVertex
8
panels
10
48.07788989577642
20
47.34071636174987
30
53.086220014097634
70
32
0
VERTEX
5
D5F
330
D5D
100
AcDbEntity
100
AcDbVertex
100
AcDb3dPolylineVertex
8
panels
10
48.126502591208116
20
48.35555270611426
30
53.086220014097634
70
32
0
VERTEX
5
D60
330
D5D
100
AcDbEntity
100
AcDbVertex
100
AcDb3dPolylineVertex
8
panels
10
49.8693900086037
20
48.2720649046928
30
53.654197335209986
70
32
0
VERTEX
5
D61
330
D5D
100
AcDbEntity
100
AcDbVertex
100
AcDb3dPolylineVertex
8
panels
10
49.82077731317201
20
47.257228560328414
30
53.654197335209986
70
32
0
SEQEND
5
D62
100
AcDbEntity
8
panels
0
POLYLINE
5
D63
330
91F
100
AcDbEntity
100
AcDb3dPolyline
8
panels
66
1
70
0
10
0
20
0
30
0
0
VERTEX
5
D64
330
D63
100
AcDbEntity
100
AcDbVertex
100
AcDb3dPolylineVertex
8
panels
10
48.12711024990101
20
48.36823816041881
30
53.086220014097634
70
32
0
VERTEX
5
D65
330
D63
100
AcDbEntity
100
AcDbVertex
100
AcDb3dPolylineVertex
8
panels
10
48.1757229453327
20
49.383074504783195
30
53.086220014097634
70
32
0
VERTEX
5
D66
330
D63
100
AcDbEntity
100
AcDbVertex
100
AcDb3dPolylineVertex
8
panels
10
49.91861036272829
20
49.29958670336173
30
53.654197335209986
70
32
0
VERTEX
5
D67
330
D63
100
AcDbEntity
100
AcDbVertex
100
AcDb3dPolylineVertex
8
panels
10
49.8699976672966
20
48.28475035899735
30
53.654197335209986
70
32
0
SEQEND
5
D68
100
AcDbEntity
8
panels
0
POLYLINE
5
D69
330
91F
100
AcDbEntity
100
AcDb3dPolyline
8
panels
66
1
70
0
10
0
20
0
30
0
0
VERTEX
5
D6A
330
D69
100
AcDbEntity
100
AcDbVertex
100
AcDb3dPolylineVertex
8
panels
10
48.176330604025594
20
49.395759959087755
30
53.086220014097634
70
32
0
VERTEX
5
D6B
330
D69
100
AcDbEntity
100
AcDbVertex
100
AcDb3dPolylineVertex
8
panels
10
48.22494329945729
20
50.41059630345213
30
53.086220014097634
70
32
0
VERTEX
5
D6C
330
D69
100
AcDbEntity
100
AcDbVertex
100
AcDb3dPolylineVertex
8
panels
10
49.96783071685287
20
50.32710850203067
30
53.654197335209986
70
32
0
VERTEX
5
D6D
330
D69
100
AcDbEntity
100
AcDbVertex
100
AcDb3dPolylineVertex
8
panels
10
49.91921802142118
20
49.312272157666285
30
53.654197335209986
70
32
0
SEQEND
5
D6E
100
AcDbEntity
8
panels
0
POLYLINE
5
D6F
330
91F
100
AcDbEntity
100
AcDb3dPolyline
8
panels
66
1
70
0
10
0
20
0
30
0
0
VERTEX
5
D70
330
D6F
100
AcDbEntity
100
AcDbVertex
100
AcDb3dPolylineVertex
8
panels
10
48.22555095815018
20
50.42328175775669
30
53.086220014097634
70
32
0
VERTEX
5
D71
330
D6F
100
AcDbEntity
100
AcDbVertex
100
AcDb3dPolylineVertex
8
panels
10
48.27416365358187
20
51.438118102121074
30
53.086220014097634
70
32
0
VERTEX
5
D72
330
D6F
100
AcDbEntity
100
AcDbVertex
100
AcDb3dPolylineVertex
8
panels
10
50.01705107097746
20
51.35463030069961
30
53.654197335209986
70
32
0
VERTEX
5
D73
330
D6F
100
AcDbEntity
100
AcDbVertex
100
AcDb3dPolylineVertex
8
panels
10
49.96843837554577
20
50.33979395633523
30
53.654197335209986
70
32
0
SEQEND
5
D74
100
AcDbEntity
8
panels
0
POLYLINE
5
D75
330
91F
100
AcDbEntity
100
AcDb3dPolyline
8
panels
66
1
70
0
10
0
20
0
30
0
0
VERTEX
5
D76
330
D75
100
AcDbEntity
100
AcDbVertex
100
AcDb3dPolylineVertex
8
panels
10
48.274771312274765
20
51.450803556425626
30
53.086220014097634
70
32
0
VERTEX
5
D77
330
D75
100
AcDbEntity
100
AcDbVertex
100
AcDb3dPolylineVertex
8
panels
10
48.32338400770645
20
52.46563990079001
30
53.086220014097634
70
32
0
VERTEX
5
D78
330
D75
100
AcDbEntity
100
AcDbVertex
100
AcDb3dPolylineVertex
8
panels
10
50.066271425102045
20
52.38215209936855
30
53.654197335209986
70
32
0
VERTEX
5
D79
330
D75
100
AcDbEntity
100
AcDbVertex
100
AcDb3dPolylineVertex
8
panels
10
50.01765872967035
20
51.367315755004164
30
53.654197335209986
70
32
0
SEQEND
5
D7A
100
AcDbEntity
8
panels
0
POLYLINE
5
D7B
330
91F
100
AcDbEntity
100
AcDb3dPolyline
8
panels
66
1
70
0
10
0
20
0
30
0
0
VERTEX
5
D7C
330
D7B
100
AcDbEntity
100
AcDbVertex
100
AcDb3dPolylineVertex
8
panels
10
48.32399166639935
20
52.47832535509457
30
53.086220014097634
70
32
0
VERTEX
5
D7D
330
D7B
100
AcDbEntity
100
AcDbVertex
100
AcDb3dPolylineVertex
8
panels
10
48.372604361831044
20
53.49316169945895
30
53.086220014097634
70
32
0
VERTEX
5
D7E
330
D7B
100
AcDbEntity
100
AcDbVertex
100
AcDb3dPolylineVertex
8
panels
10
50.11549177922663
20
53.40967389803749
30
53.654197335209986
70
32
0
VERTEX
5
D7F
330
D7B
100
AcDbEntity
100
AcDbVertex
100
AcDb3dPolylineVertex
8
panels
10
50.066879083794944
20
52.394837553673106
30
53.654197335209986
70
32
0
SEQEND
5
D80
100
AcDbEntity
8
panels
0
POLYLINE
5
D81
330
91F
100
AcDbEntity
100
AcDb3dPolyline
8
panels
66
1
70
0
10
0
20
0
30
0
0
VERTEX
5
D82
330
D81
100
AcDbEntity
100
AcDbVertex
100
AcDb3dPolylineVertex
8
panels
10
48.37321202052394
20
53.5058471537635
30
53.086220014097634
70
32
0
VERTEX
5
D83
330
D81
100
AcDbEntity
100
AcDbVertex
100
AcDb3dPolylineVertex
8
panels
10
48.42182471595562
20
54.520683498127894
30
53.086220014097634
70
32
0
VERTEX
5
D84
330
D81
100
AcDbEntity
100
AcDbVertex
100
AcDb3dPolylineVertex
8
panels
10
50.164712133351216
20
54.43719569670643
30
53.654197335209986
70
32
0
VERTEX
5
D85
330
D81
100
AcDbEntity
100
AcDbVertex
100
AcDb3dPolylineVertex
8
panels
10
50.11609943791952
20
53.42235935234204
30
53.654197335209986
70
32
0
SEQEND
5
D86
100
AcDbEntity
8
panels
0
POLYLINE
5
D87
330
91F
100
AcDbEntity
100
AcDb3dPolyline
8
panels
66
1
70
0
10
0
20
0
30
0
0
VERTEX
5
D88
330
D87
100
AcDbEntity
100
AcDbVertex
100
AcDb3dPolylineVertex
8
panels
10
48.42243237464852
20
54.53336895243244
30
53.086220014097634
70
32
0
VERTEX
5
D89
330
D87
100
AcDbEntity
100
AcDbVertex
100
AcDb3dPolylineVertex
8
panels
10
48.471045070080216
20
55.54820529679682
30
53.086220014097634
70
32
0
VERTEX
5
D8A
330
D87
100
AcDbEntity
100
AcDbVertex
100
AcDb3dPolylineVertex
8
panels
10
50.2139324874758
20
55.46471749537536
30
53.654197335209986
70
32
0
VERTEX
5
D8B
330
D87
100
AcDbEntity
100
AcDbVertex
100
AcDb3dPolylineVertex
8
panels
10
50.165319792044116
20
54.449881151010985
30
53.654197335209986
70
32
0
SEQEND
5
D8C
100
AcDbEntity
8
panels
0
POLYLINE
5
D8D
330
91F
100
AcDbEntity
100
AcDb3dPolyline
8
panels
66
1
70
0
10
0
20
0
30
0
0
VERTEX
5
D8E
330
D8D
100
AcDbEntity
100
AcDbVertex
100
AcDb3dPolylineVertex
8
panels
10
50.03062103443345
20
46.94309440888249
30
53.74797687778605
70
32
0
VERTEX
5
D8F
330
D8D
100
AcDbEntity
100
AcDbVertex
100
AcDb3dPolylineVertex
8
panels
10
50.11842053848577
20
48.7759927276902
30
53.74797687778605
70
32
0
VERTEX
5
D90
330
D8D
100
AcDbEntity
100
AcDbVertex
100
AcDb3dPolylineVertex
8
panels
10
51.08802612229852
20
48.72954667636724
30
53.448037256936075
70
32
0
VERTEX
5
D91
330
D8D
100
AcDbEntity
100
AcDbVertex
100
AcDb3dPolylineVertex
8
panels
10
51.00022661824621
20
46.89664835755952
30
53.448037256936075
70
32
0
SEQEND
5
D92
100
AcDbEntity
8
panels
0
POLYLINE
5
D93
330
91F
100
AcDbEntity
100
AcDb3dPolyline
8
panels
66
1
70
0
10
0
20
0
30
0
0
VERTEX
5
D94
330
D93
100
AcDbEntity
100
AcDbVertex
100
AcDb3dPolylineVertex
8
panels
10
50.119028197178665
20
48.78867818199476
30
53.74797687778605
70
32
0
VERTEX
5
D95
330
D93
100
AcDbEntity
100
AcDbVertex
100
AcDb3dPolylineVertex
8
panels
10
50.20682770123098
20
50.621576500802476
30
53.74797687778605
70
32
0
VERTEX
5
D96
330
D93
100
AcDbEntity
100
AcDbVertex
100
AcDb3dPolylineVertex
8
panels
10
51.17643328504373
20
50.575130449479516
30
53.448037256936075
70
32
0
VERTEX
5
D97
330
D93
100
AcDbEntity
100
AcDbVertex
100
AcDb3dPolylineVertex
8
panels
10
51.08863378099142
20
48.742232130671795
30
53.448037256936075
70
32
0
SEQEND
5
D98
100
AcDbEntity
8
panels
0
POLYLINE
5
D99
330
91F
100
AcDbEntity
100
AcDb3dPolyline
8
panels
66
1
70
0
10
0
20
0
30
0
0
VERTEX
5
D9A
330
D99
100
AcDbEntity
100
AcDbVertex
100
AcDb3dPolylineVertex
8
panels
10
51.07002654669246
20
47.84659121638963
30
53.44053876641482
70
32
0
VERTEX
5
D9B
330
D99
100
AcDbEntity
100
AcDbVertex
100
AcDb3dPolylineVertex
8
panels
10
51.11863924212415
20
48.861427560754024
30
53.44053876641482
70
32
0
VERTEX
5
D9C
330
D99
100
AcDbEntity
100
AcDbVertex
100
AcDb3dPolylineVertex
8
panels
10
52.86984617745526
20
48.777541237744536
30
52.89881710867887
70
32
0
VERTEX
5
D9D
330
D99
100
AcDbEntity
100
AcDbVertex
100
AcDb3dPolylineVertex
8
panels
10
52.82123348202357
20
47.76270489338015
30
52.89881710867887
70
32
0
SEQEND
5
D9E
100
AcDbEntity
8
panels
0
POLYLINE
5
D9F
330
91F
100
AcDbEntity
100
AcDb3dPolyline
8
panels
66
1
70
0
10
0
20
0
30
0
0
VERTEX
5
DA0
330
D9F
100
AcDbEntity
100
AcDbVertex
100
AcDb3dPolylineVertex
8
panels
10
50.376427003638
20
53.7434231494545
30
53.774718585657624
70
32
0
VERTEX
5
DA1
330
D9F
100
AcDbEntity
100
AcDbVertex
100
AcDb3dPolylineVertex
8
panels
10
50.42503969906969
20
54.758259493818876
30
53.774718585657624
70
32
0
VERTEX
5
DA2
330
D9F
100
AcDbEntity
100
AcDbVertex
100
AcDb3dPolylineVertex
8
panels
10
52.15848508569301
20
54.67522398460072
30
53.17848272980591
70
32
0
VERTEX
5
DA3
330
D9F
100
AcDbEntity
100
AcDbVertex
100
AcDb3dPolylineVertex
8
panels
10
52.109872390261316
20
53.660387640236344
30
53.17848272980591
70
32
0
SEQEND
5
DA4
100
AcDbEntity
8
panels
0
POLYLINE
5
DA5
330
91F
100
AcDbEntity
100
AcDb3dPolyline
8
panels
66
1
70
0
10
0
20
0
30
0
0
VERTEX
5
DA6
330
DA5
100
AcDbEntity
100
AcDbVertex
100
AcDb3dPolylineVertex
8
panels
10
50.425647357762585
20
54.77094494812343
30
53.774718585657624
70
32
0
VERTEX
5
DA7
330
DA5
100
AcDbEntity
100
AcDbVertex
100
AcDb3dPolylineVertex
8
panels
10
50.47426005319427
20
55.78578129248782
30
53.774718585657624
70
32
0
VERTEX
5
DA8
330
DA5
100
AcDbEntity
100
AcDbVertex
100
AcDb3dPolylineVertex
8
panels
10
52.207705439817595
20
55.70274578326966
30
53.17848272980591
70
32
0
VERTEX
5
DA9
330
DA5
100
AcDbEntity
100
AcDbVertex
100
AcDb3dPolylineVertex
8
panels
10
52.15909274438591
20
54.68790943890529
30
53.17848272980591
70
32
0
SEQEND
5
DAA
100
AcDbEntity
8
panels
0
CIRCLE
5
DAB
330
91F
100
AcDbEntity
100
AcDbCircle
8
trees
10
-9.339168548583984
20
5.002130031585693
30
0
40
2.5734616030608746
0
ENDSEC
0
SECTION
2
OBJECTS
0
DICTIONARY
5
90F
330
0
100
AcDbDictionary
281
1
3
ACAD_GROUP
350
923
0
DICTIONARY
5
923
330
90F
100
AcDbDictionary
281
1
0
ENDSEC
0
EOF